{"glyphs":{" ":{"ha":278,"x_min":0,"x_max":0,"o":""}," ":{"ha":278,"x_min":0,"x_max":0,"o":""},"A":{"ha":508,"x_min":14,"x_max":494,"o":"m 14 7 q 35 49 31 7 q 43 157 40 92 q 132 755 54 544 q 369 972 210 965 l 494 972 l 494 965 q 472 916 478 965 q 467 815 467 867 l 467 676 q 446 574 467 618 q 394 497 425 529 q 310 421 364 465 q 222 340 256 375 q 165 256 189 306 q 139 139 140 206 q 167 7 143 7 l 167 0 l 14 0 l 14 7 m 342 7 q 364 56 358 7 q 369 157 369 106 l 369 326 q 385 429 369 394 q 431 494 401 464 q 455 524 447 511 q 463 554 463 536 l 467 554 l 467 157 q 472 56 467 106 q 494 7 478 7 l 494 0 l 342 0 l 342 7 m 369 958 q 222 876 271 956 q 156 648 172 797 q 138 229 140 499 q 176 311 151 276 q 243 389 201 346 q 310 466 285 432 q 352 552 335 500 q 369 676 369 604 l 369 958 z "},"Á":{"ha":508,"x_min":14,"x_max":494,"o":"m 14 7 q 35 49 31 7 q 43 157 40 92 q 132 755 54 544 q 369 972 210 965 l 494 972 l 494 965 q 472 916 478 965 q 467 815 467 867 l 467 676 q 446 574 467 618 q 394 497 425 529 q 310 421 364 465 q 222 340 256 375 q 165 256 189 306 q 139 139 140 206 q 167 7 143 7 l 167 0 l 14 0 l 14 7 m 342 7 q 364 56 358 7 q 369 157 369 106 l 369 326 q 385 429 369 394 q 431 494 401 464 q 455 524 447 511 q 463 554 463 536 l 467 554 l 467 157 q 472 56 467 106 q 494 7 478 7 l 494 0 l 342 0 l 342 7 m 369 958 q 222 876 271 956 q 156 648 172 797 q 138 229 140 499 q 176 311 151 276 q 243 389 201 346 q 310 466 285 432 q 352 552 335 500 q 369 676 369 604 l 369 958 m 279 1150 l 339 1122 l 281 1021 l 253 1021 l 279 1150 z "},"Ă":{"ha":508,"x_min":14,"x_max":494,"o":"m 14 7 q 35 49 31 7 q 43 157 40 92 q 132 755 54 544 q 369 972 210 965 l 494 972 l 494 965 q 472 916 478 965 q 467 815 467 867 l 467 676 q 446 574 467 618 q 394 497 425 529 q 310 421 364 465 q 222 340 256 375 q 165 256 189 306 q 139 139 140 206 q 167 7 143 7 l 167 0 l 14 0 l 14 7 m 342 7 q 364 56 358 7 q 369 157 369 106 l 369 326 q 385 429 369 394 q 431 494 401 464 q 455 524 447 511 q 463 554 463 536 l 467 554 l 467 157 q 472 56 467 106 q 494 7 478 7 l 494 0 l 342 0 l 342 7 m 369 958 q 222 876 271 956 q 156 648 172 797 q 138 229 140 499 q 176 311 151 276 q 243 389 201 346 q 310 466 285 432 q 352 552 335 500 q 369 676 369 604 l 369 958 m 296 1028 q 194 1099 229 1028 l 247 1125 q 296 1064 264 1064 q 344 1125 328 1064 l 397 1099 q 296 1028 363 1028 z "},"Â":{"ha":508,"x_min":14,"x_max":494,"o":"m 14 7 q 35 49 31 7 q 43 157 40 92 q 132 755 54 544 q 369 972 210 965 l 494 972 l 494 965 q 472 916 478 965 q 467 815 467 867 l 467 676 q 446 574 467 618 q 394 497 425 529 q 310 421 364 465 q 222 340 256 375 q 165 256 189 306 q 139 139 140 206 q 167 7 143 7 l 167 0 l 14 0 l 14 7 m 342 7 q 364 56 358 7 q 369 157 369 106 l 369 326 q 385 429 369 394 q 431 494 401 464 q 455 524 447 511 q 463 554 463 536 l 467 554 l 467 157 q 472 56 467 106 q 494 7 478 7 l 494 0 l 342 0 l 342 7 m 369 958 q 222 876 271 956 q 156 648 172 797 q 138 229 140 499 q 176 311 151 276 q 243 389 201 346 q 310 466 285 432 q 352 552 335 500 q 369 676 369 604 l 369 958 m 221 1047 l 282 1135 l 310 1135 l 371 1047 l 317 1017 l 296 1085 l 275 1017 l 221 1047 z "},"Ä":{"ha":508,"x_min":14,"x_max":494,"o":"m 14 7 q 35 49 31 7 q 43 157 40 92 q 132 755 54 544 q 369 972 210 965 l 494 972 l 494 965 q 472 916 478 965 q 467 815 467 867 l 467 676 q 446 574 467 618 q 394 497 425 529 q 310 421 364 465 q 222 340 256 375 q 165 256 189 306 q 139 139 140 206 q 167 7 143 7 l 167 0 l 14 0 l 14 7 m 342 7 q 364 56 358 7 q 369 157 369 106 l 369 326 q 385 429 369 394 q 431 494 401 464 q 455 524 447 511 q 463 554 463 536 l 467 554 l 467 157 q 472 56 467 106 q 494 7 478 7 l 494 0 l 342 0 l 342 7 m 369 958 q 222 876 271 956 q 156 648 172 797 q 138 229 140 499 q 176 311 151 276 q 243 389 201 346 q 310 466 285 432 q 352 552 335 500 q 369 676 369 604 l 369 958 m 351 1046 q 320 1059 333 1046 q 307 1090 307 1072 q 320 1119 307 1107 q 351 1132 333 1132 q 381 1119 368 1132 q 393 1090 393 1107 q 381 1059 393 1072 q 351 1046 368 1046 m 240 1046 q 210 1059 222 1046 q 197 1090 197 1072 q 210 1119 197 1107 q 240 1132 222 1132 q 270 1119 257 1132 q 283 1090 283 1107 q 270 1059 283 1072 q 240 1046 257 1046 z "},"À":{"ha":508,"x_min":14,"x_max":494,"o":"m 14 7 q 35 49 31 7 q 43 157 40 92 q 132 755 54 544 q 369 972 210 965 l 494 972 l 494 965 q 472 916 478 965 q 467 815 467 867 l 467 676 q 446 574 467 618 q 394 497 425 529 q 310 421 364 465 q 222 340 256 375 q 165 256 189 306 q 139 139 140 206 q 167 7 143 7 l 167 0 l 14 0 l 14 7 m 342 7 q 364 56 358 7 q 369 157 369 106 l 369 326 q 385 429 369 394 q 431 494 401 464 q 455 524 447 511 q 463 554 463 536 l 467 554 l 467 157 q 472 56 467 106 q 494 7 478 7 l 494 0 l 342 0 l 342 7 m 369 958 q 222 876 271 956 q 156 648 172 797 q 138 229 140 499 q 176 311 151 276 q 243 389 201 346 q 310 466 285 432 q 352 552 335 500 q 369 676 369 604 l 369 958 m 253 1122 l 313 1150 l 339 1021 l 311 1021 l 253 1122 z "},"Ā":{"ha":508,"x_min":14,"x_max":494,"o":"m 14 7 q 35 49 31 7 q 43 157 40 92 q 132 755 54 544 q 369 972 210 965 l 494 972 l 494 965 q 472 916 478 965 q 467 815 467 867 l 467 676 q 446 574 467 618 q 394 497 425 529 q 310 421 364 465 q 222 340 256 375 q 165 256 189 306 q 139 139 140 206 q 167 7 143 7 l 167 0 l 14 0 l 14 7 m 342 7 q 364 56 358 7 q 369 157 369 106 l 369 326 q 385 429 369 394 q 431 494 401 464 q 455 524 447 511 q 463 554 463 536 l 467 554 l 467 157 q 472 56 467 106 q 494 7 478 7 l 494 0 l 342 0 l 342 7 m 369 958 q 222 876 271 956 q 156 648 172 797 q 138 229 140 499 q 176 311 151 276 q 243 389 201 346 q 310 466 285 432 q 352 552 335 500 q 369 676 369 604 l 369 958 m 192 1108 l 400 1108 l 400 1053 l 192 1053 l 192 1108 z "},"Ą":{"ha":508,"x_min":14,"x_max":501,"o":"m 14 7 q 35 49 31 7 q 43 157 40 92 q 132 755 54 544 q 369 972 210 965 l 494 972 l 494 965 q 472 916 478 965 q 467 815 467 867 l 467 676 q 446 574 467 618 q 394 497 425 529 q 310 421 364 465 q 222 340 256 375 q 165 256 189 306 q 139 139 140 206 q 167 7 143 7 l 167 0 l 14 0 l 14 7 m 342 7 q 364 56 358 7 q 369 157 369 106 l 369 326 q 385 429 369 394 q 431 494 401 464 q 455 524 447 511 q 463 554 463 536 l 467 554 l 467 157 q 472 56 467 106 q 494 7 478 7 l 494 0 l 342 0 l 342 7 m 369 958 q 222 876 271 956 q 156 648 172 797 q 138 229 140 499 q 176 311 151 276 q 243 389 201 346 q 310 466 285 432 q 352 552 335 500 q 369 676 369 604 l 369 958 m 483 -156 q 422 -118 422 -156 q 483 0 422 -81 l 494 0 q 460 -78 460 -51 q 501 -110 460 -110 l 483 -156 z "},"Å":{"ha":508,"x_min":14,"x_max":494,"o":"m 14 7 q 35 49 31 7 q 43 157 40 92 q 132 755 54 544 q 369 972 210 965 l 494 972 l 494 965 q 472 916 478 965 q 467 815 467 867 l 467 676 q 446 574 467 618 q 394 497 425 529 q 310 421 364 465 q 222 340 256 375 q 165 256 189 306 q 139 139 140 206 q 167 7 143 7 l 167 0 l 14 0 l 14 7 m 342 7 q 364 56 358 7 q 369 157 369 106 l 369 326 q 385 429 369 394 q 431 494 401 464 q 455 524 447 511 q 463 554 463 536 l 467 554 l 467 157 q 472 56 467 106 q 494 7 478 7 l 494 0 l 342 0 l 342 7 m 369 958 q 222 876 271 956 q 156 648 172 797 q 138 229 140 499 q 176 311 151 276 q 243 389 201 346 q 310 466 285 432 q 352 552 335 500 q 369 676 369 604 l 369 958 m 294 1017 q 249 1035 268 1017 q 231 1081 231 1054 q 249 1126 231 1107 q 294 1146 268 1146 q 341 1127 322 1146 q 360 1081 360 1108 q 340 1035 360 1054 q 294 1017 321 1017 m 294 1043 q 322 1054 311 1043 q 333 1081 333 1065 q 322 1108 333 1097 q 294 1119 311 1119 q 268 1108 279 1119 q 257 1081 257 1097 q 268 1054 257 1065 q 294 1043 279 1043 z "},"Ã":{"ha":508,"x_min":14,"x_max":494,"o":"m 14 7 q 35 49 31 7 q 43 157 40 92 q 132 755 54 544 q 369 972 210 965 l 494 972 l 494 965 q 472 916 478 965 q 467 815 467 867 l 467 676 q 446 574 467 618 q 394 497 425 529 q 310 421 364 465 q 222 340 256 375 q 165 256 189 306 q 139 139 140 206 q 167 7 143 7 l 167 0 l 14 0 l 14 7 m 342 7 q 364 56 358 7 q 369 157 369 106 l 369 326 q 385 429 369 394 q 431 494 401 464 q 455 524 447 511 q 463 554 463 536 l 467 554 l 467 157 q 472 56 467 106 q 494 7 478 7 l 494 0 l 342 0 l 342 7 m 369 958 q 222 876 271 956 q 156 648 172 797 q 138 229 140 499 q 176 311 151 276 q 243 389 201 346 q 310 466 285 432 q 352 552 335 500 q 369 676 369 604 l 369 958 m 351 1033 q 307 1042 325 1033 q 267 1064 289 1050 q 244 1078 256 1072 q 222 1083 232 1083 q 201 1072 213 1083 l 196 1076 l 238 1135 q 283 1127 264 1135 q 324 1104 301 1119 q 367 1085 350 1085 q 389 1096 378 1085 l 394 1090 l 351 1033 z "},"Æ":{"ha":738,"x_min":14,"x_max":724,"o":"m 14 7 q 35 49 31 7 q 43 157 40 92 q 132 755 54 544 q 369 972 210 965 l 724 972 l 724 682 l 717 682 q 690 845 717 786 q 610 930 664 904 q 467 958 556 956 l 467 694 l 515 658 q 549 642 528 649 q 588 635 569 635 q 633 685 633 635 l 638 685 l 638 311 l 633 311 q 610 462 633 390 q 556 583 586 533 q 504 649 525 632 l 467 676 q 446 574 467 618 q 394 497 425 529 q 310 421 364 465 q 222 340 256 375 q 165 256 189 306 q 139 139 140 206 q 167 7 143 7 l 167 0 l 14 0 l 14 7 m 342 7 q 364 56 358 7 q 369 157 369 106 l 376 157 l 376 0 l 342 0 l 342 7 m 369 326 q 385 429 369 394 q 431 494 401 464 q 455 524 447 511 q 463 554 463 536 l 467 554 l 467 403 l 369 279 l 369 326 m 467 14 q 610 42 556 17 q 690 127 664 68 q 717 290 717 186 l 724 290 l 724 0 l 449 0 l 449 14 l 467 14 m 369 958 q 222 876 271 956 q 156 648 172 797 q 138 229 140 499 q 176 311 151 276 q 243 389 201 346 q 310 466 285 432 q 352 552 335 500 q 369 676 369 604 l 369 958 z "},"B":{"ha":478,"x_min":14,"x_max":464,"o":"m 14 7 q 36 56 31 7 q 42 157 42 106 l 42 815 q 36 916 42 867 q 14 965 31 965 l 14 972 l 139 972 q 321 940 250 972 q 392 828 392 907 q 369 749 392 783 q 308 693 346 714 q 431 600 399 686 q 464 389 464 514 q 420 172 464 260 q 303 42 376 85 q 139 0 229 0 l 14 0 l 14 7 m 233 676 q 294 828 294 722 q 280 910 294 883 q 233 948 265 938 q 139 958 200 958 l 139 453 q 233 676 165 628 m 139 14 q 313 101 260 14 q 367 389 367 189 q 351 599 367 518 q 290 681 335 681 q 178 566 217 681 q 139 229 139 451 l 139 14 z "},"C":{"ha":546,"x_min":14,"x_max":532,"o":"m 300 -12 q 156 55 222 -12 q 52 237 90 122 q 14 486 14 351 q 52 735 14 621 q 156 917 90 850 q 300 985 222 985 q 406 946 356 985 q 465 924 439 924 q 503 972 503 924 l 507 972 l 507 599 l 503 599 q 471 774 503 692 q 400 907 439 856 q 350 954 376 938 q 300 971 324 971 q 208 906 250 971 q 142 729 167 840 q 118 486 118 618 q 142 243 118 354 q 208 67 167 132 q 300 1 250 1 q 367 35 336 1 q 418 128 399 68 q 438 263 438 188 l 532 263 q 498 122 532 185 q 410 23 464 58 q 300 -12 357 -12 z "},"Ć":{"ha":546,"x_min":14,"x_max":532,"o":"m 300 -12 q 156 55 222 -12 q 52 237 90 122 q 14 486 14 351 q 52 735 14 621 q 156 917 90 850 q 300 985 222 985 q 406 946 356 985 q 465 924 439 924 q 503 972 503 924 l 507 972 l 507 599 l 503 599 q 471 774 503 692 q 400 907 439 856 q 350 954 376 938 q 300 971 324 971 q 208 906 250 971 q 142 729 167 840 q 118 486 118 618 q 142 243 118 354 q 208 67 167 132 q 300 1 250 1 q 367 35 336 1 q 418 128 399 68 q 438 263 438 188 l 532 263 q 498 122 532 185 q 410 23 464 58 q 300 -12 357 -12 m 283 1149 l 343 1121 l 285 1019 l 257 1019 l 283 1149 z "},"Č":{"ha":546,"x_min":14,"x_max":532,"o":"m 300 -12 q 156 55 222 -12 q 52 237 90 122 q 14 486 14 351 q 52 735 14 621 q 156 917 90 850 q 300 985 222 985 q 406 946 356 985 q 465 924 439 924 q 503 972 503 924 l 507 972 l 507 599 l 503 599 q 471 774 503 692 q 400 907 439 856 q 350 954 376 938 q 300 971 324 971 q 208 906 250 971 q 142 729 167 840 q 118 486 118 618 q 142 243 118 354 q 208 67 167 132 q 300 1 250 1 q 367 35 336 1 q 418 128 399 68 q 438 263 438 188 l 532 263 q 498 122 532 185 q 410 23 464 58 q 300 -12 357 -12 m 225 1103 l 279 1133 l 300 1065 l 321 1133 l 375 1103 l 314 1015 l 286 1015 l 225 1103 z "},"Ç":{"ha":546,"x_min":14,"x_max":532,"o":"m 503 599 q 471 774 503 692 q 400 907 439 856 q 350 954 376 938 q 300 971 324 971 q 208 906 250 971 q 142 729 167 840 q 118 486 118 618 q 142 243 118 354 q 208 67 167 132 q 300 1 250 1 q 367 35 336 1 q 418 128 399 68 q 438 263 438 188 l 532 263 q 499 124 532 186 q 415 26 467 63 q 308 -12 364 -10 l 299 -47 q 338 -65 324 -50 q 353 -100 353 -79 q 331 -142 353 -124 q 271 -161 310 -161 l 271 -157 q 305 -142 292 -157 q 318 -111 318 -128 q 309 -90 318 -99 q 285 -81 300 -81 l 272 -81 l 292 -12 q 152 60 215 -8 q 51 241 89 128 q 14 486 14 354 q 52 735 14 621 q 156 917 90 850 q 300 985 222 985 q 406 946 356 985 q 465 924 439 924 q 503 972 503 924 l 507 972 l 507 599 l 503 599 z "},"Ċ":{"ha":546,"x_min":14,"x_max":532,"o":"m 300 -12 q 156 55 222 -12 q 52 237 90 122 q 14 486 14 351 q 52 735 14 621 q 156 917 90 850 q 300 985 222 985 q 406 946 356 985 q 465 924 439 924 q 503 972 503 924 l 507 972 l 507 599 l 503 599 q 471 774 503 692 q 400 907 439 856 q 350 954 376 938 q 300 971 324 971 q 208 906 250 971 q 142 729 167 840 q 118 486 118 618 q 142 243 118 354 q 208 67 167 132 q 300 1 250 1 q 367 35 336 1 q 418 128 399 68 q 438 263 438 188 l 532 263 q 498 122 532 185 q 410 23 464 58 q 300 -12 357 -12 m 301 1044 q 270 1058 283 1044 q 257 1089 257 1071 q 270 1118 257 1106 q 301 1131 283 1131 q 331 1118 318 1131 q 343 1089 343 1106 q 331 1058 343 1071 q 301 1044 318 1044 z "},"D":{"ha":475,"x_min":14,"x_max":461,"o":"m 14 7 q 36 56 31 7 q 42 157 42 106 l 42 815 q 36 916 42 867 q 14 965 31 965 l 14 972 l 139 972 q 308 911 235 972 q 421 740 381 850 q 461 485 461 629 q 421 231 461 340 q 308 60 381 121 q 139 0 235 0 l 14 0 l 14 7 m 139 14 q 316 132 268 15 q 364 485 364 249 q 316 839 364 721 q 139 958 268 957 l 139 14 z "},"Ď":{"ha":475,"x_min":14,"x_max":461,"o":"m 14 7 q 36 56 31 7 q 42 157 42 106 l 42 815 q 36 916 42 867 q 14 965 31 965 l 14 972 l 139 972 q 308 911 235 972 q 421 740 381 850 q 461 485 461 629 q 421 231 461 340 q 308 60 381 121 q 139 0 235 0 l 14 0 l 14 7 m 139 14 q 316 132 268 15 q 364 485 364 249 q 316 839 364 721 q 139 958 268 957 l 139 14 m 104 1104 l 158 1135 l 179 1067 l 200 1135 l 254 1104 l 193 1017 l 165 1017 l 104 1104 z "},"Đ":{"ha":475,"x_min":0,"x_max":461,"o":"m 14 7 q 36 56 31 7 q 42 157 42 106 l 42 751 l 0 751 l 0 807 l 42 807 l 42 815 q 36 916 42 867 q 14 965 31 965 l 14 972 l 139 972 q 308 911 235 972 q 421 740 381 850 q 461 485 461 629 q 421 231 461 340 q 308 60 381 121 q 139 0 235 0 l 14 0 l 14 7 m 139 14 q 316 132 268 15 q 364 485 364 249 q 316 839 364 721 q 139 958 268 957 l 139 807 l 208 807 l 208 751 l 139 751 l 139 14 z "},"Ð":{"ha":475,"x_min":0,"x_max":461,"o":"m 14 7 q 36 56 31 7 q 42 157 42 106 l 42 751 l 0 751 l 0 807 l 42 807 l 42 815 q 36 916 42 867 q 14 965 31 965 l 14 972 l 139 972 q 308 911 235 972 q 421 740 381 850 q 461 485 461 629 q 421 231 461 340 q 308 60 381 121 q 139 0 235 0 l 14 0 l 14 7 m 139 14 q 316 132 268 15 q 364 485 364 249 q 316 839 364 721 q 139 958 268 957 l 139 807 l 208 807 l 208 751 l 139 751 l 139 14 z "},"E":{"ha":410,"x_min":14,"x_max":396,"o":"m 389 682 q 363 845 389 786 q 282 930 336 904 q 139 958 228 956 l 139 694 l 188 658 q 221 642 200 649 q 260 635 242 635 q 306 685 306 635 l 310 685 l 310 311 l 306 311 q 282 462 306 390 q 228 583 258 533 q 176 649 197 632 l 139 678 l 139 14 q 282 42 228 17 q 363 127 336 68 q 389 290 389 186 l 396 290 l 396 0 l 14 0 l 14 7 q 36 56 31 7 q 42 157 42 106 l 42 679 l 135 679 l 111 693 q 59 735 76 714 q 42 793 42 756 l 42 815 q 36 916 42 867 q 14 965 31 965 l 14 972 l 396 972 l 396 682 l 389 682 z "},"É":{"ha":410,"x_min":14,"x_max":396,"o":"m 389 682 q 363 845 389 786 q 282 930 336 904 q 139 958 228 956 l 139 694 l 188 658 q 221 642 200 649 q 260 635 242 635 q 306 685 306 635 l 310 685 l 310 311 l 306 311 q 282 462 306 390 q 228 583 258 533 q 176 649 197 632 l 139 678 l 139 14 q 282 42 228 17 q 363 127 336 68 q 389 290 389 186 l 396 290 l 396 0 l 14 0 l 14 7 q 36 56 31 7 q 42 157 42 106 l 42 679 l 135 679 l 111 693 q 59 735 76 714 q 42 793 42 756 l 42 815 q 36 916 42 867 q 14 965 31 965 l 14 972 l 396 972 l 396 682 l 389 682 m 189 1150 l 249 1122 l 190 1021 l 163 1021 l 189 1150 z "},"Ě":{"ha":410,"x_min":14,"x_max":396,"o":"m 389 682 q 363 845 389 786 q 282 930 336 904 q 139 958 228 956 l 139 694 l 188 658 q 221 642 200 649 q 260 635 242 635 q 306 685 306 635 l 310 685 l 310 311 l 306 311 q 282 462 306 390 q 228 583 258 533 q 176 649 197 632 l 139 678 l 139 14 q 282 42 228 17 q 363 127 336 68 q 389 290 389 186 l 396 290 l 396 0 l 14 0 l 14 7 q 36 56 31 7 q 42 157 42 106 l 42 679 l 135 679 l 111 693 q 59 735 76 714 q 42 793 42 756 l 42 815 q 36 916 42 867 q 14 965 31 965 l 14 972 l 396 972 l 396 682 l 389 682 m 131 1104 l 185 1135 l 206 1067 l 226 1135 l 281 1104 l 219 1017 l 192 1017 l 131 1104 z "},"Ê":{"ha":410,"x_min":14,"x_max":396,"o":"m 389 682 q 363 845 389 786 q 282 930 336 904 q 139 958 228 956 l 139 694 l 188 658 q 221 642 200 649 q 260 635 242 635 q 306 685 306 635 l 310 685 l 310 311 l 306 311 q 282 462 306 390 q 228 583 258 533 q 176 649 197 632 l 139 678 l 139 14 q 282 42 228 17 q 363 127 336 68 q 389 290 389 186 l 396 290 l 396 0 l 14 0 l 14 7 q 36 56 31 7 q 42 157 42 106 l 42 679 l 135 679 l 111 693 q 59 735 76 714 q 42 793 42 756 l 42 815 q 36 916 42 867 q 14 965 31 965 l 14 972 l 396 972 l 396 682 l 389 682 m 131 1047 l 192 1135 l 219 1135 l 281 1047 l 226 1017 l 206 1085 l 185 1017 l 131 1047 z "},"Ë":{"ha":410,"x_min":14,"x_max":396,"o":"m 389 682 q 363 845 389 786 q 282 930 336 904 q 139 958 228 956 l 139 694 l 188 658 q 221 642 200 649 q 260 635 242 635 q 306 685 306 635 l 310 685 l 310 311 l 306 311 q 282 462 306 390 q 228 583 258 533 q 176 649 197 632 l 139 678 l 139 14 q 282 42 228 17 q 363 127 336 68 q 389 290 389 186 l 396 290 l 396 0 l 14 0 l 14 7 q 36 56 31 7 q 42 157 42 106 l 42 679 l 135 679 l 111 693 q 59 735 76 714 q 42 793 42 756 l 42 815 q 36 916 42 867 q 14 965 31 965 l 14 972 l 396 972 l 396 682 l 389 682 m 261 1046 q 230 1059 243 1046 q 217 1090 217 1072 q 230 1119 217 1107 q 261 1132 243 1132 q 290 1119 278 1132 q 303 1090 303 1107 q 290 1059 303 1072 q 261 1046 278 1046 m 150 1046 q 119 1059 132 1046 q 107 1090 107 1072 q 119 1119 107 1107 q 150 1132 132 1132 q 180 1119 167 1132 q 193 1090 193 1107 q 180 1059 193 1072 q 150 1046 167 1046 z "},"Ė":{"ha":410,"x_min":14,"x_max":396,"o":"m 389 682 q 363 845 389 786 q 282 930 336 904 q 139 958 228 956 l 139 694 l 188 658 q 221 642 200 649 q 260 635 242 635 q 306 685 306 635 l 310 685 l 310 311 l 306 311 q 282 462 306 390 q 228 583 258 533 q 176 649 197 632 l 139 678 l 139 14 q 282 42 228 17 q 363 127 336 68 q 389 290 389 186 l 396 290 l 396 0 l 14 0 l 14 7 q 36 56 31 7 q 42 157 42 106 l 42 679 l 135 679 l 111 693 q 59 735 76 714 q 42 793 42 756 l 42 815 q 36 916 42 867 q 14 965 31 965 l 14 972 l 396 972 l 396 682 l 389 682 m 207 1046 q 176 1059 189 1046 q 163 1090 163 1072 q 176 1119 163 1107 q 207 1132 189 1132 q 236 1119 224 1132 q 249 1090 249 1107 q 236 1059 249 1072 q 207 1046 224 1046 z "},"È":{"ha":410,"x_min":14,"x_max":396,"o":"m 389 682 q 363 845 389 786 q 282 930 336 904 q 139 958 228 956 l 139 694 l 188 658 q 221 642 200 649 q 260 635 242 635 q 306 685 306 635 l 310 685 l 310 311 l 306 311 q 282 462 306 390 q 228 583 258 533 q 176 649 197 632 l 139 678 l 139 14 q 282 42 228 17 q 363 127 336 68 q 389 290 389 186 l 396 290 l 396 0 l 14 0 l 14 7 q 36 56 31 7 q 42 157 42 106 l 42 679 l 135 679 l 111 693 q 59 735 76 714 q 42 793 42 756 l 42 815 q 36 916 42 867 q 14 965 31 965 l 14 972 l 396 972 l 396 682 l 389 682 m 163 1122 l 222 1150 l 249 1021 l 221 1021 l 163 1122 z "},"Ē":{"ha":410,"x_min":14,"x_max":396,"o":"m 389 682 q 363 845 389 786 q 282 930 336 904 q 139 958 228 956 l 139 694 l 188 658 q 221 642 200 649 q 260 635 242 635 q 306 685 306 635 l 310 685 l 310 311 l 306 311 q 282 462 306 390 q 228 583 258 533 q 176 649 197 632 l 139 678 l 139 14 q 282 42 228 17 q 363 127 336 68 q 389 290 389 186 l 396 290 l 396 0 l 14 0 l 14 7 q 36 56 31 7 q 42 157 42 106 l 42 679 l 135 679 l 111 693 q 59 735 76 714 q 42 793 42 756 l 42 815 q 36 916 42 867 q 14 965 31 965 l 14 972 l 396 972 l 396 682 l 389 682 m 101 1108 l 310 1108 l 310 1053 l 101 1053 l 101 1108 z "},"Ę":{"ha":410,"x_min":14,"x_max":403,"o":"m 389 682 q 363 845 389 786 q 282 930 336 904 q 139 958 228 956 l 139 694 l 188 658 q 221 642 200 649 q 260 635 242 635 q 306 685 306 635 l 310 685 l 310 311 l 306 311 q 282 462 306 390 q 228 583 258 533 q 176 649 197 632 l 139 678 l 139 14 q 282 42 228 17 q 363 127 336 68 q 389 290 389 186 l 396 290 l 396 0 l 14 0 l 14 7 q 36 56 31 7 q 42 157 42 106 l 42 679 l 135 679 l 111 693 q 59 735 76 714 q 42 793 42 756 l 42 815 q 36 916 42 867 q 14 965 31 965 l 14 972 l 396 972 l 396 682 l 389 682 m 385 -156 q 324 -118 324 -156 q 385 0 324 -81 l 396 0 q 361 -78 361 -51 q 403 -110 361 -110 l 385 -156 z "},"Ẽ":{"ha":410,"x_min":14,"x_max":396,"o":"m 389 682 q 363 845 389 786 q 282 930 336 904 q 139 958 228 956 l 139 694 l 188 658 q 221 642 200 649 q 260 635 242 635 q 306 685 306 635 l 310 685 l 310 311 l 306 311 q 282 462 306 390 q 228 583 258 533 q 176 649 197 632 l 139 678 l 139 14 q 282 42 228 17 q 363 127 336 68 q 389 290 389 186 l 396 290 l 396 0 l 14 0 l 14 7 q 36 56 31 7 q 42 157 42 106 l 42 679 l 135 679 l 111 693 q 59 735 76 714 q 42 793 42 756 l 42 815 q 36 916 42 867 q 14 965 31 965 l 14 972 l 396 972 l 396 682 l 389 682 m 261 1033 q 217 1042 235 1033 q 176 1064 199 1050 q 153 1078 165 1072 q 132 1083 142 1083 q 111 1072 122 1083 l 106 1076 l 147 1135 q 192 1127 174 1135 q 233 1104 211 1119 q 276 1085 260 1085 q 299 1096 288 1085 l 304 1090 l 261 1033 z "},"Ə":{"ha":546,"x_min":14,"x_max":532,"o":"m 246 986 q 390 918 324 986 q 494 735 456 850 q 532 485 532 619 q 493 233 532 349 q 386 51 454 118 q 236 -17 318 -17 q 135 13 186 -17 q 49 103 83 42 q 14 251 14 164 q 42 385 14 324 q 110 492 71 446 q 215 603 150 538 q 331 731 294 681 q 368 842 368 782 q 312 934 343 901 q 246 967 281 967 q 178 933 210 967 q 128 841 147 900 q 108 706 108 782 l 14 706 q 48 848 14 783 q 135 949 82 913 q 246 986 189 986 m 106 251 q 125 108 106 164 q 174 26 144 51 q 236 1 204 1 q 339 65 296 1 q 405 240 382 129 q 428 485 428 350 q 379 811 428 674 q 342 707 372 756 q 258 590 313 658 q 178 482 208 528 q 127 378 149 436 q 106 251 106 319 z "},"F":{"ha":410,"x_min":14,"x_max":396,"o":"m 389 682 q 363 845 389 786 q 282 930 336 904 q 139 958 228 956 l 139 694 l 188 658 q 221 642 200 649 q 260 635 242 635 q 306 685 306 635 l 310 685 l 310 311 l 306 311 q 282 462 306 390 q 228 583 258 533 q 176 649 197 632 l 139 678 l 139 157 q 144 56 139 106 q 167 7 150 7 l 167 0 l 14 0 l 14 7 q 36 56 31 7 q 42 157 42 106 l 42 679 l 135 679 l 111 693 q 59 735 76 714 q 42 793 42 756 l 42 815 q 36 916 42 867 q 14 965 31 965 l 14 972 l 396 972 l 396 682 l 389 682 z "},"G":{"ha":590,"x_min":14,"x_max":576,"o":"m 300 -12 q 156 55 222 -12 q 52 237 90 122 q 14 486 14 351 q 52 735 14 621 q 156 917 90 850 q 300 985 222 985 q 406 946 356 985 q 465 924 439 924 q 503 972 503 924 l 507 972 l 507 599 l 503 599 q 471 774 503 692 q 400 907 439 856 q 350 954 376 938 q 300 971 324 971 q 208 906 250 971 q 142 729 167 840 q 118 486 118 618 q 142 243 118 354 q 208 67 167 132 q 300 1 250 1 q 367 35 336 1 q 416 128 397 68 q 435 263 435 188 l 435 499 q 339 410 369 472 q 308 236 308 347 l 301 236 l 301 526 l 576 526 l 576 519 l 532 518 l 532 0 l 522 0 l 444 68 q 300 -12 383 -12 z "},"Ğ":{"ha":590,"x_min":14,"x_max":576,"o":"m 300 -12 q 156 55 222 -12 q 52 237 90 122 q 14 486 14 351 q 52 735 14 621 q 156 917 90 850 q 300 985 222 985 q 406 946 356 985 q 465 924 439 924 q 503 972 503 924 l 507 972 l 507 599 l 503 599 q 471 774 503 692 q 400 907 439 856 q 350 954 376 938 q 300 971 324 971 q 208 906 250 971 q 142 729 167 840 q 118 486 118 618 q 142 243 118 354 q 208 67 167 132 q 300 1 250 1 q 367 35 336 1 q 416 128 397 68 q 435 263 435 188 l 435 499 q 339 410 369 472 q 308 236 308 347 l 301 236 l 301 526 l 576 526 l 576 519 l 532 518 l 532 0 l 522 0 l 444 68 q 300 -12 383 -12 m 300 1026 q 199 1097 233 1026 l 251 1124 q 300 1063 268 1063 q 349 1124 332 1063 l 401 1097 q 300 1026 367 1026 z "},"Ģ":{"ha":590,"x_min":14,"x_max":576,"o":"m 300 -12 q 156 55 222 -12 q 52 237 90 122 q 14 486 14 351 q 52 735 14 621 q 156 917 90 850 q 300 985 222 985 q 406 946 356 985 q 465 924 439 924 q 503 972 503 924 l 507 972 l 507 599 l 503 599 q 471 774 503 692 q 400 907 439 856 q 350 954 376 938 q 300 971 324 971 q 208 906 250 971 q 142 729 167 840 q 118 486 118 618 q 142 243 118 354 q 208 67 167 132 q 300 1 250 1 q 367 35 336 1 q 416 128 397 68 q 435 263 435 188 l 435 499 q 339 410 369 472 q 308 236 308 347 l 301 236 l 301 526 l 576 526 l 576 519 l 532 518 l 532 0 l 522 0 l 444 68 q 300 -12 383 -12 m 297 -74 l 357 -101 l 299 -203 l 271 -203 l 297 -74 z "},"Ġ":{"ha":590,"x_min":14,"x_max":576,"o":"m 300 -12 q 156 55 222 -12 q 52 237 90 122 q 14 486 14 351 q 52 735 14 621 q 156 917 90 850 q 300 985 222 985 q 406 946 356 985 q 465 924 439 924 q 503 972 503 924 l 507 972 l 507 599 l 503 599 q 471 774 503 692 q 400 907 439 856 q 350 954 376 938 q 300 971 324 971 q 208 906 250 971 q 142 729 167 840 q 118 486 118 618 q 142 243 118 354 q 208 67 167 132 q 300 1 250 1 q 367 35 336 1 q 416 128 397 68 q 435 263 435 188 l 435 499 q 339 410 369 472 q 308 236 308 347 l 301 236 l 301 526 l 576 526 l 576 519 l 532 518 l 532 0 l 522 0 l 444 68 q 300 -12 383 -12 m 301 1044 q 270 1058 283 1044 q 257 1089 257 1071 q 270 1118 257 1106 q 301 1131 283 1131 q 331 1118 318 1131 q 343 1089 343 1106 q 331 1058 343 1071 q 301 1044 318 1044 z "},"H":{"ha":431,"x_min":14,"x_max":417,"o":"m 264 7 q 286 56 281 7 q 292 157 292 106 l 292 681 q 139 229 139 665 l 139 157 q 144 56 139 106 q 167 7 150 7 l 167 0 l 14 0 l 14 7 q 36 56 31 7 q 42 157 42 106 l 42 815 q 36 916 42 867 q 14 965 31 965 l 14 972 l 167 972 l 167 965 q 144 916 150 965 q 139 815 139 867 l 139 460 q 292 694 175 685 l 292 815 q 286 916 292 867 q 264 965 281 965 l 264 972 l 417 972 l 417 965 q 394 916 400 965 q 389 815 389 867 l 389 157 q 394 56 389 106 q 417 7 400 7 l 417 0 l 264 0 l 264 7 z "},"I":{"ha":181,"x_min":14,"x_max":167,"o":"m 14 7 q 36 56 31 7 q 42 157 42 106 l 42 815 q 36 916 42 867 q 14 965 31 965 l 14 972 l 167 972 l 167 965 q 144 916 150 965 q 139 815 139 867 l 139 157 q 144 56 139 106 q 167 7 150 7 l 167 0 l 14 0 l 14 7 z "},"Ĳ":{"ha":583,"x_min":14,"x_max":569,"o":"m 14 7 q 36 56 31 7 q 42 157 42 106 l 42 815 q 36 916 42 867 q 14 965 31 965 l 14 972 l 167 972 l 167 965 q 144 916 150 965 q 139 815 139 867 l 139 157 q 144 56 139 106 q 167 7 150 7 l 167 0 l 14 0 l 14 7 m 208 208 q 226 106 208 150 q 273 39 244 63 q 333 15 301 15 q 412 65 379 15 q 444 208 444 114 l 444 815 q 439 916 444 867 q 417 965 433 965 l 417 972 l 569 972 l 569 965 q 547 916 553 965 q 542 815 542 867 l 542 208 q 517 87 542 138 q 453 11 493 36 q 368 -14 414 -14 q 284 12 324 -14 q 219 88 244 38 q 194 208 194 138 l 208 208 z "},"Í":{"ha":181,"x_min":14,"x_max":167,"o":"m 14 7 q 36 56 31 7 q 42 157 42 106 l 42 815 q 36 916 42 867 q 14 965 31 965 l 14 972 l 167 972 l 167 965 q 144 916 150 965 q 139 815 139 867 l 139 157 q 144 56 139 106 q 167 7 150 7 l 167 0 l 14 0 l 14 7 m 74 1150 l 133 1122 l 75 1021 l 47 1021 l 74 1150 z "},"Î":{"ha":181,"x_min":14,"x_max":167,"o":"m 14 7 q 36 56 31 7 q 42 157 42 106 l 42 815 q 36 916 42 867 q 14 965 31 965 l 14 972 l 167 972 l 167 965 q 144 916 150 965 q 139 815 139 867 l 139 157 q 144 56 139 106 q 167 7 150 7 l 167 0 l 14 0 l 14 7 m 15 1047 l 76 1135 l 104 1135 l 165 1047 l 111 1017 l 90 1085 l 69 1017 l 15 1047 z "},"Ï":{"ha":181,"x_min":-8,"x_max":188,"o":"m 14 7 q 36 56 31 7 q 42 157 42 106 l 42 815 q 36 916 42 867 q 14 965 31 965 l 14 972 l 167 972 l 167 965 q 144 916 150 965 q 139 815 139 867 l 139 157 q 144 56 139 106 q 167 7 150 7 l 167 0 l 14 0 l 14 7 m 146 1046 q 115 1059 128 1046 q 101 1090 101 1072 q 115 1119 101 1107 q 146 1132 128 1132 q 175 1119 163 1132 q 188 1090 188 1107 q 175 1059 188 1072 q 146 1046 163 1046 m 35 1046 q 4 1059 17 1046 q -8 1090 -8 1072 q 4 1119 -8 1107 q 35 1132 17 1132 q 65 1119 51 1132 q 78 1090 78 1107 q 65 1059 78 1072 q 35 1046 51 1046 z "},"İ":{"ha":181,"x_min":14,"x_max":167,"o":"m 14 7 q 36 56 31 7 q 42 157 42 106 l 42 815 q 36 916 42 867 q 14 965 31 965 l 14 972 l 167 972 l 167 965 q 144 916 150 965 q 139 815 139 867 l 139 157 q 144 56 139 106 q 167 7 150 7 l 167 0 l 14 0 l 14 7 m 92 1046 q 60 1059 74 1046 q 47 1090 47 1072 q 60 1119 47 1107 q 92 1132 74 1132 q 121 1119 108 1132 q 133 1090 133 1107 q 121 1059 133 1072 q 92 1046 108 1046 z "},"Ì":{"ha":181,"x_min":14,"x_max":167,"o":"m 14 7 q 36 56 31 7 q 42 157 42 106 l 42 815 q 36 916 42 867 q 14 965 31 965 l 14 972 l 167 972 l 167 965 q 144 916 150 965 q 139 815 139 867 l 139 157 q 144 56 139 106 q 167 7 150 7 l 167 0 l 14 0 l 14 7 m 47 1122 l 107 1150 l 133 1021 l 106 1021 l 47 1122 z "},"Ī":{"ha":181,"x_min":-14,"x_max":194,"o":"m 14 7 q 36 56 31 7 q 42 157 42 106 l 42 815 q 36 916 42 867 q 14 965 31 965 l 14 972 l 167 972 l 167 965 q 144 916 150 965 q 139 815 139 867 l 139 157 q 144 56 139 106 q 167 7 150 7 l 167 0 l 14 0 l 14 7 m -14 1108 l 194 1108 l 194 1053 l -14 1053 l -14 1108 z "},"Į":{"ha":181,"x_min":14,"x_max":174,"o":"m 14 7 q 36 56 31 7 q 42 157 42 106 l 42 815 q 36 916 42 867 q 14 965 31 965 l 14 972 l 167 972 l 167 965 q 144 916 150 965 q 139 815 139 867 l 139 157 q 144 56 139 106 q 167 7 150 7 l 167 0 l 14 0 l 14 7 m 156 -156 q 94 -118 94 -156 q 156 0 94 -81 l 167 0 q 132 -78 132 -51 q 174 -110 132 -110 l 156 -156 z "},"Ĩ":{"ha":181,"x_min":-10,"x_max":189,"o":"m 14 7 q 36 56 31 7 q 42 157 42 106 l 42 815 q 36 916 42 867 q 14 965 31 965 l 14 972 l 167 972 l 167 965 q 144 916 150 965 q 139 815 139 867 l 139 157 q 144 56 139 106 q 167 7 150 7 l 167 0 l 14 0 l 14 7 m 146 1033 q 101 1042 119 1033 q 61 1064 83 1050 q 38 1078 50 1072 q 17 1083 26 1083 q -4 1072 7 1083 l -10 1076 l 32 1135 q 77 1127 58 1135 q 118 1104 96 1119 q 161 1085 144 1085 q 183 1096 172 1085 l 189 1090 l 146 1033 z "},"J":{"ha":403,"x_min":14,"x_max":389,"o":"m 28 208 q 46 106 28 150 q 92 39 64 63 q 153 15 121 15 q 231 65 199 15 q 264 208 264 114 l 264 815 q 258 916 264 867 q 236 965 253 965 l 236 972 l 389 972 l 389 965 q 367 916 372 965 q 361 815 361 867 l 361 208 q 337 87 361 138 q 273 11 313 36 q 188 -14 233 -14 q 103 12 143 -14 q 39 88 64 38 q 14 208 14 138 l 28 208 z "},"K":{"ha":508,"x_min":14,"x_max":494,"o":"m 440 0 q 389 19 407 0 q 371 75 371 39 q 349 370 368 283 q 288 479 331 457 q 139 501 244 501 l 139 157 q 144 56 139 106 q 167 7 150 7 l 167 0 l 14 0 l 14 7 q 36 56 31 7 q 42 157 42 106 l 42 815 q 36 916 42 867 q 14 965 31 965 l 14 972 l 167 972 l 167 965 q 144 916 150 965 q 139 815 139 867 l 139 521 q 298 546 236 522 q 398 638 360 569 q 449 840 436 707 q 445 926 450 888 q 425 965 440 965 l 425 972 l 494 972 l 494 965 q 467 890 475 965 q 431 681 460 760 q 347 562 403 601 q 199 513 292 522 q 346 483 293 510 q 428 382 399 457 q 465 157 457 307 l 465 131 l 467 103 q 493 7 472 7 l 493 0 l 440 0 z "},"Ķ":{"ha":508,"x_min":14,"x_max":494,"o":"m 440 0 q 389 19 407 0 q 371 75 371 39 q 349 370 368 283 q 288 479 331 457 q 139 501 244 501 l 139 157 q 144 56 139 106 q 167 7 150 7 l 167 0 l 14 0 l 14 7 q 36 56 31 7 q 42 157 42 106 l 42 815 q 36 916 42 867 q 14 965 31 965 l 14 972 l 167 972 l 167 965 q 144 916 150 965 q 139 815 139 867 l 139 521 q 298 546 236 522 q 398 638 360 569 q 449 840 436 707 q 445 926 450 888 q 425 965 440 965 l 425 972 l 494 972 l 494 965 q 467 890 475 965 q 431 681 460 760 q 347 562 403 601 q 199 513 292 522 q 346 483 293 510 q 428 382 399 457 q 465 157 457 307 l 465 131 l 467 103 q 493 7 472 7 l 493 0 l 440 0 m 238 -53 l 297 -81 l 239 -182 l 211 -182 l 238 -53 z "},"L":{"ha":410,"x_min":14,"x_max":396,"o":"m 14 7 q 36 56 31 7 q 42 157 42 106 l 42 815 q 36 916 42 867 q 14 965 31 965 l 14 972 l 167 972 l 167 965 q 144 916 150 965 q 139 815 139 867 l 139 14 q 282 42 228 17 q 363 127 336 68 q 389 290 389 186 l 396 290 l 396 0 l 14 0 l 14 7 z "},"Ĺ":{"ha":410,"x_min":14,"x_max":396,"o":"m 14 7 q 36 56 31 7 q 42 157 42 106 l 42 815 q 36 916 42 867 q 14 965 31 965 l 14 972 l 167 972 l 167 965 q 144 916 150 965 q 139 815 139 867 l 139 14 q 282 42 228 17 q 363 127 336 68 q 389 290 389 186 l 396 290 l 396 0 l 14 0 l 14 7 m 93 1150 l 153 1122 l 94 1021 l 67 1021 l 93 1150 z "},"Ľ":{"ha":410,"x_min":14,"x_max":454,"o":"m 14 7 q 36 56 31 7 q 42 157 42 106 l 42 815 q 36 916 42 867 q 14 965 31 965 l 14 972 l 167 972 l 167 965 q 144 916 150 965 q 139 815 139 867 l 139 14 q 282 42 228 17 q 363 127 336 68 q 389 290 389 186 l 396 290 l 396 0 l 14 0 l 14 7 m 394 715 l 454 688 l 396 586 l 368 586 l 394 715 z "},"Ļ":{"ha":410,"x_min":14,"x_max":396,"o":"m 14 7 q 36 56 31 7 q 42 157 42 106 l 42 815 q 36 916 42 867 q 14 965 31 965 l 14 972 l 167 972 l 167 965 q 144 916 150 965 q 139 815 139 867 l 139 14 q 282 42 228 17 q 363 127 336 68 q 389 290 389 186 l 396 290 l 396 0 l 14 0 l 14 7 m 189 -53 l 249 -81 l 190 -182 l 163 -182 l 189 -53 z "},"Ł":{"ha":410,"x_min":-26,"x_max":396,"o":"m 14 7 q 36 56 31 7 q 42 157 42 106 l 42 435 l 1 411 l -26 460 l 42 499 l 42 815 q 36 916 42 867 q 14 965 31 965 l 14 972 l 167 972 l 167 965 q 144 916 150 965 q 139 815 139 867 l 139 556 l 225 606 l 253 557 l 139 490 l 139 14 q 282 42 228 17 q 363 127 336 68 q 389 290 389 186 l 396 290 l 396 0 l 14 0 l 14 7 z "},"M":{"ha":792,"x_min":14,"x_max":778,"o":"m 310 0 q 292 190 310 104 q 248 339 274 275 q 178 496 222 403 q 97 677 126 597 q 56 856 68 757 l 56 157 q 61 56 56 106 q 83 7 67 7 l 83 0 l 14 0 l 14 7 q 36 56 31 7 q 42 157 42 106 l 42 972 l 149 972 q 166 792 149 874 q 208 648 183 710 q 278 494 233 586 q 360 309 331 389 q 403 129 390 229 q 421 597 404 425 q 491 869 438 769 q 653 972 544 968 l 750 972 l 750 157 q 756 56 750 106 q 778 7 761 7 l 778 0 l 625 0 l 625 7 q 647 56 642 7 q 653 157 653 106 l 653 958 q 501 856 551 954 q 433 561 450 758 q 417 0 417 364 l 310 0 z "},"N":{"ha":458,"x_min":14,"x_max":444,"o":"m 310 0 q 292 190 310 104 q 248 339 274 275 q 178 496 222 403 q 97 677 126 597 q 56 856 68 757 l 56 157 q 61 56 56 106 q 83 7 67 7 l 83 0 l 14 0 l 14 7 q 36 56 31 7 q 42 157 42 106 l 42 972 l 149 972 q 166 792 149 874 q 208 648 183 710 q 278 494 233 586 q 360 309 331 388 q 403 131 390 231 l 403 815 q 397 916 403 867 q 375 965 392 965 l 375 972 l 444 972 l 444 965 q 422 916 428 965 q 417 815 417 867 l 417 0 l 310 0 z "},"Ń":{"ha":458,"x_min":14,"x_max":444,"o":"m 310 0 q 292 190 310 104 q 248 339 274 275 q 178 496 222 403 q 97 677 126 597 q 56 856 68 757 l 56 157 q 61 56 56 106 q 83 7 67 7 l 83 0 l 14 0 l 14 7 q 36 56 31 7 q 42 157 42 106 l 42 972 l 149 972 q 166 792 149 874 q 208 648 183 710 q 278 494 233 586 q 360 309 331 388 q 403 131 390 231 l 403 815 q 397 916 403 867 q 375 965 392 965 l 375 972 l 444 972 l 444 965 q 422 916 428 965 q 417 815 417 867 l 417 0 l 310 0 m 242 1150 l 301 1122 l 243 1021 l 215 1021 l 242 1150 z "},"Ň":{"ha":458,"x_min":14,"x_max":444,"o":"m 310 0 q 292 190 310 104 q 248 339 274 275 q 178 496 222 403 q 97 677 126 597 q 56 856 68 757 l 56 157 q 61 56 56 106 q 83 7 67 7 l 83 0 l 14 0 l 14 7 q 36 56 31 7 q 42 157 42 106 l 42 972 l 149 972 q 166 792 149 874 q 208 648 183 710 q 278 494 233 586 q 360 309 331 388 q 403 131 390 231 l 403 815 q 397 916 403 867 q 375 965 392 965 l 375 972 l 444 972 l 444 965 q 422 916 428 965 q 417 815 417 867 l 417 0 l 310 0 m 183 1104 l 238 1135 l 258 1067 l 279 1135 l 333 1104 l 272 1017 l 244 1017 l 183 1104 z "},"Ņ":{"ha":458,"x_min":14,"x_max":444,"o":"m 310 0 q 292 190 310 104 q 248 339 274 275 q 178 496 222 403 q 97 677 126 597 q 56 856 68 757 l 56 157 q 61 56 56 106 q 83 7 67 7 l 83 0 l 14 0 l 14 7 q 36 56 31 7 q 42 157 42 106 l 42 972 l 149 972 q 166 792 149 874 q 208 648 183 710 q 278 494 233 586 q 360 309 331 388 q 403 131 390 231 l 403 815 q 397 916 403 867 q 375 965 392 965 l 375 972 l 444 972 l 444 965 q 422 916 428 965 q 417 815 417 867 l 417 0 l 310 0 m 213 -57 l 272 -85 l 214 -186 l 186 -186 l 213 -57 z "},"Ñ":{"ha":458,"x_min":14,"x_max":444,"o":"m 310 0 q 292 190 310 104 q 248 339 274 275 q 178 496 222 403 q 97 677 126 597 q 56 856 68 757 l 56 157 q 61 56 56 106 q 83 7 67 7 l 83 0 l 14 0 l 14 7 q 36 56 31 7 q 42 157 42 106 l 42 972 l 149 972 q 166 792 149 874 q 208 648 183 710 q 278 494 233 586 q 360 309 331 388 q 403 131 390 231 l 403 815 q 397 916 403 867 q 375 965 392 965 l 375 972 l 444 972 l 444 965 q 422 916 428 965 q 417 815 417 867 l 417 0 l 310 0 m 314 1033 q 269 1042 288 1033 q 229 1064 251 1050 q 206 1078 218 1072 q 185 1083 194 1083 q 164 1072 175 1083 l 158 1076 l 200 1135 q 245 1127 226 1135 q 286 1104 264 1119 q 329 1085 313 1085 q 351 1096 340 1085 l 357 1090 l 314 1033 z "},"O":{"ha":600,"x_min":14,"x_max":586,"o":"m 318 -11 q 440 168 399 36 q 482 486 482 300 q 458 729 482 618 q 392 906 433 840 q 300 971 350 971 q 224 928 260 971 q 164 810 189 885 q 132 624 132 710 q 172 440 132 519 q 278 294 213 360 q 338 212 313 260 q 364 119 364 164 q 342 25 364 61 q 283 -11 319 -11 q 104 103 164 -11 q 29 328 44 217 q 14 486 14 439 q 52 735 14 621 q 156 917 90 850 q 300 985 222 985 q 444 917 378 985 q 548 735 510 850 q 586 486 586 621 q 550 246 586 357 q 453 66 514 135 q 318 -12 392 -3 l 318 -11 m 118 482 q 140 251 118 361 q 199 72 161 140 q 283 3 238 3 q 332 35 314 3 q 350 119 350 67 q 325 206 350 160 q 267 285 300 253 q 178 380 215 335 q 118 482 142 425 z "},"Ó":{"ha":600,"x_min":14,"x_max":586,"o":"m 318 -11 q 440 168 399 36 q 482 486 482 300 q 458 729 482 618 q 392 906 433 840 q 300 971 350 971 q 224 928 260 971 q 164 810 189 885 q 132 624 132 710 q 172 440 132 519 q 278 294 213 360 q 338 212 313 260 q 364 119 364 164 q 342 25 364 61 q 283 -11 319 -11 q 104 103 164 -11 q 29 328 44 217 q 14 486 14 439 q 52 735 14 621 q 156 917 90 850 q 300 985 222 985 q 444 917 378 985 q 548 735 510 850 q 586 486 586 621 q 550 246 586 357 q 453 66 514 135 q 318 -12 392 -3 l 318 -11 m 118 482 q 140 251 118 361 q 199 72 161 140 q 283 3 238 3 q 332 35 314 3 q 350 119 350 67 q 325 206 350 160 q 267 285 300 253 q 178 380 215 335 q 118 482 142 425 m 283 1149 l 343 1121 l 285 1019 l 257 1019 l 283 1149 z "},"Ô":{"ha":600,"x_min":14,"x_max":586,"o":"m 318 -11 q 440 168 399 36 q 482 486 482 300 q 458 729 482 618 q 392 906 433 840 q 300 971 350 971 q 224 928 260 971 q 164 810 189 885 q 132 624 132 710 q 172 440 132 519 q 278 294 213 360 q 338 212 313 260 q 364 119 364 164 q 342 25 364 61 q 283 -11 319 -11 q 104 103 164 -11 q 29 328 44 217 q 14 486 14 439 q 52 735 14 621 q 156 917 90 850 q 300 985 222 985 q 444 917 378 985 q 548 735 510 850 q 586 486 586 621 q 550 246 586 357 q 453 66 514 135 q 318 -12 392 -3 l 318 -11 m 118 482 q 140 251 118 361 q 199 72 161 140 q 283 3 238 3 q 332 35 314 3 q 350 119 350 67 q 325 206 350 160 q 267 285 300 253 q 178 380 215 335 q 118 482 142 425 m 225 1046 l 286 1133 l 314 1133 l 375 1046 l 321 1015 l 300 1083 l 279 1015 l 225 1046 z "},"Ö":{"ha":600,"x_min":14,"x_max":586,"o":"m 318 -11 q 440 168 399 36 q 482 486 482 300 q 458 729 482 618 q 392 906 433 840 q 300 971 350 971 q 224 928 260 971 q 164 810 189 885 q 132 624 132 710 q 172 440 132 519 q 278 294 213 360 q 338 212 313 260 q 364 119 364 164 q 342 25 364 61 q 283 -11 319 -11 q 104 103 164 -11 q 29 328 44 217 q 14 486 14 439 q 52 735 14 621 q 156 917 90 850 q 300 985 222 985 q 444 917 378 985 q 548 735 510 850 q 586 486 586 621 q 550 246 586 357 q 453 66 514 135 q 318 -12 392 -3 l 318 -11 m 118 482 q 140 251 118 361 q 199 72 161 140 q 283 3 238 3 q 332 35 314 3 q 350 119 350 67 q 325 206 350 160 q 267 285 300 253 q 178 380 215 335 q 118 482 142 425 m 356 1044 q 324 1058 338 1044 q 311 1089 311 1071 q 324 1118 311 1106 q 356 1131 338 1131 q 385 1118 372 1131 q 397 1089 397 1106 q 385 1058 397 1071 q 356 1044 372 1044 m 244 1044 q 214 1058 226 1044 q 201 1089 201 1071 q 214 1118 201 1106 q 244 1131 226 1131 q 274 1118 261 1131 q 288 1089 288 1106 q 274 1058 288 1071 q 244 1044 261 1044 z "},"Ò":{"ha":600,"x_min":14,"x_max":586,"o":"m 318 -11 q 440 168 399 36 q 482 486 482 300 q 458 729 482 618 q 392 906 433 840 q 300 971 350 971 q 224 928 260 971 q 164 810 189 885 q 132 624 132 710 q 172 440 132 519 q 278 294 213 360 q 338 212 313 260 q 364 119 364 164 q 342 25 364 61 q 283 -11 319 -11 q 104 103 164 -11 q 29 328 44 217 q 14 486 14 439 q 52 735 14 621 q 156 917 90 850 q 300 985 222 985 q 444 917 378 985 q 548 735 510 850 q 586 486 586 621 q 550 246 586 357 q 453 66 514 135 q 318 -12 392 -3 l 318 -11 m 118 482 q 140 251 118 361 q 199 72 161 140 q 283 3 238 3 q 332 35 314 3 q 350 119 350 67 q 325 206 350 160 q 267 285 300 253 q 178 380 215 335 q 118 482 142 425 m 257 1121 l 317 1149 l 343 1019 l 315 1019 l 257 1121 z "},"Ő":{"ha":600,"x_min":14,"x_max":586,"o":"m 318 -11 q 440 168 399 36 q 482 486 482 300 q 458 729 482 618 q 392 906 433 840 q 300 971 350 971 q 224 928 260 971 q 164 810 189 885 q 132 624 132 710 q 172 440 132 519 q 278 294 213 360 q 338 212 313 260 q 364 119 364 164 q 342 25 364 61 q 283 -11 319 -11 q 104 103 164 -11 q 29 328 44 217 q 14 486 14 439 q 52 735 14 621 q 156 917 90 850 q 300 985 222 985 q 444 917 378 985 q 548 735 510 850 q 586 486 586 621 q 550 246 586 357 q 453 66 514 135 q 318 -12 392 -3 l 318 -11 m 118 482 q 140 251 118 361 q 199 72 161 140 q 283 3 238 3 q 332 35 314 3 q 350 119 350 67 q 325 206 350 160 q 267 285 300 253 q 178 380 215 335 q 118 482 142 425 m 322 1153 l 382 1125 l 324 1024 l 296 1024 l 322 1153 m 244 1153 l 304 1125 l 246 1024 l 218 1024 l 244 1153 z "},"Ō":{"ha":600,"x_min":14,"x_max":586,"o":"m 318 -11 q 440 168 399 36 q 482 486 482 300 q 458 729 482 618 q 392 906 433 840 q 300 971 350 971 q 224 928 260 971 q 164 810 189 885 q 132 624 132 710 q 172 440 132 519 q 278 294 213 360 q 338 212 313 260 q 364 119 364 164 q 342 25 364 61 q 283 -11 319 -11 q 104 103 164 -11 q 29 328 44 217 q 14 486 14 439 q 52 735 14 621 q 156 917 90 850 q 300 985 222 985 q 444 917 378 985 q 548 735 510 850 q 586 486 586 621 q 550 246 586 357 q 453 66 514 135 q 318 -12 392 -3 l 318 -11 m 118 482 q 140 251 118 361 q 199 72 161 140 q 283 3 238 3 q 332 35 314 3 q 350 119 350 67 q 325 206 350 160 q 267 285 300 253 q 178 380 215 335 q 118 482 142 425 m 196 1107 l 404 1107 l 404 1051 l 196 1051 l 196 1107 z "},"Ø":{"ha":600,"x_min":14,"x_max":586,"o":"m 90 129 q 28 333 43 224 q 14 486 14 442 q 52 735 14 621 q 156 917 90 850 q 300 985 222 985 q 389 960 346 985 q 468 890 432 936 l 519 994 l 578 994 l 501 840 q 564 680 542 771 q 586 486 586 589 q 550 246 586 357 q 453 66 514 135 q 318 -12 392 -3 l 318 -11 q 440 168 399 36 q 482 486 482 300 q 454 744 482 629 l 247 328 l 278 294 q 338 212 313 260 q 364 119 364 164 q 342 25 364 61 q 283 -11 319 -11 q 122 76 186 -11 l 74 -22 l 15 -22 l 90 129 m 118 482 q 143 236 118 358 l 201 353 q 118 482 147 417 m 164 158 q 217 44 186 86 q 283 3 249 3 q 332 35 314 3 q 350 119 350 67 q 325 206 350 160 q 267 285 300 253 l 239 313 l 164 158 m 164 810 q 132 624 132 710 q 211 372 132 485 l 432 819 q 373 931 407 890 q 300 971 339 971 q 224 928 260 971 q 164 810 189 885 z "},"Õ":{"ha":600,"x_min":14,"x_max":586,"o":"m 318 -11 q 440 168 399 36 q 482 486 482 300 q 458 729 482 618 q 392 906 433 840 q 300 971 350 971 q 224 928 260 971 q 164 810 189 885 q 132 624 132 710 q 172 440 132 519 q 278 294 213 360 q 338 212 313 260 q 364 119 364 164 q 342 25 364 61 q 283 -11 319 -11 q 104 103 164 -11 q 29 328 44 217 q 14 486 14 439 q 52 735 14 621 q 156 917 90 850 q 300 985 222 985 q 444 917 378 985 q 548 735 510 850 q 586 486 586 621 q 550 246 586 357 q 453 66 514 135 q 318 -12 392 -3 l 318 -11 m 118 482 q 140 251 118 361 q 199 72 161 140 q 283 3 238 3 q 332 35 314 3 q 350 119 350 67 q 325 206 350 160 q 267 285 300 253 q 178 380 215 335 q 118 482 142 425 m 356 1032 q 311 1040 329 1032 q 271 1063 293 1049 q 248 1076 260 1071 q 226 1082 236 1082 q 206 1071 217 1082 l 200 1075 l 242 1133 q 287 1126 268 1133 q 328 1103 306 1118 q 371 1083 354 1083 q 393 1094 382 1083 l 399 1089 l 356 1032 z "},"Œ":{"ha":857,"x_min":14,"x_max":843,"o":"m 318 -11 q 440 168 399 36 q 482 486 482 300 q 458 729 482 618 q 392 906 433 840 q 300 971 350 971 q 224 928 260 971 q 164 810 189 885 q 132 624 132 710 q 172 440 132 519 q 278 294 213 360 q 338 212 313 260 q 364 119 364 164 q 342 25 364 61 q 283 -11 319 -11 q 104 103 164 -11 q 29 328 44 217 q 14 486 14 439 q 52 735 14 621 q 156 917 90 850 q 300 985 222 985 q 401 953 353 985 q 488 863 449 921 q 480 935 486 904 q 461 965 474 965 l 461 972 l 843 972 l 843 682 l 836 682 q 810 845 836 786 q 729 930 783 904 q 586 958 675 956 l 586 694 l 635 658 q 668 642 647 649 q 707 635 689 635 q 753 685 753 635 l 757 685 l 757 311 l 753 311 q 729 462 753 390 q 675 583 706 533 q 624 649 644 632 l 586 678 l 586 14 q 729 42 675 17 q 810 127 783 68 q 836 290 836 186 l 843 290 l 843 0 l 461 0 l 461 7 q 488 113 485 7 q 318 -12 415 0 l 318 -11 m 118 482 q 140 251 118 361 q 199 72 161 140 q 283 3 238 3 q 332 35 314 3 q 350 119 350 67 q 325 206 350 160 q 267 285 300 253 q 178 380 215 335 q 118 482 142 425 m 564 679 l 582 679 l 561 692 l 564 679 z "},"P":{"ha":478,"x_min":14,"x_max":464,"o":"m 292 278 q 194 340 232 278 q 139 519 156 403 l 139 157 q 144 56 139 106 q 167 7 150 7 l 167 0 l 14 0 l 14 7 q 36 56 31 7 q 42 157 42 106 l 42 815 q 36 916 42 867 q 14 965 31 965 l 14 972 l 139 972 q 303 930 229 972 q 420 800 376 888 q 464 583 464 713 q 428 365 464 451 q 292 278 393 278 m 139 743 q 178 406 139 521 q 290 292 217 292 q 351 373 335 292 q 367 583 367 454 q 313 871 367 783 q 139 958 260 958 l 139 743 z "},"Þ":{"ha":478,"x_min":14,"x_max":464,"o":"m 292 111 q 194 174 232 111 q 139 353 156 236 l 139 157 q 144 56 139 106 q 167 7 150 7 l 167 0 l 14 0 l 14 7 q 36 56 31 7 q 42 157 42 106 l 42 815 q 36 916 42 867 q 14 965 31 965 l 14 972 l 167 972 l 167 965 q 144 916 150 965 q 139 815 139 867 l 139 806 q 303 763 229 806 q 420 633 376 721 q 464 417 464 546 q 428 198 464 285 q 292 111 393 111 m 139 576 q 178 240 139 354 q 290 125 217 125 q 351 206 335 125 q 367 417 367 288 q 313 704 367 617 q 139 792 260 792 l 139 576 z "},"Q":{"ha":600,"x_min":14,"x_max":586,"o":"m 79 -172 q 337 1 260 -67 q 448 175 414 68 q 482 486 482 282 q 458 729 482 618 q 392 906 433 840 q 300 971 350 971 q 224 928 260 971 q 164 810 189 885 q 132 624 132 710 q 172 440 132 519 q 278 294 213 360 q 338 212 313 260 q 364 119 364 164 q 342 25 364 61 q 283 -11 319 -11 q 104 103 164 -11 q 29 328 44 217 q 14 486 14 439 q 52 735 14 621 q 156 917 90 850 q 300 985 222 985 q 444 917 378 985 q 548 735 510 850 q 586 486 586 621 q 540 185 586 299 q 398 -3 493 71 q 129 -153 303 -76 q 325 -112 226 -112 q 533 -172 443 -112 l 525 -274 q 326 -214 442 -214 q 79 -274 207 -214 l 79 -172 m 283 3 q 332 35 314 3 q 350 119 350 67 q 325 206 350 160 q 267 285 300 253 q 178 380 215 335 q 118 482 142 425 q 140 251 118 361 q 199 72 161 140 q 283 3 238 3 z "},"R":{"ha":478,"x_min":14,"x_max":464,"o":"m 292 351 q 229 371 257 351 q 410 247 288 296 l 410 157 q 415 56 410 106 q 438 7 421 7 l 438 0 l 382 0 q 331 18 349 0 q 313 69 313 36 l 313 243 q 216 306 249 269 q 169 395 183 342 q 140 551 154 449 l 139 561 l 139 157 q 144 56 139 106 q 167 7 150 7 l 167 0 l 14 0 l 14 7 q 36 56 31 7 q 42 157 42 106 l 42 815 q 36 916 42 867 q 14 965 31 965 l 14 972 l 139 972 q 303 935 229 972 q 420 819 376 897 q 464 625 464 740 q 428 429 464 507 q 292 351 393 351 m 139 767 q 178 467 139 569 q 290 365 217 365 q 351 438 335 365 q 367 625 367 510 q 313 882 367 804 q 139 960 260 960 l 139 767 z "},"Ŕ":{"ha":478,"x_min":14,"x_max":464,"o":"m 292 351 q 229 371 257 351 q 410 247 288 296 l 410 157 q 415 56 410 106 q 438 7 421 7 l 438 0 l 382 0 q 331 18 349 0 q 313 69 313 36 l 313 243 q 216 306 249 269 q 169 395 183 342 q 140 551 154 449 l 139 561 l 139 157 q 144 56 139 106 q 167 7 150 7 l 167 0 l 14 0 l 14 7 q 36 56 31 7 q 42 157 42 106 l 42 815 q 36 916 42 867 q 14 965 31 965 l 14 972 l 139 972 q 303 935 229 972 q 420 819 376 897 q 464 625 464 740 q 428 429 464 507 q 292 351 393 351 m 139 767 q 178 467 139 569 q 290 365 217 365 q 351 438 335 365 q 367 625 367 510 q 313 882 367 804 q 139 960 260 960 l 139 767 m 222 1150 l 282 1122 l 224 1021 l 196 1021 l 222 1150 z "},"Ř":{"ha":478,"x_min":14,"x_max":464,"o":"m 292 351 q 229 371 257 351 q 410 247 288 296 l 410 157 q 415 56 410 106 q 438 7 421 7 l 438 0 l 382 0 q 331 18 349 0 q 313 69 313 36 l 313 243 q 216 306 249 269 q 169 395 183 342 q 140 551 154 449 l 139 561 l 139 157 q 144 56 139 106 q 167 7 150 7 l 167 0 l 14 0 l 14 7 q 36 56 31 7 q 42 157 42 106 l 42 815 q 36 916 42 867 q 14 965 31 965 l 14 972 l 139 972 q 303 935 229 972 q 420 819 376 897 q 464 625 464 740 q 428 429 464 507 q 292 351 393 351 m 139 767 q 178 467 139 569 q 290 365 217 365 q 351 438 335 365 q 367 625 367 510 q 313 882 367 804 q 139 960 260 960 l 139 767 m 164 1104 l 218 1135 l 239 1067 l 260 1135 l 314 1104 l 253 1017 l 225 1017 l 164 1104 z "},"Ŗ":{"ha":478,"x_min":14,"x_max":464,"o":"m 292 351 q 229 371 257 351 q 410 247 288 296 l 410 157 q 415 56 410 106 q 438 7 421 7 l 438 0 l 382 0 q 331 18 349 0 q 313 69 313 36 l 313 243 q 216 306 249 269 q 169 395 183 342 q 140 551 154 449 l 139 561 l 139 157 q 144 56 139 106 q 167 7 150 7 l 167 0 l 14 0 l 14 7 q 36 56 31 7 q 42 157 42 106 l 42 815 q 36 916 42 867 q 14 965 31 965 l 14 972 l 139 972 q 303 935 229 972 q 420 819 376 897 q 464 625 464 740 q 428 429 464 507 q 292 351 393 351 m 139 767 q 178 467 139 569 q 290 365 217 365 q 351 438 335 365 q 367 625 367 510 q 313 882 367 804 q 139 960 260 960 l 139 767 m 222 -60 l 282 -87 l 224 -189 l 196 -189 l 222 -60 z "},"S":{"ha":532,"x_min":14,"x_max":518,"o":"m 272 -12 q 144 23 203 -12 q 49 121 85 58 q 14 263 14 183 l 108 263 q 154 74 108 147 q 272 1 200 1 q 383 71 349 1 q 418 240 418 140 q 393 339 418 294 q 332 416 368 383 q 233 496 296 449 q 136 574 172 542 q 75 650 100 607 q 50 747 50 693 q 111 920 50 856 q 272 985 172 985 q 393 951 338 985 q 464 925 433 925 q 500 972 500 925 l 504 972 l 504 599 l 500 599 q 474 756 500 682 q 413 886 449 831 q 272 971 351 971 q 167 918 206 971 q 128 796 128 865 q 170 690 128 736 q 299 578 213 643 q 413 484 368 525 q 488 388 457 443 q 518 267 518 333 q 489 126 518 189 q 404 25 460 63 q 272 -12 349 -12 z "},"Ś":{"ha":532,"x_min":14,"x_max":518,"o":"m 272 -12 q 144 23 203 -12 q 49 121 85 58 q 14 263 14 183 l 108 263 q 154 74 108 147 q 272 1 200 1 q 383 71 349 1 q 418 240 418 140 q 393 339 418 294 q 332 416 368 383 q 233 496 296 449 q 136 574 172 542 q 75 650 100 607 q 50 747 50 693 q 111 920 50 856 q 272 985 172 985 q 393 951 338 985 q 464 925 433 925 q 500 972 500 925 l 504 972 l 504 599 l 500 599 q 474 756 500 682 q 413 886 449 831 q 272 971 351 971 q 167 918 206 971 q 128 796 128 865 q 170 690 128 736 q 299 578 213 643 q 413 484 368 525 q 488 388 457 443 q 518 267 518 333 q 489 126 518 189 q 404 25 460 63 q 272 -12 349 -12 m 256 1149 l 315 1121 l 257 1019 l 229 1019 l 256 1149 z "},"Š":{"ha":532,"x_min":14,"x_max":518,"o":"m 272 -12 q 144 23 203 -12 q 49 121 85 58 q 14 263 14 183 l 108 263 q 154 74 108 147 q 272 1 200 1 q 383 71 349 1 q 418 240 418 140 q 393 339 418 294 q 332 416 368 383 q 233 496 296 449 q 136 574 172 542 q 75 650 100 607 q 50 747 50 693 q 111 920 50 856 q 272 985 172 985 q 393 951 338 985 q 464 925 433 925 q 500 972 500 925 l 504 972 l 504 599 l 500 599 q 474 756 500 682 q 413 886 449 831 q 272 971 351 971 q 167 918 206 971 q 128 796 128 865 q 170 690 128 736 q 299 578 213 643 q 413 484 368 525 q 488 388 457 443 q 518 267 518 333 q 489 126 518 189 q 404 25 460 63 q 272 -12 349 -12 m 197 1103 l 251 1133 l 272 1065 l 293 1133 l 347 1103 l 286 1015 l 258 1015 l 197 1103 z "},"Ş":{"ha":532,"x_min":14,"x_max":518,"o":"m 500 599 q 474 756 500 682 q 413 886 449 831 q 272 971 351 971 q 167 918 206 971 q 128 796 128 865 q 170 690 128 736 q 299 578 213 643 q 413 484 368 525 q 488 388 457 443 q 518 267 518 333 q 456 71 518 150 q 282 -12 393 -8 l 272 -49 q 312 -66 297 -51 q 326 -101 326 -81 q 305 -144 326 -125 q 244 -162 283 -162 l 244 -158 q 278 -144 265 -158 q 292 -112 292 -129 q 283 -91 292 -100 q 258 -82 274 -82 l 246 -82 l 265 -12 q 140 25 197 -11 q 48 123 82 61 q 14 263 14 185 l 108 263 q 154 74 108 147 q 272 1 200 1 q 383 71 349 1 q 418 240 418 140 q 393 339 418 294 q 332 416 368 383 q 233 496 296 449 q 136 574 172 542 q 75 650 100 607 q 50 747 50 693 q 111 920 50 856 q 272 985 172 985 q 393 951 338 985 q 464 925 433 925 q 500 972 500 925 l 504 972 l 504 599 l 500 599 z "},"Ș":{"ha":532,"x_min":14,"x_max":518,"o":"m 272 -12 q 144 23 203 -12 q 49 121 85 58 q 14 263 14 183 l 108 263 q 154 74 108 147 q 272 1 200 1 q 383 71 349 1 q 418 240 418 140 q 393 339 418 294 q 332 416 368 383 q 233 496 296 449 q 136 574 172 542 q 75 650 100 607 q 50 747 50 693 q 111 920 50 856 q 272 985 172 985 q 393 951 338 985 q 464 925 433 925 q 500 972 500 925 l 504 972 l 504 599 l 500 599 q 474 756 500 682 q 413 886 449 831 q 272 971 351 971 q 167 918 206 971 q 128 796 128 865 q 170 690 128 736 q 299 578 213 643 q 413 484 368 525 q 488 388 457 443 q 518 267 518 333 q 489 126 518 189 q 404 25 460 63 q 272 -12 349 -12 m 269 -75 l 329 -103 l 271 -204 l 243 -204 l 269 -75 z "},"ẞ":{"ha":488,"x_min":14,"x_max":474,"o":"m 206 0 q 283 38 244 4 q 348 133 322 71 q 374 283 374 196 q 351 531 374 450 q 289 635 329 611 q 176 658 249 658 l 176 672 l 375 875 l 139 875 l 139 0 l 14 0 l 14 7 q 36 56 31 7 q 42 157 42 106 l 42 815 q 36 916 42 867 q 14 965 31 965 l 14 972 l 424 972 l 424 910 l 193 672 q 393 595 313 668 q 474 319 474 522 q 432 135 474 210 q 329 25 390 61 q 206 -14 268 -11 l 206 0 z "},"T":{"ha":486,"x_min":14,"x_max":472,"o":"m 167 7 q 189 56 183 7 q 194 157 194 106 l 194 957 q 63 876 104 940 q 21 682 21 811 l 14 682 l 14 972 l 472 972 l 472 682 l 465 682 q 424 876 465 811 q 292 957 382 940 l 292 157 q 297 56 292 106 q 319 7 303 7 l 319 0 l 167 0 l 167 7 z "},"Ť":{"ha":486,"x_min":14,"x_max":472,"o":"m 167 7 q 189 56 183 7 q 194 157 194 106 l 194 957 q 63 876 104 940 q 21 682 21 811 l 14 682 l 14 972 l 472 972 l 472 682 l 465 682 q 424 876 465 811 q 292 957 382 940 l 292 157 q 297 56 292 106 q 319 7 303 7 l 319 0 l 167 0 l 167 7 m 168 1104 l 222 1135 l 243 1067 l 264 1135 l 318 1104 l 257 1017 l 229 1017 l 168 1104 z "},"Ţ":{"ha":486,"x_min":14,"x_max":472,"o":"m 167 7 q 189 56 183 7 q 194 157 194 106 l 194 957 q 63 876 104 940 q 21 682 21 811 l 14 682 l 14 972 l 472 972 l 472 682 l 465 682 q 424 876 465 811 q 292 957 382 940 l 292 157 q 297 56 292 106 q 319 7 303 7 l 319 0 l 257 0 l 249 -31 q 288 -48 274 -33 q 303 -83 303 -62 q 281 -126 303 -107 q 221 -144 260 -144 l 221 -140 q 255 -126 242 -140 q 268 -94 268 -111 q 259 -73 268 -82 q 235 -64 250 -64 l 222 -64 l 240 0 l 167 0 l 167 7 z "},"Ț":{"ha":486,"x_min":14,"x_max":472,"o":"m 167 7 q 189 56 183 7 q 194 157 194 106 l 194 957 q 63 876 104 940 q 21 682 21 811 l 14 682 l 14 972 l 472 972 l 472 682 l 465 682 q 424 876 465 811 q 292 957 382 940 l 292 157 q 297 56 292 106 q 319 7 303 7 l 319 0 l 167 0 l 167 7 m 246 -57 l 306 -85 l 247 -186 l 219 -186 l 246 -57 z "},"U":{"ha":431,"x_min":14,"x_max":417,"o":"m 139 208 q 172 65 139 114 q 250 15 204 15 q 310 39 282 15 q 357 106 339 63 q 375 208 375 150 l 375 815 q 369 916 375 867 q 347 965 364 965 l 347 972 l 417 972 l 417 965 q 394 916 400 965 q 389 815 389 867 l 389 208 q 365 87 389 138 q 301 11 340 36 q 215 -14 261 -14 q 131 12 171 -14 q 67 88 92 38 q 42 208 42 138 l 42 815 q 36 916 42 867 q 14 965 31 965 l 14 972 l 167 972 l 167 965 q 144 916 150 965 q 139 815 139 867 l 139 208 z "},"Ú":{"ha":431,"x_min":14,"x_max":417,"o":"m 139 208 q 172 65 139 114 q 250 15 204 15 q 310 39 282 15 q 357 106 339 63 q 375 208 375 150 l 375 815 q 369 916 375 867 q 347 965 364 965 l 347 972 l 417 972 l 417 965 q 394 916 400 965 q 389 815 389 867 l 389 208 q 365 87 389 138 q 301 11 340 36 q 215 -14 261 -14 q 131 12 171 -14 q 67 88 92 38 q 42 208 42 138 l 42 815 q 36 916 42 867 q 14 965 31 965 l 14 972 l 167 972 l 167 965 q 144 916 150 965 q 139 815 139 867 l 139 208 m 232 1150 l 292 1122 l 233 1021 l 206 1021 l 232 1150 z "},"Û":{"ha":431,"x_min":14,"x_max":417,"o":"m 139 208 q 172 65 139 114 q 250 15 204 15 q 310 39 282 15 q 357 106 339 63 q 375 208 375 150 l 375 815 q 369 916 375 867 q 347 965 364 965 l 347 972 l 417 972 l 417 965 q 394 916 400 965 q 389 815 389 867 l 389 208 q 365 87 389 138 q 301 11 340 36 q 215 -14 261 -14 q 131 12 171 -14 q 67 88 92 38 q 42 208 42 138 l 42 815 q 36 916 42 867 q 14 965 31 965 l 14 972 l 167 972 l 167 965 q 144 916 150 965 q 139 815 139 867 l 139 208 m 174 1047 l 235 1135 l 263 1135 l 324 1047 l 269 1017 l 249 1085 l 228 1017 l 174 1047 z "},"Ü":{"ha":431,"x_min":14,"x_max":417,"o":"m 139 208 q 172 65 139 114 q 250 15 204 15 q 310 39 282 15 q 357 106 339 63 q 375 208 375 150 l 375 815 q 369 916 375 867 q 347 965 364 965 l 347 972 l 417 972 l 417 965 q 394 916 400 965 q 389 815 389 867 l 389 208 q 365 87 389 138 q 301 11 340 36 q 215 -14 261 -14 q 131 12 171 -14 q 67 88 92 38 q 42 208 42 138 l 42 815 q 36 916 42 867 q 14 965 31 965 l 14 972 l 167 972 l 167 965 q 144 916 150 965 q 139 815 139 867 l 139 208 m 304 1046 q 273 1059 286 1046 q 260 1090 260 1072 q 273 1119 260 1107 q 304 1132 286 1132 q 333 1119 321 1132 q 346 1090 346 1107 q 333 1059 346 1072 q 304 1046 321 1046 m 193 1046 q 163 1059 175 1046 q 150 1090 150 1072 q 163 1119 150 1107 q 193 1132 175 1132 q 223 1119 210 1132 q 236 1090 236 1107 q 223 1059 236 1072 q 193 1046 210 1046 z "},"Ù":{"ha":431,"x_min":14,"x_max":417,"o":"m 139 208 q 172 65 139 114 q 250 15 204 15 q 310 39 282 15 q 357 106 339 63 q 375 208 375 150 l 375 815 q 369 916 375 867 q 347 965 364 965 l 347 972 l 417 972 l 417 965 q 394 916 400 965 q 389 815 389 867 l 389 208 q 365 87 389 138 q 301 11 340 36 q 215 -14 261 -14 q 131 12 171 -14 q 67 88 92 38 q 42 208 42 138 l 42 815 q 36 916 42 867 q 14 965 31 965 l 14 972 l 167 972 l 167 965 q 144 916 150 965 q 139 815 139 867 l 139 208 m 206 1122 l 265 1150 l 292 1021 l 264 1021 l 206 1122 z "},"Ű":{"ha":431,"x_min":14,"x_max":417,"o":"m 139 208 q 172 65 139 114 q 250 15 204 15 q 310 39 282 15 q 357 106 339 63 q 375 208 375 150 l 375 815 q 369 916 375 867 q 347 965 364 965 l 347 972 l 417 972 l 417 965 q 394 916 400 965 q 389 815 389 867 l 389 208 q 365 87 389 138 q 301 11 340 36 q 215 -14 261 -14 q 131 12 171 -14 q 67 88 92 38 q 42 208 42 138 l 42 815 q 36 916 42 867 q 14 965 31 965 l 14 972 l 167 972 l 167 965 q 144 916 150 965 q 139 815 139 867 l 139 208 m 271 1154 l 331 1126 l 272 1025 l 244 1025 l 271 1154 m 193 1154 l 253 1126 l 194 1025 l 167 1025 l 193 1154 z "},"Ū":{"ha":431,"x_min":14,"x_max":417,"o":"m 139 208 q 172 65 139 114 q 250 15 204 15 q 310 39 282 15 q 357 106 339 63 q 375 208 375 150 l 375 815 q 369 916 375 867 q 347 965 364 965 l 347 972 l 417 972 l 417 965 q 394 916 400 965 q 389 815 389 867 l 389 208 q 365 87 389 138 q 301 11 340 36 q 215 -14 261 -14 q 131 12 171 -14 q 67 88 92 38 q 42 208 42 138 l 42 815 q 36 916 42 867 q 14 965 31 965 l 14 972 l 167 972 l 167 965 q 144 916 150 965 q 139 815 139 867 l 139 208 m 144 1108 l 353 1108 l 353 1053 l 144 1053 l 144 1108 z "},"Ų":{"ha":431,"x_min":14,"x_max":417,"o":"m 139 208 q 172 65 139 114 q 250 15 204 15 q 310 39 282 15 q 357 106 339 63 q 375 208 375 150 l 375 815 q 369 916 375 867 q 347 965 364 965 l 347 972 l 417 972 l 417 965 q 394 916 400 965 q 389 815 389 867 l 389 208 q 366 90 389 139 q 304 14 343 40 q 269 -64 269 -37 q 311 -96 269 -96 l 293 -142 q 232 -104 232 -142 q 283 1 232 -72 q 215 -15 250 -15 q 131 10 171 -15 q 67 87 92 36 q 42 208 42 138 l 42 815 q 36 916 42 867 q 14 965 31 965 l 14 972 l 167 972 l 167 965 q 144 916 150 965 q 139 815 139 867 l 139 208 z "},"Ů":{"ha":431,"x_min":14,"x_max":417,"o":"m 139 208 q 172 65 139 114 q 250 15 204 15 q 310 39 282 15 q 357 106 339 63 q 375 208 375 150 l 375 815 q 369 916 375 867 q 347 965 364 965 l 347 972 l 417 972 l 417 965 q 394 916 400 965 q 389 815 389 867 l 389 208 q 365 87 389 138 q 301 11 340 36 q 215 -14 261 -14 q 131 12 171 -14 q 67 88 92 38 q 42 208 42 138 l 42 815 q 36 916 42 867 q 14 965 31 965 l 14 972 l 167 972 l 167 965 q 144 916 150 965 q 139 815 139 867 l 139 208 m 247 1017 q 202 1035 221 1017 q 183 1081 183 1054 q 202 1126 183 1107 q 247 1146 221 1146 q 294 1127 275 1146 q 313 1081 313 1108 q 293 1035 313 1054 q 247 1017 274 1017 m 247 1043 q 275 1054 264 1043 q 286 1081 286 1065 q 275 1108 286 1097 q 247 1119 264 1119 q 221 1108 232 1119 q 210 1081 210 1097 q 221 1054 210 1065 q 247 1043 232 1043 z "},"Ũ":{"ha":431,"x_min":14,"x_max":417,"o":"m 139 208 q 172 65 139 114 q 250 15 204 15 q 310 39 282 15 q 357 106 339 63 q 375 208 375 150 l 375 815 q 369 916 375 867 q 347 965 364 965 l 347 972 l 417 972 l 417 965 q 394 916 400 965 q 389 815 389 867 l 389 208 q 365 87 389 138 q 301 11 340 36 q 215 -14 261 -14 q 131 12 171 -14 q 67 88 92 38 q 42 208 42 138 l 42 815 q 36 916 42 867 q 14 965 31 965 l 14 972 l 167 972 l 167 965 q 144 916 150 965 q 139 815 139 867 l 139 208 m 304 1033 q 260 1042 278 1033 q 219 1064 242 1050 q 197 1078 208 1072 q 175 1083 185 1083 q 154 1072 165 1083 l 149 1076 l 190 1135 q 235 1127 217 1135 q 276 1104 254 1119 q 319 1085 303 1085 q 342 1096 331 1085 l 347 1090 l 304 1033 z "},"V":{"ha":508,"x_min":14,"x_max":494,"o":"m 42 815 q 36 916 42 867 q 14 965 31 965 l 14 972 l 167 972 l 167 965 q 144 916 150 965 q 139 815 139 867 l 139 14 q 291 104 242 18 q 355 351 340 190 q 369 815 369 513 q 364 916 369 867 q 342 965 358 965 l 342 972 l 494 972 l 494 965 q 473 923 478 965 q 465 815 468 881 q 376 217 454 428 q 139 0 299 7 l 42 0 l 42 815 z "},"W":{"ha":838,"x_min":14,"x_max":824,"o":"m 42 815 q 36 916 42 867 q 14 965 31 965 l 14 972 l 167 972 l 167 965 q 144 916 150 965 q 139 815 139 867 l 139 14 q 292 106 243 18 q 356 357 342 193 q 371 831 369 521 q 364 926 369 888 q 343 965 358 965 l 343 972 l 496 972 l 496 965 q 474 916 479 965 q 468 815 468 867 l 468 14 q 620 104 571 18 q 684 351 669 190 q 699 815 699 513 q 693 916 699 867 q 671 965 688 965 l 671 972 l 824 972 l 824 965 q 802 923 807 965 q 794 815 797 881 q 706 217 783 428 q 468 0 628 7 l 371 0 l 371 203 q 139 0 290 6 l 42 0 l 42 815 z "},"Ẃ":{"ha":838,"x_min":14,"x_max":824,"o":"m 42 815 q 36 916 42 867 q 14 965 31 965 l 14 972 l 167 972 l 167 965 q 144 916 150 965 q 139 815 139 867 l 139 14 q 292 106 243 18 q 356 357 342 193 q 371 831 369 521 q 364 926 369 888 q 343 965 358 965 l 343 972 l 496 972 l 496 965 q 474 916 479 965 q 468 815 468 867 l 468 14 q 620 104 571 18 q 684 351 669 190 q 699 815 699 513 q 693 916 699 867 q 671 965 688 965 l 671 972 l 824 972 l 824 965 q 802 923 807 965 q 794 815 797 881 q 706 217 783 428 q 468 0 628 7 l 371 0 l 371 203 q 139 0 290 6 l 42 0 l 42 815 m 403 1150 l 463 1122 l 404 1021 l 376 1021 l 403 1150 z "},"Ŵ":{"ha":838,"x_min":14,"x_max":824,"o":"m 42 815 q 36 916 42 867 q 14 965 31 965 l 14 972 l 167 972 l 167 965 q 144 916 150 965 q 139 815 139 867 l 139 14 q 292 106 243 18 q 356 357 342 193 q 371 831 369 521 q 364 926 369 888 q 343 965 358 965 l 343 972 l 496 972 l 496 965 q 474 916 479 965 q 468 815 468 867 l 468 14 q 620 104 571 18 q 684 351 669 190 q 699 815 699 513 q 693 916 699 867 q 671 965 688 965 l 671 972 l 824 972 l 824 965 q 802 923 807 965 q 794 815 797 881 q 706 217 783 428 q 468 0 628 7 l 371 0 l 371 203 q 139 0 290 6 l 42 0 l 42 815 m 344 1047 l 406 1135 l 433 1135 l 494 1047 l 440 1017 l 419 1085 l 399 1017 l 344 1047 z "},"Ẅ":{"ha":838,"x_min":14,"x_max":824,"o":"m 42 815 q 36 916 42 867 q 14 965 31 965 l 14 972 l 167 972 l 167 965 q 144 916 150 965 q 139 815 139 867 l 139 14 q 292 106 243 18 q 356 357 342 193 q 371 831 369 521 q 364 926 369 888 q 343 965 358 965 l 343 972 l 496 972 l 496 965 q 474 916 479 965 q 468 815 468 867 l 468 14 q 620 104 571 18 q 684 351 669 190 q 699 815 699 513 q 693 916 699 867 q 671 965 688 965 l 671 972 l 824 972 l 824 965 q 802 923 807 965 q 794 815 797 881 q 706 217 783 428 q 468 0 628 7 l 371 0 l 371 203 q 139 0 290 6 l 42 0 l 42 815 m 475 1046 q 444 1059 457 1046 q 431 1090 431 1072 q 444 1119 431 1107 q 475 1132 457 1132 q 504 1119 492 1132 q 517 1090 517 1107 q 504 1059 517 1072 q 475 1046 492 1046 m 364 1046 q 333 1059 346 1046 q 321 1090 321 1072 q 333 1119 321 1107 q 364 1132 346 1132 q 394 1119 381 1132 q 407 1090 407 1107 q 394 1059 407 1072 q 364 1046 381 1046 z "},"Ẁ":{"ha":838,"x_min":14,"x_max":824,"o":"m 42 815 q 36 916 42 867 q 14 965 31 965 l 14 972 l 167 972 l 167 965 q 144 916 150 965 q 139 815 139 867 l 139 14 q 292 106 243 18 q 356 357 342 193 q 371 831 369 521 q 364 926 369 888 q 343 965 358 965 l 343 972 l 496 972 l 496 965 q 474 916 479 965 q 468 815 468 867 l 468 14 q 620 104 571 18 q 684 351 669 190 q 699 815 699 513 q 693 916 699 867 q 671 965 688 965 l 671 972 l 824 972 l 824 965 q 802 923 807 965 q 794 815 797 881 q 706 217 783 428 q 468 0 628 7 l 371 0 l 371 203 q 139 0 290 6 l 42 0 l 42 815 m 376 1122 l 436 1150 l 463 1021 l 435 1021 l 376 1122 z "},"X":{"ha":513,"x_min":14,"x_max":499,"o":"m 343 7 q 358 57 358 7 q 347 157 358 106 q 307 294 333 229 q 242 426 281 358 q 75 157 106 383 q 72 111 72 138 q 78 39 72 71 q 97 7 85 7 l 97 0 l 28 0 l 28 7 q 51 53 42 7 q 100 310 57 211 q 233 439 143 410 l 199 497 q 97 690 133 608 q 49 878 61 772 q 14 965 35 965 l 14 972 l 167 972 l 167 965 q 151 915 151 965 q 163 815 151 867 q 208 673 179 739 q 282 532 238 607 q 438 815 406 586 q 440 861 440 835 q 434 933 440 901 q 415 965 428 965 l 415 972 l 485 972 l 485 965 q 460 907 467 965 l 453 826 l 451 815 q 290 519 422 578 l 304 496 q 406 306 369 385 q 458 125 443 226 q 476 38 468 69 q 499 7 485 7 l 499 0 l 343 0 l 343 7 z "},"Y":{"ha":508,"x_min":14,"x_max":494,"o":"m 169 7 q 192 56 186 7 q 197 157 197 106 l 197 399 q 139 394 171 394 l 42 394 l 42 815 q 36 916 42 867 q 14 965 31 965 l 14 972 l 167 972 l 167 965 q 144 916 150 965 q 139 815 139 867 l 139 408 q 277 443 231 410 q 344 565 324 476 q 369 829 365 653 q 363 922 369 878 q 342 965 357 965 l 342 972 l 494 972 l 494 965 q 476 939 483 965 q 467 874 469 913 l 464 829 l 463 815 q 411 562 451 656 q 294 428 371 468 l 294 157 q 300 56 294 106 q 322 7 306 7 l 322 0 l 169 0 l 169 7 z "},"Ý":{"ha":508,"x_min":14,"x_max":494,"o":"m 169 7 q 192 56 186 7 q 197 157 197 106 l 197 399 q 139 394 171 394 l 42 394 l 42 815 q 36 916 42 867 q 14 965 31 965 l 14 972 l 167 972 l 167 965 q 144 916 150 965 q 139 815 139 867 l 139 408 q 277 443 231 410 q 344 565 324 476 q 369 829 365 653 q 363 922 369 878 q 342 965 357 965 l 342 972 l 494 972 l 494 965 q 476 939 483 965 q 467 874 469 913 l 464 829 l 463 815 q 411 562 451 656 q 294 428 371 468 l 294 157 q 300 56 294 106 q 322 7 306 7 l 322 0 l 169 0 l 169 7 m 238 1150 l 297 1122 l 239 1021 l 211 1021 l 238 1150 z "},"Ŷ":{"ha":508,"x_min":14,"x_max":494,"o":"m 169 7 q 192 56 186 7 q 197 157 197 106 l 197 399 q 139 394 171 394 l 42 394 l 42 815 q 36 916 42 867 q 14 965 31 965 l 14 972 l 167 972 l 167 965 q 144 916 150 965 q 139 815 139 867 l 139 408 q 277 443 231 410 q 344 565 324 476 q 369 829 365 653 q 363 922 369 878 q 342 965 357 965 l 342 972 l 494 972 l 494 965 q 476 939 483 965 q 467 874 469 913 l 464 829 l 463 815 q 411 562 451 656 q 294 428 371 468 l 294 157 q 300 56 294 106 q 322 7 306 7 l 322 0 l 169 0 l 169 7 m 179 1047 l 240 1135 l 268 1135 l 329 1047 l 275 1017 l 254 1085 l 233 1017 l 179 1047 z "},"Ÿ":{"ha":508,"x_min":14,"x_max":494,"o":"m 169 7 q 192 56 186 7 q 197 157 197 106 l 197 399 q 139 394 171 394 l 42 394 l 42 815 q 36 916 42 867 q 14 965 31 965 l 14 972 l 167 972 l 167 965 q 144 916 150 965 q 139 815 139 867 l 139 408 q 277 443 231 410 q 344 565 324 476 q 369 829 365 653 q 363 922 369 878 q 342 965 357 965 l 342 972 l 494 972 l 494 965 q 476 939 483 965 q 467 874 469 913 l 464 829 l 463 815 q 411 562 451 656 q 294 428 371 468 l 294 157 q 300 56 294 106 q 322 7 306 7 l 322 0 l 169 0 l 169 7 m 310 1046 q 278 1059 292 1046 q 265 1090 265 1072 q 278 1119 265 1107 q 310 1132 292 1132 q 339 1119 326 1132 q 351 1090 351 1107 q 339 1059 351 1072 q 310 1046 326 1046 m 199 1046 q 168 1059 181 1046 q 156 1090 156 1072 q 168 1119 156 1107 q 199 1132 181 1132 q 228 1119 215 1132 q 242 1090 242 1107 q 228 1059 242 1072 q 199 1046 215 1046 z "},"Ỳ":{"ha":508,"x_min":14,"x_max":494,"o":"m 169 7 q 192 56 186 7 q 197 157 197 106 l 197 399 q 139 394 171 394 l 42 394 l 42 815 q 36 916 42 867 q 14 965 31 965 l 14 972 l 167 972 l 167 965 q 144 916 150 965 q 139 815 139 867 l 139 408 q 277 443 231 410 q 344 565 324 476 q 369 829 365 653 q 363 922 369 878 q 342 965 357 965 l 342 972 l 494 972 l 494 965 q 476 939 483 965 q 467 874 469 913 l 464 829 l 463 815 q 411 562 451 656 q 294 428 371 468 l 294 157 q 300 56 294 106 q 322 7 306 7 l 322 0 l 169 0 l 169 7 m 211 1122 l 271 1150 l 297 1021 l 269 1021 l 211 1122 z "},"Ỹ":{"ha":508,"x_min":14,"x_max":494,"o":"m 169 7 q 192 56 186 7 q 197 157 197 106 l 197 399 q 139 394 171 394 l 42 394 l 42 815 q 36 916 42 867 q 14 965 31 965 l 14 972 l 167 972 l 167 965 q 144 916 150 965 q 139 815 139 867 l 139 408 q 277 443 231 410 q 344 565 324 476 q 369 829 365 653 q 363 922 369 878 q 342 965 357 965 l 342 972 l 494 972 l 494 965 q 476 939 483 965 q 467 874 469 913 l 464 829 l 463 815 q 411 562 451 656 q 294 428 371 468 l 294 157 q 300 56 294 106 q 322 7 306 7 l 322 0 l 169 0 l 169 7 m 310 1033 q 265 1042 283 1033 q 225 1064 247 1050 q 202 1078 214 1072 q 181 1083 190 1083 q 160 1072 171 1083 l 154 1076 l 196 1135 q 241 1127 222 1135 q 282 1104 260 1119 q 325 1085 308 1085 q 347 1096 336 1085 l 353 1090 l 310 1033 z "},"Z":{"ha":511,"x_min":14,"x_max":497,"o":"m 14 7 q 36 38 28 7 q 54 125 44 69 q 106 305 69 226 q 207 494 142 383 q 290 643 260 582 q 343 783 321 704 q 367 958 365 863 q 213 934 271 958 q 128 849 156 910 q 100 682 100 789 l 93 682 l 93 972 l 497 972 l 497 965 q 465 885 479 965 q 435 742 457 808 q 386 625 413 676 q 313 494 360 574 q 228 344 260 407 q 174 198 197 281 q 150 15 151 115 q 385 83 304 21 q 467 290 467 146 l 474 290 l 474 0 l 14 0 l 14 7 z "},"Ź":{"ha":511,"x_min":14,"x_max":497,"o":"m 14 7 q 36 38 28 7 q 54 125 44 69 q 106 305 69 226 q 207 494 142 383 q 290 643 260 582 q 343 783 321 704 q 367 958 365 863 q 213 934 271 958 q 128 849 156 910 q 100 682 100 789 l 93 682 l 93 972 l 497 972 l 497 965 q 465 885 479 965 q 435 742 457 808 q 386 625 413 676 q 313 494 360 574 q 228 344 260 407 q 174 198 197 281 q 150 15 151 115 q 385 83 304 21 q 467 290 467 146 l 474 290 l 474 0 l 14 0 l 14 7 m 239 1150 l 299 1122 l 240 1021 l 213 1021 l 239 1150 z "},"Ž":{"ha":511,"x_min":14,"x_max":497,"o":"m 14 7 q 36 38 28 7 q 54 125 44 69 q 106 305 69 226 q 207 494 142 383 q 290 643 260 582 q 343 783 321 704 q 367 958 365 863 q 213 934 271 958 q 128 849 156 910 q 100 682 100 789 l 93 682 l 93 972 l 497 972 l 497 965 q 465 885 479 965 q 435 742 457 808 q 386 625 413 676 q 313 494 360 574 q 228 344 260 407 q 174 198 197 281 q 150 15 151 115 q 385 83 304 21 q 467 290 467 146 l 474 290 l 474 0 l 14 0 l 14 7 m 181 1104 l 235 1135 l 256 1067 l 276 1135 l 331 1104 l 269 1017 l 242 1017 l 181 1104 z "},"Ż":{"ha":511,"x_min":14,"x_max":497,"o":"m 14 7 q 36 38 28 7 q 54 125 44 69 q 106 305 69 226 q 207 494 142 383 q 290 643 260 582 q 343 783 321 704 q 367 958 365 863 q 213 934 271 958 q 128 849 156 910 q 100 682 100 789 l 93 682 l 93 972 l 497 972 l 497 965 q 465 885 479 965 q 435 742 457 808 q 386 625 413 676 q 313 494 360 574 q 228 344 260 407 q 174 198 197 281 q 150 15 151 115 q 385 83 304 21 q 467 290 467 146 l 474 290 l 474 0 l 14 0 l 14 7 m 257 1046 q 226 1059 239 1046 q 213 1090 213 1072 q 226 1119 213 1107 q 257 1132 239 1132 q 286 1119 274 1132 q 299 1090 299 1107 q 286 1059 299 1072 q 257 1046 274 1046 z "},"a":{"ha":456,"x_min":14,"x_max":442,"o":"m 317 61 q 261 3 299 24 q 181 -17 224 -17 q 63 28 113 -17 q 14 157 14 74 q 37 242 14 207 q 92 301 60 278 q 179 354 124 324 q 283 421 249 390 q 317 500 317 451 q 294 642 314 594 q 249 689 275 689 q 208 661 228 689 q 176 583 189 633 q 164 469 164 532 l 156 469 l 67 569 q 101 683 67 646 q 189 721 135 721 q 292 690 240 721 q 378 601 344 658 q 414 475 413 544 l 414 157 q 419 56 414 106 q 442 7 425 7 l 442 0 l 317 0 l 317 61 m 118 157 q 147 45 118 83 q 218 7 176 7 q 288 40 258 7 q 317 125 317 72 l 317 443 q 287 401 306 419 q 235 354 268 382 q 148 267 178 308 q 118 157 118 225 z "},"á":{"ha":456,"x_min":14,"x_max":442,"o":"m 317 61 q 261 3 299 24 q 181 -17 224 -17 q 63 28 113 -17 q 14 157 14 74 q 37 242 14 207 q 92 301 60 278 q 179 354 124 324 q 283 421 249 390 q 317 500 317 451 q 294 642 314 594 q 249 689 275 689 q 208 661 228 689 q 176 583 189 633 q 164 469 164 532 l 156 469 l 67 569 q 101 683 67 646 q 189 721 135 721 q 292 690 240 721 q 378 601 344 658 q 414 475 413 544 l 414 157 q 419 56 414 106 q 442 7 425 7 l 442 0 l 317 0 l 317 61 m 118 157 q 147 45 118 83 q 218 7 176 7 q 288 40 258 7 q 317 125 317 72 l 317 443 q 287 401 306 419 q 235 354 268 382 q 148 267 178 308 q 118 157 118 225 m 211 872 l 271 844 l 213 743 l 185 743 l 211 872 z "},"ă":{"ha":456,"x_min":14,"x_max":442,"o":"m 317 61 q 261 3 299 24 q 181 -17 224 -17 q 63 28 113 -17 q 14 157 14 74 q 37 242 14 207 q 92 301 60 278 q 179 354 124 324 q 283 421 249 390 q 317 500 317 451 q 294 642 314 594 q 249 689 275 689 q 208 661 228 689 q 176 583 189 633 q 164 469 164 532 l 156 469 l 67 569 q 101 683 67 646 q 189 721 135 721 q 292 690 240 721 q 378 601 344 658 q 414 475 413 544 l 414 157 q 419 56 414 106 q 442 7 425 7 l 442 0 l 317 0 l 317 61 m 118 157 q 147 45 118 83 q 218 7 176 7 q 288 40 258 7 q 317 125 317 72 l 317 443 q 287 401 306 419 q 235 354 268 382 q 148 267 178 308 q 118 157 118 225 m 228 750 q 126 821 161 750 l 179 847 q 228 786 196 786 q 276 847 260 786 l 329 821 q 228 750 294 750 z "},"â":{"ha":456,"x_min":14,"x_max":442,"o":"m 317 61 q 261 3 299 24 q 181 -17 224 -17 q 63 28 113 -17 q 14 157 14 74 q 37 242 14 207 q 92 301 60 278 q 179 354 124 324 q 283 421 249 390 q 317 500 317 451 q 294 642 314 594 q 249 689 275 689 q 208 661 228 689 q 176 583 189 633 q 164 469 164 532 l 156 469 l 67 569 q 101 683 67 646 q 189 721 135 721 q 292 690 240 721 q 378 601 344 658 q 414 475 413 544 l 414 157 q 419 56 414 106 q 442 7 425 7 l 442 0 l 317 0 l 317 61 m 118 157 q 147 45 118 83 q 218 7 176 7 q 288 40 258 7 q 317 125 317 72 l 317 443 q 287 401 306 419 q 235 354 268 382 q 148 267 178 308 q 118 157 118 225 m 153 769 l 214 857 l 242 857 l 303 769 l 249 739 l 228 807 l 207 739 l 153 769 z "},"ä":{"ha":456,"x_min":14,"x_max":442,"o":"m 317 61 q 261 3 299 24 q 181 -17 224 -17 q 63 28 113 -17 q 14 157 14 74 q 37 242 14 207 q 92 301 60 278 q 179 354 124 324 q 283 421 249 390 q 317 500 317 451 q 294 642 314 594 q 249 689 275 689 q 208 661 228 689 q 176 583 189 633 q 164 469 164 532 l 156 469 l 67 569 q 101 683 67 646 q 189 721 135 721 q 292 690 240 721 q 378 601 344 658 q 414 475 413 544 l 414 157 q 419 56 414 106 q 442 7 425 7 l 442 0 l 317 0 l 317 61 m 118 157 q 147 45 118 83 q 218 7 176 7 q 288 40 258 7 q 317 125 317 72 l 317 443 q 287 401 306 419 q 235 354 268 382 q 148 267 178 308 q 118 157 118 225 m 283 768 q 252 781 265 768 q 239 813 239 794 q 252 842 239 829 q 283 854 265 854 q 313 842 300 854 q 325 813 325 829 q 313 781 325 794 q 283 768 300 768 m 172 768 q 142 781 154 768 q 129 813 129 794 q 142 842 129 829 q 172 854 154 854 q 202 842 189 854 q 215 813 215 829 q 202 781 215 794 q 172 768 189 768 z "},"à":{"ha":456,"x_min":14,"x_max":442,"o":"m 317 61 q 261 3 299 24 q 181 -17 224 -17 q 63 28 113 -17 q 14 157 14 74 q 37 242 14 207 q 92 301 60 278 q 179 354 124 324 q 283 421 249 390 q 317 500 317 451 q 294 642 314 594 q 249 689 275 689 q 208 661 228 689 q 176 583 189 633 q 164 469 164 532 l 156 469 l 67 569 q 101 683 67 646 q 189 721 135 721 q 292 690 240 721 q 378 601 344 658 q 414 475 413 544 l 414 157 q 419 56 414 106 q 442 7 425 7 l 442 0 l 317 0 l 317 61 m 118 157 q 147 45 118 83 q 218 7 176 7 q 288 40 258 7 q 317 125 317 72 l 317 443 q 287 401 306 419 q 235 354 268 382 q 148 267 178 308 q 118 157 118 225 m 185 844 l 244 872 l 271 743 l 243 743 l 185 844 z "},"ā":{"ha":456,"x_min":14,"x_max":442,"o":"m 317 61 q 261 3 299 24 q 181 -17 224 -17 q 63 28 113 -17 q 14 157 14 74 q 37 242 14 207 q 92 301 60 278 q 179 354 124 324 q 283 421 249 390 q 317 500 317 451 q 294 642 314 594 q 249 689 275 689 q 208 661 228 689 q 176 583 189 633 q 164 469 164 532 l 156 469 l 67 569 q 101 683 67 646 q 189 721 135 721 q 292 690 240 721 q 378 601 344 658 q 414 475 413 544 l 414 157 q 419 56 414 106 q 442 7 425 7 l 442 0 l 317 0 l 317 61 m 118 157 q 147 45 118 83 q 218 7 176 7 q 288 40 258 7 q 317 125 317 72 l 317 443 q 287 401 306 419 q 235 354 268 382 q 148 267 178 308 q 118 157 118 225 m 124 831 l 332 831 l 332 775 l 124 775 l 124 831 z "},"ą":{"ha":456,"x_min":14,"x_max":449,"o":"m 317 61 q 261 3 299 24 q 181 -17 224 -17 q 63 28 113 -17 q 14 157 14 74 q 37 242 14 207 q 92 301 60 278 q 179 354 124 324 q 283 421 249 390 q 317 500 317 451 q 294 642 314 594 q 249 689 275 689 q 208 661 228 689 q 176 583 189 633 q 164 469 164 532 l 156 469 l 67 569 q 101 683 67 646 q 189 721 135 721 q 292 690 240 721 q 378 601 344 658 q 414 475 413 544 l 414 157 q 419 56 414 106 q 442 7 425 7 l 442 0 q 407 -78 407 -51 q 449 -110 407 -110 l 431 -156 q 369 -118 369 -156 q 431 0 369 -81 l 317 0 l 317 61 m 118 157 q 147 45 118 83 q 218 7 176 7 q 288 40 258 7 q 317 125 317 72 l 317 443 q 287 401 306 419 q 235 354 268 382 q 148 267 178 308 q 118 157 118 225 z "},"å":{"ha":456,"x_min":14,"x_max":442,"o":"m 317 61 q 261 3 299 24 q 181 -17 224 -17 q 63 28 113 -17 q 14 157 14 74 q 37 242 14 207 q 92 301 60 278 q 179 354 124 324 q 283 421 249 390 q 317 500 317 451 q 294 642 314 594 q 249 689 275 689 q 208 661 228 689 q 176 583 189 633 q 164 469 164 532 l 156 469 l 67 569 q 101 683 67 646 q 189 721 135 721 q 292 690 240 721 q 378 601 344 658 q 414 475 413 544 l 414 157 q 419 56 414 106 q 442 7 425 7 l 442 0 l 317 0 l 317 61 m 118 157 q 147 45 118 83 q 218 7 176 7 q 288 40 258 7 q 317 125 317 72 l 317 443 q 287 401 306 419 q 235 354 268 382 q 148 267 178 308 q 118 157 118 225 m 226 739 q 181 758 200 739 q 163 803 163 776 q 181 849 163 829 q 226 868 200 868 q 273 849 254 868 q 292 803 292 831 q 272 758 292 776 q 226 739 253 739 m 226 765 q 254 776 243 765 q 265 803 265 788 q 254 831 265 819 q 226 842 243 842 q 200 831 211 842 q 189 803 189 819 q 200 776 189 788 q 226 765 211 765 z "},"ã":{"ha":456,"x_min":14,"x_max":442,"o":"m 317 61 q 261 3 299 24 q 181 -17 224 -17 q 63 28 113 -17 q 14 157 14 74 q 37 242 14 207 q 92 301 60 278 q 179 354 124 324 q 283 421 249 390 q 317 500 317 451 q 294 642 314 594 q 249 689 275 689 q 208 661 228 689 q 176 583 189 633 q 164 469 164 532 l 156 469 l 67 569 q 101 683 67 646 q 189 721 135 721 q 292 690 240 721 q 378 601 344 658 q 414 475 413 544 l 414 157 q 419 56 414 106 q 442 7 425 7 l 442 0 l 317 0 l 317 61 m 118 157 q 147 45 118 83 q 218 7 176 7 q 288 40 258 7 q 317 125 317 72 l 317 443 q 287 401 306 419 q 235 354 268 382 q 148 267 178 308 q 118 157 118 225 m 283 756 q 239 764 257 756 q 199 786 221 772 q 176 800 188 794 q 154 806 164 806 q 133 794 144 806 l 128 799 l 169 857 q 215 849 196 857 q 256 826 233 842 q 299 807 282 807 q 321 818 310 807 l 326 813 l 283 756 z "},"æ":{"ha":849,"x_min":14,"x_max":835,"o":"m 317 61 q 261 3 299 24 q 181 -17 224 -17 q 63 28 113 -17 q 14 157 14 74 q 37 242 14 207 q 92 301 60 278 q 179 354 124 324 q 283 421 249 390 q 317 500 317 451 q 294 642 314 594 q 249 689 275 689 q 208 661 228 689 q 176 583 189 633 q 164 469 164 532 l 156 469 l 67 569 q 101 683 67 646 q 190 721 136 721 q 301 683 246 721 q 388 585 357 646 q 488 676 429 643 q 613 708 546 708 q 714 687 663 708 q 800 622 765 665 q 835 515 835 578 q 806 419 835 464 q 738 341 778 375 q 633 263 697 307 q 517 169 554 206 q 481 90 481 133 q 537 24 506 47 q 603 0 568 0 q 670 24 639 0 q 721 90 701 47 q 740 188 740 133 l 835 188 q 801 85 835 132 q 713 13 767 39 q 603 -14 660 -14 q 504 9 551 -14 q 418 72 457 32 q 442 7 424 7 l 442 0 l 317 0 l 317 61 m 118 157 q 147 45 118 83 q 218 7 176 7 q 288 40 258 7 q 317 125 317 72 l 317 443 q 287 401 306 419 q 235 354 268 382 q 148 267 178 308 q 118 157 118 225 m 421 347 q 468 113 421 214 q 504 185 475 151 q 590 271 533 219 q 704 392 665 339 q 743 515 743 444 q 703 651 743 607 q 613 694 664 694 q 510 649 553 694 q 444 524 467 603 q 421 347 421 444 z "},"b":{"ha":447,"x_min":14,"x_max":433,"o":"m 14 7 q 36 56 31 7 q 42 157 42 106 l 42 815 q 36 916 42 867 q 14 965 31 965 l 14 972 l 139 972 l 139 896 q 159 751 139 803 q 209 679 179 700 q 289 640 239 658 q 366 603 338 622 q 414 536 394 583 q 433 401 433 489 q 347 90 433 178 q 139 0 260 1 l 14 0 l 14 7 m 139 14 q 245 47 203 15 q 312 164 288 79 q 336 401 336 249 q 322 533 336 486 q 287 601 307 581 q 232 644 267 622 q 174 690 196 667 q 139 761 151 713 l 139 14 z "},"c":{"ha":546,"x_min":14,"x_max":532,"o":"m 300 -14 q 156 35 222 -14 q 52 167 90 85 q 14 347 14 250 q 52 528 14 444 q 156 660 90 611 q 300 708 222 708 q 406 678 357 708 q 468 661 442 661 q 503 694 503 661 l 507 694 l 507 428 l 503 428 q 471 553 503 494 q 399 650 439 613 q 300 694 347 694 q 208 648 250 694 q 142 522 167 601 q 118 347 118 442 q 142 174 118 253 q 208 47 167 94 q 300 0 250 0 q 367 24 336 0 q 418 92 399 49 q 438 188 438 135 l 532 188 q 498 85 532 131 q 410 13 464 39 q 300 -14 357 -14 z "},"ć":{"ha":546,"x_min":14,"x_max":532,"o":"m 300 -14 q 156 35 222 -14 q 52 167 90 85 q 14 347 14 250 q 52 528 14 444 q 156 660 90 611 q 300 708 222 708 q 406 678 357 708 q 468 661 442 661 q 503 694 503 661 l 507 694 l 507 428 l 503 428 q 471 553 503 494 q 399 650 439 613 q 300 694 347 694 q 208 648 250 694 q 142 522 167 601 q 118 347 118 442 q 142 174 118 253 q 208 47 167 94 q 300 0 250 0 q 367 24 336 0 q 418 92 399 49 q 438 188 438 135 l 532 188 q 498 85 532 131 q 410 13 464 39 q 300 -14 357 -14 m 283 872 l 343 844 l 285 743 l 257 743 l 283 872 z "},"č":{"ha":546,"x_min":14,"x_max":532,"o":"m 300 -14 q 156 35 222 -14 q 52 167 90 85 q 14 347 14 250 q 52 528 14 444 q 156 660 90 611 q 300 708 222 708 q 406 678 357 708 q 468 661 442 661 q 503 694 503 661 l 507 694 l 507 428 l 503 428 q 471 553 503 494 q 399 650 439 613 q 300 694 347 694 q 208 648 250 694 q 142 522 167 601 q 118 347 118 442 q 142 174 118 253 q 208 47 167 94 q 300 0 250 0 q 367 24 336 0 q 418 92 399 49 q 438 188 438 135 l 532 188 q 498 85 532 131 q 410 13 464 39 q 300 -14 357 -14 m 225 826 l 279 857 l 300 789 l 321 857 l 375 826 l 314 739 l 286 739 l 225 826 z "},"ç":{"ha":546,"x_min":14,"x_max":532,"o":"m 503 428 q 471 553 503 494 q 399 650 439 613 q 300 694 347 694 q 208 648 250 694 q 142 522 167 601 q 118 347 118 442 q 142 174 118 253 q 208 47 167 94 q 300 0 250 0 q 367 24 336 0 q 418 92 399 49 q 438 188 438 135 l 532 188 q 499 87 532 132 q 415 15 467 42 q 308 -14 364 -11 l 299 -47 q 338 -65 324 -50 q 353 -100 353 -79 q 331 -142 353 -124 q 271 -161 310 -161 l 271 -157 q 305 -142 292 -157 q 318 -111 318 -128 q 309 -90 318 -99 q 285 -81 300 -81 l 272 -81 l 292 -14 q 152 38 215 -11 q 51 170 89 88 q 14 347 14 253 q 52 528 14 444 q 156 660 90 611 q 300 708 222 708 q 406 678 357 708 q 468 661 442 661 q 503 694 503 661 l 507 694 l 507 428 l 503 428 z "},"ċ":{"ha":546,"x_min":14,"x_max":532,"o":"m 300 -14 q 156 35 222 -14 q 52 167 90 85 q 14 347 14 250 q 52 528 14 444 q 156 660 90 611 q 300 708 222 708 q 406 678 357 708 q 468 661 442 661 q 503 694 503 661 l 507 694 l 507 428 l 503 428 q 471 553 503 494 q 399 650 439 613 q 300 694 347 694 q 208 648 250 694 q 142 522 167 601 q 118 347 118 442 q 142 174 118 253 q 208 47 167 94 q 300 0 250 0 q 367 24 336 0 q 418 92 399 49 q 438 188 438 135 l 532 188 q 498 85 532 131 q 410 13 464 39 q 300 -14 357 -14 m 301 768 q 270 781 283 768 q 257 813 257 794 q 270 842 257 829 q 301 854 283 854 q 331 842 318 854 q 343 813 343 829 q 331 781 343 794 q 301 768 318 768 z "},"d":{"ha":447,"x_min":14,"x_max":433,"o":"m 308 0 q 101 90 188 1 q 14 401 14 178 q 33 536 14 489 q 81 603 53 583 q 158 640 110 622 q 233 676 206 658 q 282 738 261 694 q 307 860 303 782 q 281 965 304 965 l 281 972 l 406 972 l 406 157 q 411 56 406 106 q 433 7 417 7 l 433 0 l 308 0 m 111 401 q 135 164 111 249 q 202 47 160 79 q 308 14 244 15 l 308 761 q 274 690 296 713 q 215 644 251 667 q 160 601 181 622 q 126 533 140 581 q 111 401 111 486 z "},"ď":{"ha":447,"x_min":14,"x_max":533,"o":"m 308 0 q 101 90 188 1 q 14 401 14 178 q 33 536 14 489 q 81 603 53 583 q 158 640 110 622 q 233 676 206 658 q 282 738 261 694 q 307 860 303 782 q 281 965 304 965 l 281 972 l 406 972 l 406 157 q 411 56 406 106 q 433 7 417 7 l 433 0 l 308 0 m 111 401 q 135 164 111 249 q 202 47 160 79 q 308 14 244 15 l 308 761 q 274 690 296 713 q 215 644 251 667 q 160 601 181 622 q 126 533 140 581 q 111 401 111 486 m 474 854 l 533 826 l 475 725 l 447 725 l 474 854 z "},"đ":{"ha":447,"x_min":14,"x_max":440,"o":"m 308 0 q 101 90 188 1 q 14 401 14 178 q 33 536 14 489 q 81 603 53 583 q 158 640 110 622 q 223 669 199 656 q 269 713 247 683 q 300 793 290 743 l 232 793 l 232 849 l 307 849 l 307 860 q 281 965 304 965 l 281 972 l 406 972 l 406 849 l 440 849 l 440 793 l 406 793 l 406 157 q 411 56 406 106 q 433 7 417 7 l 433 0 l 308 0 m 111 401 q 135 164 111 249 q 202 47 160 79 q 308 14 244 15 l 308 761 q 274 690 296 713 q 215 644 251 667 q 160 601 181 622 q 126 533 140 581 q 111 401 111 486 z "},"ð":{"ha":600,"x_min":264,"x_max":496,"o":"m 264 771 l 468 889 l 496 840 l 292 722 l 264 771 z "},"e":{"ha":546,"x_min":14,"x_max":532,"o":"m 300 -14 q 156 35 222 -14 q 52 167 90 85 q 14 347 14 250 q 53 528 14 446 q 160 660 92 611 q 310 708 228 708 q 411 687 360 708 q 497 622 463 665 q 532 515 532 578 q 503 419 532 464 q 435 341 475 375 q 331 263 394 307 q 215 169 251 206 q 178 90 178 133 q 234 24 203 47 q 300 0 265 0 q 367 24 336 0 q 418 90 399 47 q 438 188 438 133 l 532 188 q 498 85 532 132 q 410 13 464 39 q 300 -14 357 -14 m 118 347 q 165 113 118 214 q 201 185 172 151 q 288 271 231 219 q 401 392 363 339 q 440 515 440 444 q 401 651 440 607 q 310 694 361 694 q 207 649 250 694 q 141 524 164 603 q 118 347 118 444 z "},"é":{"ha":546,"x_min":14,"x_max":532,"o":"m 300 -14 q 156 35 222 -14 q 52 167 90 85 q 14 347 14 250 q 53 528 14 446 q 160 660 92 611 q 310 708 228 708 q 411 687 360 708 q 497 622 463 665 q 532 515 532 578 q 503 419 532 464 q 435 341 475 375 q 331 263 394 307 q 215 169 251 206 q 178 90 178 133 q 234 24 203 47 q 300 0 265 0 q 367 24 336 0 q 418 90 399 47 q 438 188 438 133 l 532 188 q 498 85 532 132 q 410 13 464 39 q 300 -14 357 -14 m 118 347 q 165 113 118 214 q 201 185 172 151 q 288 271 231 219 q 401 392 363 339 q 440 515 440 444 q 401 651 440 607 q 310 694 361 694 q 207 649 250 694 q 141 524 164 603 q 118 347 118 444 m 292 872 l 351 844 l 293 743 l 265 743 l 292 872 z "},"ě":{"ha":546,"x_min":14,"x_max":532,"o":"m 300 -14 q 156 35 222 -14 q 52 167 90 85 q 14 347 14 250 q 53 528 14 446 q 160 660 92 611 q 310 708 228 708 q 411 687 360 708 q 497 622 463 665 q 532 515 532 578 q 503 419 532 464 q 435 341 475 375 q 331 263 394 307 q 215 169 251 206 q 178 90 178 133 q 234 24 203 47 q 300 0 265 0 q 367 24 336 0 q 418 90 399 47 q 438 188 438 133 l 532 188 q 498 85 532 132 q 410 13 464 39 q 300 -14 357 -14 m 118 347 q 165 113 118 214 q 201 185 172 151 q 288 271 231 219 q 401 392 363 339 q 440 515 440 444 q 401 651 440 607 q 310 694 361 694 q 207 649 250 694 q 141 524 164 603 q 118 347 118 444 m 233 826 l 288 857 l 308 789 l 329 857 l 383 826 l 322 739 l 294 739 l 233 826 z "},"ê":{"ha":546,"x_min":14,"x_max":532,"o":"m 300 -14 q 156 35 222 -14 q 52 167 90 85 q 14 347 14 250 q 53 528 14 446 q 160 660 92 611 q 310 708 228 708 q 411 687 360 708 q 497 622 463 665 q 532 515 532 578 q 503 419 532 464 q 435 341 475 375 q 331 263 394 307 q 215 169 251 206 q 178 90 178 133 q 234 24 203 47 q 300 0 265 0 q 367 24 336 0 q 418 90 399 47 q 438 188 438 133 l 532 188 q 498 85 532 132 q 410 13 464 39 q 300 -14 357 -14 m 118 347 q 165 113 118 214 q 201 185 172 151 q 288 271 231 219 q 401 392 363 339 q 440 515 440 444 q 401 651 440 607 q 310 694 361 694 q 207 649 250 694 q 141 524 164 603 q 118 347 118 444 m 233 769 l 294 857 l 322 857 l 383 769 l 329 739 l 308 807 l 288 739 l 233 769 z "},"ë":{"ha":546,"x_min":14,"x_max":532,"o":"m 300 -14 q 156 35 222 -14 q 52 167 90 85 q 14 347 14 250 q 53 528 14 446 q 160 660 92 611 q 310 708 228 708 q 411 687 360 708 q 497 622 463 665 q 532 515 532 578 q 503 419 532 464 q 435 341 475 375 q 331 263 394 307 q 215 169 251 206 q 178 90 178 133 q 234 24 203 47 q 300 0 265 0 q 367 24 336 0 q 418 90 399 47 q 438 188 438 133 l 532 188 q 498 85 532 132 q 410 13 464 39 q 300 -14 357 -14 m 118 347 q 165 113 118 214 q 201 185 172 151 q 288 271 231 219 q 401 392 363 339 q 440 515 440 444 q 401 651 440 607 q 310 694 361 694 q 207 649 250 694 q 141 524 164 603 q 118 347 118 444 m 364 768 q 333 781 346 768 q 319 813 319 794 q 333 842 319 829 q 364 854 346 854 q 393 842 381 854 q 406 813 406 829 q 393 781 406 794 q 364 768 381 768 m 253 768 q 222 781 235 768 q 210 813 210 794 q 222 842 210 829 q 253 854 235 854 q 283 842 269 854 q 296 813 296 829 q 283 781 296 794 q 253 768 269 768 z "},"ė":{"ha":546,"x_min":14,"x_max":532,"o":"m 300 -14 q 156 35 222 -14 q 52 167 90 85 q 14 347 14 250 q 53 528 14 446 q 160 660 92 611 q 310 708 228 708 q 411 687 360 708 q 497 622 463 665 q 532 515 532 578 q 503 419 532 464 q 435 341 475 375 q 331 263 394 307 q 215 169 251 206 q 178 90 178 133 q 234 24 203 47 q 300 0 265 0 q 367 24 336 0 q 418 90 399 47 q 438 188 438 133 l 532 188 q 498 85 532 132 q 410 13 464 39 q 300 -14 357 -14 m 118 347 q 165 113 118 214 q 201 185 172 151 q 288 271 231 219 q 401 392 363 339 q 440 515 440 444 q 401 651 440 607 q 310 694 361 694 q 207 649 250 694 q 141 524 164 603 q 118 347 118 444 m 310 768 q 278 781 292 768 q 265 813 265 794 q 278 842 265 829 q 310 854 292 854 q 339 842 326 854 q 351 813 351 829 q 339 781 351 794 q 310 768 326 768 z "},"è":{"ha":546,"x_min":14,"x_max":532,"o":"m 300 -14 q 156 35 222 -14 q 52 167 90 85 q 14 347 14 250 q 53 528 14 446 q 160 660 92 611 q 310 708 228 708 q 411 687 360 708 q 497 622 463 665 q 532 515 532 578 q 503 419 532 464 q 435 341 475 375 q 331 263 394 307 q 215 169 251 206 q 178 90 178 133 q 234 24 203 47 q 300 0 265 0 q 367 24 336 0 q 418 90 399 47 q 438 188 438 133 l 532 188 q 498 85 532 132 q 410 13 464 39 q 300 -14 357 -14 m 118 347 q 165 113 118 214 q 201 185 172 151 q 288 271 231 219 q 401 392 363 339 q 440 515 440 444 q 401 651 440 607 q 310 694 361 694 q 207 649 250 694 q 141 524 164 603 q 118 347 118 444 m 265 844 l 325 872 l 351 743 l 324 743 l 265 844 z "},"ē":{"ha":546,"x_min":14,"x_max":532,"o":"m 300 -14 q 156 35 222 -14 q 52 167 90 85 q 14 347 14 250 q 53 528 14 446 q 160 660 92 611 q 310 708 228 708 q 411 687 360 708 q 497 622 463 665 q 532 515 532 578 q 503 419 532 464 q 435 341 475 375 q 331 263 394 307 q 215 169 251 206 q 178 90 178 133 q 234 24 203 47 q 300 0 265 0 q 367 24 336 0 q 418 90 399 47 q 438 188 438 133 l 532 188 q 498 85 532 132 q 410 13 464 39 q 300 -14 357 -14 m 118 347 q 165 113 118 214 q 201 185 172 151 q 288 271 231 219 q 401 392 363 339 q 440 515 440 444 q 401 651 440 607 q 310 694 361 694 q 207 649 250 694 q 141 524 164 603 q 118 347 118 444 m 204 831 l 413 831 l 413 775 l 204 775 l 204 831 z "},"ę":{"ha":546,"x_min":14,"x_max":532,"o":"m 300 -14 q 156 35 222 -14 q 52 167 90 85 q 14 347 14 250 q 53 528 14 446 q 160 660 92 611 q 310 708 228 708 q 411 687 360 708 q 497 622 463 665 q 532 515 532 578 q 503 419 532 464 q 435 341 475 375 q 331 263 394 307 q 215 169 251 206 q 178 90 178 133 q 234 24 203 47 q 300 0 265 0 q 367 24 336 0 q 418 90 399 47 q 438 188 438 133 l 532 188 q 498 86 532 132 q 410 13 464 40 q 376 -64 376 -37 q 418 -96 376 -96 l 400 -142 q 339 -104 339 -142 q 393 6 339 -68 q 300 -14 347 -14 m 118 347 q 165 113 118 214 q 201 185 172 151 q 288 271 231 219 q 401 392 363 339 q 440 515 440 444 q 401 651 440 607 q 310 694 361 694 q 207 649 250 694 q 141 524 164 603 q 118 347 118 444 z "},"ẽ":{"ha":546,"x_min":14,"x_max":532,"o":"m 300 -14 q 156 35 222 -14 q 52 167 90 85 q 14 347 14 250 q 53 528 14 446 q 160 660 92 611 q 310 708 228 708 q 411 687 360 708 q 497 622 463 665 q 532 515 532 578 q 503 419 532 464 q 435 341 475 375 q 331 263 394 307 q 215 169 251 206 q 178 90 178 133 q 234 24 203 47 q 300 0 265 0 q 367 24 336 0 q 418 90 399 47 q 438 188 438 133 l 532 188 q 498 85 532 132 q 410 13 464 39 q 300 -14 357 -14 m 118 347 q 165 113 118 214 q 201 185 172 151 q 288 271 231 219 q 401 392 363 339 q 440 515 440 444 q 401 651 440 607 q 310 694 361 694 q 207 649 250 694 q 141 524 164 603 q 118 347 118 444 m 364 756 q 319 764 338 756 q 279 786 301 772 q 256 800 268 794 q 235 806 244 806 q 214 794 225 806 l 208 799 l 250 857 q 295 849 276 857 q 336 826 314 842 q 379 807 363 807 q 401 818 390 807 l 407 813 l 364 756 z "},"ə":{"ha":546,"x_min":14,"x_max":532,"o":"m 246 708 q 390 659 324 708 q 494 527 456 610 q 532 347 532 444 q 493 166 532 249 q 386 35 454 83 q 236 -14 318 -14 q 135 8 186 -14 q 49 73 83 29 q 14 179 14 117 q 42 275 14 231 q 111 353 71 319 q 215 432 151 388 q 331 525 294 489 q 368 604 368 561 q 312 671 343 647 q 246 694 281 694 q 178 671 210 694 q 128 604 147 647 q 108 507 108 561 l 14 507 q 48 609 14 563 q 135 682 82 656 q 246 708 189 708 m 106 179 q 145 44 106 88 q 236 0 185 0 q 339 46 296 0 q 405 171 382 92 q 428 347 428 250 q 381 582 428 481 q 344 509 374 543 q 258 424 315 475 q 144 303 183 356 q 106 179 106 250 z "},"f":{"ha":431,"x_min":14,"x_max":417,"o":"m 42 674 q 79 836 43 767 q 169 942 115 906 q 276 979 222 979 q 377 933 338 979 q 417 797 417 886 l 328 697 l 319 697 q 299 892 319 828 q 246 957 278 957 q 196 919 221 957 q 155 815 171 882 q 139 665 139 747 l 263 665 l 263 461 l 257 461 q 228 595 257 551 q 139 650 200 639 l 139 157 q 144 56 139 106 q 167 7 150 7 l 167 0 l 14 0 l 14 7 q 36 56 31 7 q 42 157 42 106 l 42 674 z "},"g":{"ha":528,"x_min":14,"x_max":514,"o":"m 257 -258 q 84 -208 135 -258 q 33 -89 33 -158 l 131 -89 q 128 -125 131 -103 l 126 -160 q 153 -223 126 -201 q 257 -244 179 -244 q 358 -231 324 -244 q 403 -190 392 -217 q 414 -114 414 -162 q 388 -56 414 -74 q 328 -35 361 -37 q 226 -32 294 -32 q 126 -22 160 -32 q 93 24 93 -12 q 128 67 93 47 q 228 110 164 86 q 281 131 260 121 q 379 236 346 161 q 413 415 413 311 q 392 556 413 492 q 335 658 371 619 q 257 696 299 696 q 194 672 224 696 q 143 604 164 647 q 114 494 114 544 q 239 304 114 389 q 290 256 268 283 q 311 203 311 228 q 292 148 311 169 q 243 126 274 126 q 91 192 142 126 q 27 323 40 258 q 14 415 14 388 q 47 560 14 493 q 135 665 79 626 q 257 704 192 704 q 390 657 331 704 q 365 738 365 700 q 381 793 365 767 l 514 793 q 446 722 469 754 q 422 657 422 689 q 439 607 422 632 q 500 415 500 524 q 465 265 500 333 q 369 160 429 197 q 310 122 356 147 q 223 67 253 89 q 193 24 193 44 q 210 -10 193 0 q 261 -19 228 -19 l 318 -17 q 389 -12 354 -12 q 481 -34 447 -12 q 514 -114 514 -56 q 442 -222 514 -185 q 257 -258 371 -258 m 103 413 q 122 278 103 343 q 172 174 140 214 q 243 135 204 135 q 285 153 269 135 q 300 203 300 172 q 278 253 300 226 q 229 299 257 281 q 103 413 138 358 z "},"ğ":{"ha":528,"x_min":14,"x_max":514,"o":"m 257 -258 q 84 -208 135 -258 q 33 -89 33 -158 l 131 -89 q 128 -125 131 -103 l 126 -160 q 153 -223 126 -201 q 257 -244 179 -244 q 358 -231 324 -244 q 403 -190 392 -217 q 414 -114 414 -162 q 388 -56 414 -74 q 328 -35 361 -37 q 226 -32 294 -32 q 126 -22 160 -32 q 93 24 93 -12 q 128 67 93 47 q 228 110 164 86 q 281 131 260 121 q 379 236 346 161 q 413 415 413 311 q 392 556 413 492 q 335 658 371 619 q 257 696 299 696 q 194 672 224 696 q 143 604 164 647 q 114 494 114 544 q 239 304 114 389 q 290 256 268 283 q 311 203 311 228 q 292 148 311 169 q 243 126 274 126 q 91 192 142 126 q 27 323 40 258 q 14 415 14 388 q 47 560 14 493 q 135 665 79 626 q 257 704 192 704 q 390 657 331 704 q 365 738 365 700 q 381 793 365 767 l 514 793 q 446 722 469 754 q 422 657 422 689 q 439 607 422 632 q 500 415 500 524 q 465 265 500 333 q 369 160 429 197 q 310 122 356 147 q 223 67 253 89 q 193 24 193 44 q 210 -10 193 0 q 261 -19 228 -19 l 318 -17 q 389 -12 354 -12 q 481 -34 447 -12 q 514 -114 514 -56 q 442 -222 514 -185 q 257 -258 371 -258 m 103 413 q 122 278 103 343 q 172 174 140 214 q 243 135 204 135 q 285 153 269 135 q 300 203 300 172 q 278 253 300 226 q 229 299 257 281 q 103 413 138 358 m 264 750 q 163 821 197 750 l 215 847 q 264 786 232 786 q 313 847 296 786 l 365 821 q 264 750 331 750 z "},"ģ":{"ha":528,"x_min":14,"x_max":514,"o":"m 257 -258 q 84 -208 135 -258 q 33 -89 33 -158 l 131 -89 q 128 -125 131 -103 l 126 -160 q 153 -223 126 -201 q 257 -244 179 -244 q 358 -231 324 -244 q 403 -190 392 -217 q 414 -114 414 -162 q 388 -56 414 -74 q 328 -35 361 -37 q 226 -32 294 -32 q 126 -22 160 -32 q 93 24 93 -12 q 128 67 93 47 q 228 110 164 86 q 281 131 260 121 q 379 236 346 161 q 413 415 413 311 q 392 556 413 492 q 335 658 371 619 q 257 696 299 696 q 194 672 224 696 q 143 604 164 647 q 114 494 114 544 q 239 304 114 389 q 290 256 268 283 q 311 203 311 228 q 292 148 311 169 q 243 126 274 126 q 91 192 142 126 q 27 323 40 258 q 14 415 14 388 q 47 560 14 493 q 135 665 79 626 q 257 704 192 704 q 390 657 331 704 q 365 738 365 700 q 381 793 365 767 l 514 793 q 446 722 469 754 q 422 657 422 689 q 439 607 422 632 q 500 415 500 524 q 465 265 500 333 q 369 160 429 197 q 310 122 356 147 q 223 67 253 89 q 193 24 193 44 q 210 -10 193 0 q 261 -19 228 -19 l 318 -17 q 389 -12 354 -12 q 481 -34 447 -12 q 514 -114 514 -56 q 442 -222 514 -185 q 257 -258 371 -258 m 103 413 q 122 278 103 343 q 172 174 140 214 q 243 135 204 135 q 285 153 269 135 q 300 203 300 172 q 278 253 300 226 q 229 299 257 281 q 103 413 138 358 m 225 815 q 241 856 229 843 q 275 868 253 868 l 275 864 q 256 839 256 864 l 256 821 l 296 821 l 313 743 l 214 743 l 225 815 z "},"ġ":{"ha":528,"x_min":14,"x_max":514,"o":"m 257 -258 q 84 -208 135 -258 q 33 -89 33 -158 l 131 -89 q 128 -125 131 -103 l 126 -160 q 153 -223 126 -201 q 257 -244 179 -244 q 358 -231 324 -244 q 403 -190 392 -217 q 414 -114 414 -162 q 388 -56 414 -74 q 328 -35 361 -37 q 226 -32 294 -32 q 126 -22 160 -32 q 93 24 93 -12 q 128 67 93 47 q 228 110 164 86 q 281 131 260 121 q 379 236 346 161 q 413 415 413 311 q 392 556 413 492 q 335 658 371 619 q 257 696 299 696 q 194 672 224 696 q 143 604 164 647 q 114 494 114 544 q 239 304 114 389 q 290 256 268 283 q 311 203 311 228 q 292 148 311 169 q 243 126 274 126 q 91 192 142 126 q 27 323 40 258 q 14 415 14 388 q 47 560 14 493 q 135 665 79 626 q 257 704 192 704 q 390 657 331 704 q 365 738 365 700 q 381 793 365 767 l 514 793 q 446 722 469 754 q 422 657 422 689 q 439 607 422 632 q 500 415 500 524 q 465 265 500 333 q 369 160 429 197 q 310 122 356 147 q 223 67 253 89 q 193 24 193 44 q 210 -10 193 0 q 261 -19 228 -19 l 318 -17 q 389 -12 354 -12 q 481 -34 447 -12 q 514 -114 514 -56 q 442 -222 514 -185 q 257 -258 371 -258 m 103 413 q 122 278 103 343 q 172 174 140 214 q 243 135 204 135 q 285 153 269 135 q 300 203 300 172 q 278 253 300 226 q 229 299 257 281 q 103 413 138 358 m 265 768 q 234 781 247 768 q 221 813 221 794 q 234 842 221 829 q 265 854 247 854 q 294 842 282 854 q 307 813 307 829 q 294 781 307 794 q 265 768 282 768 z "},"h":{"ha":458,"x_min":14,"x_max":444,"o":"m 14 7 q 36 56 31 7 q 42 157 42 106 l 42 815 q 36 916 42 867 q 14 965 31 965 l 14 972 l 139 972 l 139 444 q 186 588 154 528 q 257 680 218 649 q 331 711 296 711 q 391 678 367 711 q 417 583 415 646 l 417 157 q 422 56 417 106 q 444 7 428 7 l 444 0 l 292 0 l 292 7 q 314 56 308 7 q 319 157 319 106 l 319 569 q 307 612 319 596 q 274 628 294 628 q 213 592 244 628 q 160 481 182 557 q 139 290 139 404 l 139 157 q 144 56 139 106 q 167 7 150 7 l 167 0 l 14 0 l 14 7 z "},"i":{"ha":181,"x_min":4,"x_max":167,"o":"m 14 7 q 36 56 31 7 q 42 157 42 106 l 42 538 q 36 638 42 589 q 14 688 31 688 l 14 694 l 104 694 q 128 699 119 694 q 136 713 136 704 q 122 734 136 724 q 85 744 107 744 l 79 744 q 26 767 49 744 q 4 819 4 789 q 26 873 4 851 q 79 894 49 894 q 133 873 111 894 q 154 819 154 851 q 146 735 154 793 q 141 694 143 714 q 139 658 139 675 l 139 157 q 144 56 139 106 q 167 7 150 7 l 167 0 l 14 0 l 14 7 z "},"ı":{"ha":181,"x_min":14,"x_max":167,"o":"m 14 7 q 36 56 31 7 q 42 157 42 106 l 42 538 q 36 638 42 589 q 14 688 31 688 l 14 694 l 139 694 l 139 157 q 144 56 139 106 q 167 7 150 7 l 167 0 l 14 0 l 14 7 z "},"í":{"ha":181,"x_min":14,"x_max":167,"o":"m 14 7 q 36 56 31 7 q 42 157 42 106 l 42 538 q 36 638 42 589 q 14 688 31 688 l 14 694 l 139 694 l 139 157 q 144 56 139 106 q 167 7 150 7 l 167 0 l 14 0 l 14 7 m 74 872 l 133 844 l 75 743 l 47 743 l 74 872 z "},"î":{"ha":181,"x_min":14,"x_max":167,"o":"m 14 7 q 36 56 31 7 q 42 157 42 106 l 42 538 q 36 638 42 589 q 14 688 31 688 l 14 694 l 139 694 l 139 157 q 144 56 139 106 q 167 7 150 7 l 167 0 l 14 0 l 14 7 m 15 769 l 76 857 l 104 857 l 165 769 l 111 739 l 90 807 l 69 739 l 15 769 z "},"ï":{"ha":181,"x_min":-8,"x_max":188,"o":"m 14 7 q 36 56 31 7 q 42 157 42 106 l 42 538 q 36 638 42 589 q 14 688 31 688 l 14 694 l 139 694 l 139 157 q 144 56 139 106 q 167 7 150 7 l 167 0 l 14 0 l 14 7 m 146 768 q 115 781 128 768 q 101 813 101 794 q 115 842 101 829 q 146 854 128 854 q 175 842 163 854 q 188 813 188 829 q 175 781 188 794 q 146 768 163 768 m 35 768 q 4 781 17 768 q -8 813 -8 794 q 4 842 -8 829 q 35 854 17 854 q 65 842 51 854 q 78 813 78 829 q 65 781 78 794 q 35 768 51 768 z "},"ì":{"ha":181,"x_min":14,"x_max":167,"o":"m 14 7 q 36 56 31 7 q 42 157 42 106 l 42 538 q 36 638 42 589 q 14 688 31 688 l 14 694 l 139 694 l 139 157 q 144 56 139 106 q 167 7 150 7 l 167 0 l 14 0 l 14 7 m 47 844 l 107 872 l 133 743 l 106 743 l 47 844 z "},"ī":{"ha":181,"x_min":-14,"x_max":194,"o":"m 14 7 q 36 56 31 7 q 42 157 42 106 l 42 538 q 36 638 42 589 q 14 688 31 688 l 14 694 l 139 694 l 139 157 q 144 56 139 106 q 167 7 150 7 l 167 0 l 14 0 l 14 7 m -14 831 l 194 831 l 194 775 l -14 775 l -14 831 z "},"į":{"ha":181,"x_min":14,"x_max":174,"o":"m 14 7 q 36 56 31 7 q 42 157 42 106 l 42 538 q 36 638 42 589 q 14 688 31 688 l 14 694 l 139 694 l 139 157 q 144 56 139 106 q 167 7 150 7 l 167 0 l 14 0 l 14 7 m 92 768 q 60 781 74 768 q 47 813 47 794 q 60 842 47 829 q 92 854 74 854 q 121 842 108 854 q 133 813 133 829 q 121 781 133 794 q 92 768 108 768 m 156 -156 q 94 -118 94 -156 q 156 0 94 -81 l 167 0 q 132 -78 132 -51 q 174 -110 132 -110 l 156 -156 z "},"ĩ":{"ha":181,"x_min":-10,"x_max":189,"o":"m 14 7 q 36 56 31 7 q 42 157 42 106 l 42 538 q 36 638 42 589 q 14 688 31 688 l 14 694 l 139 694 l 139 157 q 144 56 139 106 q 167 7 150 7 l 167 0 l 14 0 l 14 7 m 146 756 q 101 764 119 756 q 61 786 83 772 q 38 800 50 794 q 17 806 26 806 q -4 794 7 806 l -10 799 l 32 857 q 77 849 58 857 q 118 826 96 842 q 161 807 144 807 q 183 818 172 807 l 189 813 l 146 756 z "},"ĳ":{"ha":443,"x_min":4,"x_max":429,"o":"m 14 7 q 36 56 31 7 q 42 157 42 106 l 42 538 q 36 638 42 589 q 14 688 31 688 l 14 694 l 104 694 q 128 699 119 694 q 136 713 136 704 q 122 734 136 724 q 85 744 107 744 l 79 744 q 26 767 49 744 q 4 819 4 789 q 26 873 4 851 q 79 894 49 894 q 133 873 111 894 q 154 819 154 851 q 146 735 154 793 q 141 694 143 714 q 139 658 139 675 l 139 157 q 144 56 139 106 q 167 7 150 7 l 167 0 l 14 0 l 14 7 m 197 0 q 282 50 247 1 q 317 208 317 99 l 317 538 q 311 638 317 589 q 289 688 306 688 l 289 694 l 379 694 q 403 699 394 694 q 411 713 411 704 q 397 734 411 724 q 360 744 382 744 l 354 744 q 301 767 324 744 q 279 819 279 789 q 301 873 279 851 q 354 894 324 894 q 408 873 386 894 q 429 819 429 851 q 421 735 429 793 q 416 694 418 714 q 414 658 414 675 l 414 194 q 366 37 411 88 q 254 -14 321 -14 q 194 -4 222 -14 l 197 0 z "},"j":{"ha":263,"x_min":14,"x_max":249,"o":"m 17 0 q 101 50 67 1 q 136 208 136 99 l 136 538 q 131 638 136 589 q 108 688 125 688 l 108 694 l 199 694 q 222 699 214 694 q 231 713 231 704 q 216 734 231 724 q 179 744 201 744 l 174 744 q 121 767 143 744 q 99 819 99 789 q 121 873 99 851 q 174 894 143 894 q 227 873 206 894 q 249 819 249 851 q 240 735 249 793 q 235 694 238 714 q 233 658 233 675 l 233 194 q 185 37 231 88 q 74 -14 140 -14 q 14 -4 42 -14 l 17 0 z "},"ȷ":{"ha":247,"x_min":14,"x_max":233,"o":"m 17 0 q 101 50 67 1 q 136 208 136 99 l 136 538 q 131 638 136 589 q 108 688 125 688 l 108 694 l 233 694 l 233 194 q 185 37 231 88 q 74 -14 140 -14 q 14 -4 42 -14 l 17 0 z "},"k":{"ha":510,"x_min":14,"x_max":496,"o":"m 440 0 q 389 14 407 0 q 371 54 371 28 q 349 263 368 201 q 288 339 331 324 q 139 354 244 354 l 139 157 q 144 56 139 106 q 167 7 150 7 l 167 0 l 14 0 l 14 7 q 36 56 31 7 q 42 157 42 106 l 42 815 q 36 916 42 867 q 14 965 31 965 l 14 972 l 139 972 l 139 378 q 336 412 265 379 q 435 538 407 444 q 443 622 443 571 q 425 688 443 688 l 425 694 l 496 694 l 496 688 q 464 606 478 688 q 454 547 458 567 l 451 538 q 368 413 428 453 q 197 367 308 374 q 336 348 285 364 q 418 288 388 332 q 460 157 449 244 l 460 154 l 467 83 q 493 7 475 7 l 493 0 l 440 0 z "},"ķ":{"ha":510,"x_min":14,"x_max":496,"o":"m 440 0 q 389 14 407 0 q 371 54 371 28 q 349 263 368 201 q 288 339 331 324 q 139 354 244 354 l 139 157 q 144 56 139 106 q 167 7 150 7 l 167 0 l 14 0 l 14 7 q 36 56 31 7 q 42 157 42 106 l 42 815 q 36 916 42 867 q 14 965 31 965 l 14 972 l 139 972 l 139 378 q 336 412 265 379 q 435 538 407 444 q 443 622 443 571 q 425 688 443 688 l 425 694 l 496 694 l 496 688 q 464 606 478 688 q 454 547 458 567 l 451 538 q 368 413 428 453 q 197 367 308 374 q 336 348 285 364 q 418 288 388 332 q 460 157 449 244 l 460 154 l 467 83 q 493 7 475 7 l 493 0 l 440 0 m 239 -61 l 299 -89 l 240 -190 l 213 -190 l 239 -61 z "},"l":{"ha":181,"x_min":14,"x_max":167,"o":"m 14 7 q 36 56 31 7 q 42 157 42 106 l 42 815 q 36 916 42 867 q 14 965 31 965 l 14 972 l 139 972 l 139 157 q 144 56 139 106 q 167 7 150 7 l 167 0 l 14 0 l 14 7 z "},"ĺ":{"ha":181,"x_min":14,"x_max":167,"o":"m 14 7 q 36 56 31 7 q 42 157 42 106 l 42 815 q 36 916 42 867 q 14 965 31 965 l 14 972 l 139 972 l 139 157 q 144 56 139 106 q 167 7 150 7 l 167 0 l 14 0 l 14 7 m 74 1289 l 133 1261 l 75 1160 l 47 1160 l 74 1289 z "},"ľ":{"ha":181,"x_min":14,"x_max":267,"o":"m 14 7 q 36 56 31 7 q 42 157 42 106 l 42 815 q 36 916 42 867 q 14 965 31 965 l 14 972 l 139 972 l 139 157 q 144 56 139 106 q 167 7 150 7 l 167 0 l 14 0 l 14 7 m 207 854 l 267 826 l 208 725 l 181 725 l 207 854 z "},"ļ":{"ha":181,"x_min":14,"x_max":167,"o":"m 14 7 q 36 56 31 7 q 42 157 42 106 l 42 815 q 36 916 42 867 q 14 965 31 965 l 14 972 l 139 972 l 139 157 q 144 56 139 106 q 167 7 150 7 l 167 0 l 14 0 l 14 7 m 74 -307 l 133 -335 l 75 -436 l 47 -436 l 74 -307 z "},"ł":{"ha":181,"x_min":-40,"x_max":239,"o":"m 14 7 q 36 56 31 7 q 42 157 42 106 l 42 443 l -12 411 l -40 460 l 42 507 l 42 815 q 36 916 42 867 q 14 965 31 965 l 14 972 l 139 972 l 139 564 l 211 606 l 239 557 l 139 499 l 139 157 q 144 56 139 106 q 167 7 150 7 l 167 0 l 14 0 l 14 7 z "},"m":{"ha":736,"x_min":14,"x_max":722,"o":"m 14 7 q 36 56 31 7 q 42 157 42 106 l 42 538 q 36 638 42 589 q 14 688 31 688 l 14 694 l 139 694 l 139 444 q 186 588 154 528 q 257 680 218 649 q 331 711 296 711 q 391 678 367 711 q 417 583 415 646 l 417 444 q 464 588 432 528 q 535 680 496 649 q 608 711 574 711 q 669 678 644 711 q 694 583 693 646 l 694 157 q 700 56 694 106 q 722 7 706 7 l 722 0 l 569 0 l 569 7 q 592 56 586 7 q 597 157 597 106 l 597 569 q 585 612 597 596 q 551 628 572 628 q 491 592 522 628 q 438 481 460 557 q 417 290 417 404 l 417 157 q 422 56 417 106 q 444 7 428 7 l 444 0 l 292 0 l 292 7 q 314 56 308 7 q 319 157 319 106 l 319 569 q 307 612 319 596 q 274 628 294 628 q 213 592 244 628 q 160 481 182 557 q 139 290 139 404 l 139 157 q 144 56 139 106 q 167 7 150 7 l 167 0 l 14 0 l 14 7 z "},"n":{"ha":458,"x_min":14,"x_max":444,"o":"m 14 7 q 36 56 31 7 q 42 157 42 106 l 42 538 q 36 638 42 589 q 14 688 31 688 l 14 694 l 139 694 l 139 444 q 186 588 154 528 q 257 680 218 649 q 331 711 296 711 q 391 678 367 711 q 417 583 415 646 l 417 157 q 422 56 417 106 q 444 7 428 7 l 444 0 l 292 0 l 292 7 q 314 56 308 7 q 319 157 319 106 l 319 569 q 307 612 319 596 q 274 628 294 628 q 213 592 244 628 q 160 481 182 557 q 139 290 139 404 l 139 157 q 144 56 139 106 q 167 7 150 7 l 167 0 l 14 0 l 14 7 z "},"ń":{"ha":458,"x_min":14,"x_max":444,"o":"m 14 7 q 36 56 31 7 q 42 157 42 106 l 42 538 q 36 638 42 589 q 14 688 31 688 l 14 694 l 139 694 l 139 444 q 186 588 154 528 q 257 680 218 649 q 331 711 296 711 q 391 678 367 711 q 417 583 415 646 l 417 157 q 422 56 417 106 q 444 7 428 7 l 444 0 l 292 0 l 292 7 q 314 56 308 7 q 319 157 319 106 l 319 569 q 307 612 319 596 q 274 628 294 628 q 213 592 244 628 q 160 481 182 557 q 139 290 139 404 l 139 157 q 144 56 139 106 q 167 7 150 7 l 167 0 l 14 0 l 14 7 m 213 872 l 272 844 l 214 743 l 186 743 l 213 872 z "},"ň":{"ha":458,"x_min":14,"x_max":444,"o":"m 14 7 q 36 56 31 7 q 42 157 42 106 l 42 538 q 36 638 42 589 q 14 688 31 688 l 14 694 l 139 694 l 139 444 q 186 588 154 528 q 257 680 218 649 q 331 711 296 711 q 391 678 367 711 q 417 583 415 646 l 417 157 q 422 56 417 106 q 444 7 428 7 l 444 0 l 292 0 l 292 7 q 314 56 308 7 q 319 157 319 106 l 319 569 q 307 612 319 596 q 274 628 294 628 q 213 592 244 628 q 160 481 182 557 q 139 290 139 404 l 139 157 q 144 56 139 106 q 167 7 150 7 l 167 0 l 14 0 l 14 7 m 154 826 l 208 857 l 229 789 l 250 857 l 304 826 l 243 739 l 215 739 l 154 826 z "},"ņ":{"ha":458,"x_min":14,"x_max":444,"o":"m 14 7 q 36 56 31 7 q 42 157 42 106 l 42 538 q 36 638 42 589 q 14 688 31 688 l 14 694 l 139 694 l 139 444 q 186 588 154 528 q 257 680 218 649 q 331 711 296 711 q 391 678 367 711 q 417 583 415 646 l 417 157 q 422 56 417 106 q 444 7 428 7 l 444 0 l 292 0 l 292 7 q 314 56 308 7 q 319 157 319 106 l 319 569 q 307 612 319 596 q 274 628 294 628 q 213 592 244 628 q 160 481 182 557 q 139 290 139 404 l 139 157 q 144 56 139 106 q 167 7 150 7 l 167 0 l 14 0 l 14 7 m 213 -61 l 272 -89 l 214 -190 l 186 -190 l 213 -61 z "},"ñ":{"ha":458,"x_min":14,"x_max":444,"o":"m 14 7 q 36 56 31 7 q 42 157 42 106 l 42 538 q 36 638 42 589 q 14 688 31 688 l 14 694 l 139 694 l 139 444 q 186 588 154 528 q 257 680 218 649 q 331 711 296 711 q 391 678 367 711 q 417 583 415 646 l 417 157 q 422 56 417 106 q 444 7 428 7 l 444 0 l 292 0 l 292 7 q 314 56 308 7 q 319 157 319 106 l 319 569 q 307 612 319 596 q 274 628 294 628 q 213 592 244 628 q 160 481 182 557 q 139 290 139 404 l 139 157 q 144 56 139 106 q 167 7 150 7 l 167 0 l 14 0 l 14 7 m 285 756 q 240 764 258 756 q 200 786 222 772 q 177 800 189 794 q 156 806 165 806 q 135 794 146 806 l 129 799 l 171 857 q 216 849 197 857 q 257 826 235 842 q 300 807 283 807 q 322 818 311 807 l 328 813 l 285 756 z "},"o":{"ha":600,"x_min":14,"x_max":586,"o":"m 318 -10 q 440 119 399 25 q 482 347 482 214 q 458 521 482 442 q 392 647 433 600 q 300 693 350 693 q 217 656 256 693 q 154 556 179 619 q 132 444 132 497 q 172 314 132 371 q 278 210 213 257 q 338 150 313 185 q 364 85 364 115 q 342 17 364 43 q 283 -10 319 -10 q 104 72 164 -10 q 29 234 44 154 q 14 347 14 314 q 52 526 14 443 q 156 656 90 608 q 300 704 222 704 q 444 656 378 704 q 548 526 510 608 q 586 347 586 443 q 550 175 586 254 q 453 47 514 96 q 318 -10 392 -3 m 118 344 q 141 178 119 258 q 200 49 163 99 q 283 0 238 0 q 332 23 314 0 q 350 85 350 46 q 325 147 350 114 q 267 203 300 179 q 181 269 218 236 q 118 344 143 303 z "},"ó":{"ha":600,"x_min":14,"x_max":586,"o":"m 318 -10 q 440 119 399 25 q 482 347 482 214 q 458 521 482 442 q 392 647 433 600 q 300 693 350 693 q 217 656 256 693 q 154 556 179 619 q 132 444 132 497 q 172 314 132 371 q 278 210 213 257 q 338 150 313 185 q 364 85 364 115 q 342 17 364 43 q 283 -10 319 -10 q 104 72 164 -10 q 29 234 44 154 q 14 347 14 314 q 52 526 14 443 q 156 656 90 608 q 300 704 222 704 q 444 656 378 704 q 548 526 510 608 q 586 347 586 443 q 550 175 586 254 q 453 47 514 96 q 318 -10 392 -3 m 118 344 q 141 178 119 258 q 200 49 163 99 q 283 0 238 0 q 332 23 314 0 q 350 85 350 46 q 325 147 350 114 q 267 203 300 179 q 181 269 218 236 q 118 344 143 303 m 283 871 l 343 843 l 285 742 l 257 742 l 283 871 z "},"ô":{"ha":600,"x_min":14,"x_max":586,"o":"m 318 -10 q 440 119 399 25 q 482 347 482 214 q 458 521 482 442 q 392 647 433 600 q 300 693 350 693 q 217 656 256 693 q 154 556 179 619 q 132 444 132 497 q 172 314 132 371 q 278 210 213 257 q 338 150 313 185 q 364 85 364 115 q 342 17 364 43 q 283 -10 319 -10 q 104 72 164 -10 q 29 234 44 154 q 14 347 14 314 q 52 526 14 443 q 156 656 90 608 q 300 704 222 704 q 444 656 378 704 q 548 526 510 608 q 586 347 586 443 q 550 175 586 254 q 453 47 514 96 q 318 -10 392 -3 m 118 344 q 141 178 119 258 q 200 49 163 99 q 283 0 238 0 q 332 23 314 0 q 350 85 350 46 q 325 147 350 114 q 267 203 300 179 q 181 269 218 236 q 118 344 143 303 m 225 768 l 286 856 l 314 856 l 375 768 l 321 738 l 300 806 l 279 738 l 225 768 z "},"ö":{"ha":600,"x_min":14,"x_max":586,"o":"m 318 -10 q 440 119 399 25 q 482 347 482 214 q 458 521 482 442 q 392 647 433 600 q 300 693 350 693 q 217 656 256 693 q 154 556 179 619 q 132 444 132 497 q 172 314 132 371 q 278 210 213 257 q 338 150 313 185 q 364 85 364 115 q 342 17 364 43 q 283 -10 319 -10 q 104 72 164 -10 q 29 234 44 154 q 14 347 14 314 q 52 526 14 443 q 156 656 90 608 q 300 704 222 704 q 444 656 378 704 q 548 526 510 608 q 586 347 586 443 q 550 175 586 254 q 453 47 514 96 q 318 -10 392 -3 m 118 344 q 141 178 119 258 q 200 49 163 99 q 283 0 238 0 q 332 23 314 0 q 350 85 350 46 q 325 147 350 114 q 267 203 300 179 q 181 269 218 236 q 118 344 143 303 m 356 767 q 324 780 338 767 q 311 811 311 793 q 324 840 311 828 q 356 853 338 853 q 385 840 372 853 q 397 811 397 828 q 385 780 397 793 q 356 767 372 767 m 244 767 q 214 780 226 767 q 201 811 201 793 q 214 840 201 828 q 244 853 226 853 q 274 840 261 853 q 288 811 288 828 q 274 780 288 793 q 244 767 261 767 z "},"ò":{"ha":600,"x_min":14,"x_max":586,"o":"m 318 -10 q 440 119 399 25 q 482 347 482 214 q 458 521 482 442 q 392 647 433 600 q 300 693 350 693 q 217 656 256 693 q 154 556 179 619 q 132 444 132 497 q 172 314 132 371 q 278 210 213 257 q 338 150 313 185 q 364 85 364 115 q 342 17 364 43 q 283 -10 319 -10 q 104 72 164 -10 q 29 234 44 154 q 14 347 14 314 q 52 526 14 443 q 156 656 90 608 q 300 704 222 704 q 444 656 378 704 q 548 526 510 608 q 586 347 586 443 q 550 175 586 254 q 453 47 514 96 q 318 -10 392 -3 m 118 344 q 141 178 119 258 q 200 49 163 99 q 283 0 238 0 q 332 23 314 0 q 350 85 350 46 q 325 147 350 114 q 267 203 300 179 q 181 269 218 236 q 118 344 143 303 m 257 843 l 317 871 l 343 742 l 315 742 l 257 843 z "},"ő":{"ha":600,"x_min":14,"x_max":586,"o":"m 318 -10 q 440 119 399 25 q 482 347 482 214 q 458 521 482 442 q 392 647 433 600 q 300 693 350 693 q 217 656 256 693 q 154 556 179 619 q 132 444 132 497 q 172 314 132 371 q 278 210 213 257 q 338 150 313 185 q 364 85 364 115 q 342 17 364 43 q 283 -10 319 -10 q 104 72 164 -10 q 29 234 44 154 q 14 347 14 314 q 52 526 14 443 q 156 656 90 608 q 300 704 222 704 q 444 656 378 704 q 548 526 510 608 q 586 347 586 443 q 550 175 586 254 q 453 47 514 96 q 318 -10 392 -3 m 118 344 q 141 178 119 258 q 200 49 163 99 q 283 0 238 0 q 332 23 314 0 q 350 85 350 46 q 325 147 350 114 q 267 203 300 179 q 181 269 218 236 q 118 344 143 303 m 322 875 l 382 847 l 324 746 l 296 746 l 322 875 m 244 875 l 304 847 l 246 746 l 218 746 l 244 875 z "},"ō":{"ha":600,"x_min":14,"x_max":586,"o":"m 318 -10 q 440 119 399 25 q 482 347 482 214 q 458 521 482 442 q 392 647 433 600 q 300 693 350 693 q 217 656 256 693 q 154 556 179 619 q 132 444 132 497 q 172 314 132 371 q 278 210 213 257 q 338 150 313 185 q 364 85 364 115 q 342 17 364 43 q 283 -10 319 -10 q 104 72 164 -10 q 29 234 44 154 q 14 347 14 314 q 52 526 14 443 q 156 656 90 608 q 300 704 222 704 q 444 656 378 704 q 548 526 510 608 q 586 347 586 443 q 550 175 586 254 q 453 47 514 96 q 318 -10 392 -3 m 118 344 q 141 178 119 258 q 200 49 163 99 q 283 0 238 0 q 332 23 314 0 q 350 85 350 46 q 325 147 350 114 q 267 203 300 179 q 181 269 218 236 q 118 344 143 303 m 196 829 l 404 829 l 404 774 l 196 774 l 196 829 z "},"ø":{"ha":600,"x_min":14,"x_max":586,"o":"m 92 89 q 28 235 43 156 q 14 347 14 315 q 52 526 14 443 q 156 656 90 608 q 300 704 222 704 q 467 638 392 704 l 519 715 l 578 715 l 500 601 q 563 486 540 553 q 586 347 586 419 q 550 175 586 254 q 453 47 514 96 q 318 -10 392 -3 q 440 119 399 25 q 482 347 482 214 q 453 533 482 446 l 247 232 l 278 210 q 338 150 313 185 q 364 85 364 115 q 342 17 364 43 q 283 -10 319 -10 q 124 51 189 -10 l 74 -22 l 15 -22 l 92 89 m 118 344 q 143 165 118 254 l 201 251 q 118 344 146 300 m 154 556 q 132 446 132 497 q 211 265 132 344 l 432 586 q 372 665 407 636 q 300 693 338 693 q 217 656 256 693 q 154 556 179 619 m 164 110 q 217 29 186 58 q 283 0 249 0 q 332 23 314 0 q 350 85 350 46 q 325 147 350 114 q 267 203 300 179 l 240 221 l 164 110 z "},"õ":{"ha":600,"x_min":14,"x_max":586,"o":"m 318 -10 q 440 119 399 25 q 482 347 482 214 q 458 521 482 442 q 392 647 433 600 q 300 693 350 693 q 217 656 256 693 q 154 556 179 619 q 132 444 132 497 q 172 314 132 371 q 278 210 213 257 q 338 150 313 185 q 364 85 364 115 q 342 17 364 43 q 283 -10 319 -10 q 104 72 164 -10 q 29 234 44 154 q 14 347 14 314 q 52 526 14 443 q 156 656 90 608 q 300 704 222 704 q 444 656 378 704 q 548 526 510 608 q 586 347 586 443 q 550 175 586 254 q 453 47 514 96 q 318 -10 392 -3 m 118 344 q 141 178 119 258 q 200 49 163 99 q 283 0 238 0 q 332 23 314 0 q 350 85 350 46 q 325 147 350 114 q 267 203 300 179 q 181 269 218 236 q 118 344 143 303 m 356 754 q 311 763 329 754 q 271 785 293 771 q 248 799 260 793 q 226 804 236 804 q 206 793 217 804 l 200 797 l 242 856 q 287 848 268 856 q 328 825 306 840 q 371 806 354 806 q 393 817 382 806 l 399 811 l 356 754 z "},"œ":{"ha":1013,"x_min":14,"x_max":999,"o":"m 318 -10 q 436 109 394 22 q 482 319 478 196 l 481 347 l 482 375 q 453 535 478 463 q 388 651 428 608 q 300 693 347 693 q 217 656 256 693 q 154 556 179 619 q 132 444 132 497 q 172 314 132 371 q 278 210 213 257 q 338 150 313 185 q 364 85 364 115 q 342 17 364 43 q 283 -10 319 -10 q 104 72 164 -10 q 29 234 44 154 q 14 347 14 314 q 52 526 14 443 q 156 656 90 608 q 300 704 222 704 q 432 664 371 704 q 533 554 493 624 q 638 667 574 625 q 776 708 701 708 q 878 687 826 708 q 964 622 929 665 q 999 515 999 578 q 970 419 999 464 q 901 341 942 375 q 797 263 861 307 q 681 169 718 206 q 644 90 644 133 q 701 24 669 47 q 767 0 732 0 q 834 24 803 0 q 885 90 865 47 q 904 188 904 133 l 999 188 q 965 85 999 132 q 877 13 931 39 q 767 -14 824 -14 q 634 28 696 -14 q 532 140 572 69 q 439 36 494 76 q 318 -10 383 -4 m 118 344 q 141 178 119 258 q 200 49 163 99 q 283 0 238 0 q 332 23 314 0 q 350 85 350 46 q 325 147 350 114 q 267 203 300 179 q 181 269 218 236 q 118 344 143 303 m 585 319 q 632 113 592 199 q 668 185 639 151 q 754 271 697 219 q 868 392 829 339 q 907 515 907 444 q 867 651 907 607 q 776 694 828 694 q 641 605 692 694 q 585 375 590 515 l 586 347 l 585 319 z "},"p":{"ha":447,"x_min":14,"x_max":433,"o":"m 14 -271 q 36 -222 31 -271 q 42 -121 42 -172 l 42 538 q 36 638 42 589 q 14 688 31 688 l 14 694 l 139 694 q 347 605 260 693 q 433 293 433 517 q 414 158 433 206 q 366 92 394 111 q 289 54 338 72 q 214 18 242 36 q 165 -44 186 0 q 140 -165 144 -87 q 167 -271 143 -271 l 167 -278 l 14 -278 l 14 -271 m 139 -67 q 174 5 151 -18 q 232 50 196 28 q 287 93 267 72 q 322 161 307 114 q 336 293 336 208 q 312 531 336 446 q 245 647 288 615 q 139 681 203 679 l 139 -67 z "},"þ":{"ha":447,"x_min":14,"x_max":433,"o":"m 14 -243 q 36 -194 31 -243 q 42 -93 42 -144 l 42 815 q 36 916 42 867 q 14 965 31 965 l 14 972 l 167 972 l 167 965 q 144 916 150 965 q 139 815 139 867 l 139 792 q 347 702 260 790 q 433 390 433 614 q 414 256 433 303 q 366 188 394 208 q 289 150 338 168 q 210 112 240 132 q 160 42 181 92 q 139 -99 139 -8 q 144 -197 139 -150 q 167 -243 150 -243 l 167 -250 l 14 -250 l 14 -243 m 139 31 q 174 102 151 79 q 232 147 196 125 q 287 190 267 169 q 322 258 307 211 q 336 390 336 306 q 312 628 336 543 q 245 744 288 713 q 139 778 203 776 l 139 31 z "},"q":{"ha":447,"x_min":14,"x_max":433,"o":"m 281 -271 q 307 -165 304 -271 q 282 -44 303 -87 q 233 18 261 0 q 158 54 206 36 q 81 92 110 72 q 33 158 53 111 q 14 293 14 206 q 101 605 14 517 q 308 694 188 693 l 406 694 l 406 -121 q 411 -222 406 -172 q 433 -271 417 -271 l 433 -278 l 281 -278 l 281 -271 m 111 293 q 126 161 111 208 q 160 93 140 114 q 215 50 181 72 q 274 5 251 28 q 308 -67 296 -18 l 308 681 q 202 647 244 679 q 135 531 160 615 q 111 293 111 446 z "},"r":{"ha":431,"x_min":14,"x_max":417,"o":"m 14 7 q 36 56 31 7 q 42 157 42 106 l 42 538 q 36 638 42 589 q 14 688 31 688 l 14 694 l 139 694 l 139 444 q 188 588 156 528 q 258 680 219 649 q 331 711 296 711 q 393 675 369 711 q 417 569 417 639 l 328 469 l 319 469 q 297 548 318 518 q 247 578 275 578 q 196 548 221 578 q 155 453 171 518 q 139 290 139 389 l 139 157 q 144 56 139 106 q 167 7 150 7 l 167 0 l 14 0 l 14 7 z "},"ŕ":{"ha":431,"x_min":14,"x_max":417,"o":"m 14 7 q 36 56 31 7 q 42 157 42 106 l 42 538 q 36 638 42 589 q 14 688 31 688 l 14 694 l 139 694 l 139 444 q 188 588 156 528 q 258 680 219 649 q 331 711 296 711 q 393 675 369 711 q 417 569 417 639 l 328 469 l 319 469 q 297 548 318 518 q 247 578 275 578 q 196 548 221 578 q 155 453 171 518 q 139 290 139 389 l 139 157 q 144 56 139 106 q 167 7 150 7 l 167 0 l 14 0 l 14 7 m 199 872 l 258 844 l 200 743 l 172 743 l 199 872 z "},"ř":{"ha":431,"x_min":14,"x_max":417,"o":"m 14 7 q 36 56 31 7 q 42 157 42 106 l 42 538 q 36 638 42 589 q 14 688 31 688 l 14 694 l 139 694 l 139 444 q 188 588 156 528 q 258 680 219 649 q 331 711 296 711 q 393 675 369 711 q 417 569 417 639 l 328 469 l 319 469 q 297 548 318 518 q 247 578 275 578 q 196 548 221 578 q 155 453 171 518 q 139 290 139 389 l 139 157 q 144 56 139 106 q 167 7 150 7 l 167 0 l 14 0 l 14 7 m 140 826 l 194 857 l 215 789 l 236 857 l 290 826 l 229 739 l 201 739 l 140 826 z "},"ŗ":{"ha":431,"x_min":14,"x_max":417,"o":"m 14 7 q 36 56 31 7 q 42 157 42 106 l 42 538 q 36 638 42 589 q 14 688 31 688 l 14 694 l 139 694 l 139 444 q 188 588 156 528 q 258 680 219 649 q 331 711 296 711 q 393 675 369 711 q 417 569 417 639 l 328 469 l 319 469 q 297 548 318 518 q 247 578 275 578 q 196 548 221 578 q 155 453 171 518 q 139 290 139 389 l 139 157 q 144 56 139 106 q 167 7 150 7 l 167 0 l 14 0 l 14 7 m 199 -54 l 258 -82 l 200 -183 l 172 -183 l 199 -54 z "},"s":{"ha":532,"x_min":14,"x_max":518,"o":"m 272 -14 q 144 12 203 -14 q 49 83 85 38 q 14 185 14 128 l 108 185 q 153 51 108 101 q 272 0 199 0 q 376 44 347 0 q 404 153 404 89 q 359 251 404 210 q 225 344 314 292 q 94 438 138 397 q 50 532 50 478 q 111 658 50 611 q 272 706 172 706 q 393 681 339 706 q 465 661 432 661 q 500 694 500 661 l 504 694 l 504 425 l 500 425 q 474 538 500 485 q 413 632 449 592 q 272 692 353 692 q 174 655 207 692 q 142 567 142 618 q 180 498 142 529 q 299 421 218 467 q 413 350 369 381 q 488 278 457 319 q 518 188 518 238 q 489 86 518 132 q 404 13 460 40 q 272 -14 349 -14 z "},"ś":{"ha":532,"x_min":14,"x_max":518,"o":"m 272 -14 q 144 12 203 -14 q 49 83 85 38 q 14 185 14 128 l 108 185 q 153 51 108 101 q 272 0 199 0 q 376 44 347 0 q 404 153 404 89 q 359 251 404 210 q 225 344 314 292 q 94 438 138 397 q 50 532 50 478 q 111 658 50 611 q 272 706 172 706 q 393 681 339 706 q 465 661 432 661 q 500 694 500 661 l 504 694 l 504 425 l 500 425 q 474 538 500 485 q 413 632 449 592 q 272 692 353 692 q 174 655 207 692 q 142 567 142 618 q 180 498 142 529 q 299 421 218 467 q 413 350 369 381 q 488 278 457 319 q 518 188 518 238 q 489 86 518 132 q 404 13 460 40 q 272 -14 349 -14 m 250 872 l 310 844 l 251 743 l 224 743 l 250 872 z "},"š":{"ha":532,"x_min":14,"x_max":518,"o":"m 272 -14 q 144 12 203 -14 q 49 83 85 38 q 14 185 14 128 l 108 185 q 153 51 108 101 q 272 0 199 0 q 376 44 347 0 q 404 153 404 89 q 359 251 404 210 q 225 344 314 292 q 94 438 138 397 q 50 532 50 478 q 111 658 50 611 q 272 706 172 706 q 393 681 339 706 q 465 661 432 661 q 500 694 500 661 l 504 694 l 504 425 l 500 425 q 474 538 500 485 q 413 632 449 592 q 272 692 353 692 q 174 655 207 692 q 142 567 142 618 q 180 498 142 529 q 299 421 218 467 q 413 350 369 381 q 488 278 457 319 q 518 188 518 238 q 489 86 518 132 q 404 13 460 40 q 272 -14 349 -14 m 192 826 l 246 857 l 267 789 l 288 857 l 342 826 l 281 739 l 253 739 l 192 826 z "},"ş":{"ha":532,"x_min":14,"x_max":518,"o":"m 500 425 q 474 538 500 485 q 413 632 449 592 q 272 692 353 692 q 174 655 207 692 q 142 567 142 618 q 180 498 142 529 q 299 421 218 467 q 413 350 369 381 q 488 278 457 319 q 518 188 518 238 q 455 47 518 104 q 282 -14 392 -11 l 272 -47 q 312 -65 297 -50 q 326 -100 326 -79 q 305 -142 326 -124 q 244 -161 283 -161 l 244 -157 q 278 -142 265 -157 q 292 -111 292 -128 q 283 -90 292 -99 q 258 -81 274 -81 l 246 -81 l 265 -14 q 140 13 197 -12 q 48 84 82 39 q 14 185 14 129 l 108 185 q 153 51 108 101 q 272 0 199 0 q 376 44 347 0 q 404 153 404 89 q 359 251 404 210 q 225 344 314 292 q 94 438 138 397 q 50 532 50 478 q 111 658 50 611 q 272 706 172 706 q 393 681 339 706 q 465 661 432 661 q 500 694 500 661 l 504 694 l 504 425 l 500 425 z "},"ș":{"ha":532,"x_min":14,"x_max":518,"o":"m 272 -14 q 144 12 203 -14 q 49 83 85 38 q 14 185 14 128 l 108 185 q 153 51 108 101 q 272 0 199 0 q 376 44 347 0 q 404 153 404 89 q 359 251 404 210 q 225 344 314 292 q 94 438 138 397 q 50 532 50 478 q 111 658 50 611 q 272 706 172 706 q 393 681 339 706 q 465 661 432 661 q 500 694 500 661 l 504 694 l 504 425 l 500 425 q 474 538 500 485 q 413 632 449 592 q 272 692 353 692 q 174 655 207 692 q 142 567 142 618 q 180 498 142 529 q 299 421 218 467 q 413 350 369 381 q 488 278 457 319 q 518 188 518 238 q 489 86 518 132 q 404 13 460 40 q 272 -14 349 -14 m 269 -74 l 329 -101 l 271 -203 l 243 -203 l 269 -74 z "},"ß":{"ha":488,"x_min":14,"x_max":474,"o":"m 42 903 q 60 954 42 936 q 111 972 78 972 l 354 972 q 406 956 388 972 q 424 910 424 940 l 193 672 q 393 595 313 668 q 474 319 474 522 q 432 135 474 210 q 329 25 390 61 q 206 -14 268 -11 l 206 0 q 283 38 244 4 q 348 133 322 71 q 374 283 374 196 q 351 531 374 450 q 289 635 329 611 q 176 658 249 658 l 176 672 l 375 875 l 208 875 q 157 857 175 875 q 139 806 139 839 l 139 0 l 14 0 l 14 7 q 36 56 31 7 q 42 157 42 106 l 42 903 z "},"t":{"ha":275,"x_min":14,"x_max":261,"o":"m 261 -4 q 201 -14 233 -14 q 90 37 135 -14 q 42 194 44 88 l 42 510 q 14 651 39 651 l 14 658 l 129 818 l 139 818 l 139 665 l 235 665 l 235 461 l 229 461 q 208 583 229 540 q 139 643 186 626 l 139 208 q 174 50 139 99 q 258 0 208 1 l 261 -4 z "},"ť":{"ha":275,"x_min":14,"x_max":317,"o":"m 261 -4 q 201 -14 233 -14 q 90 37 135 -14 q 42 194 44 88 l 42 510 q 14 651 39 651 l 14 658 l 129 818 l 139 818 l 139 665 l 235 665 l 235 461 l 229 461 q 208 583 229 540 q 139 643 186 626 l 139 208 q 174 50 139 99 q 258 0 208 1 l 261 -4 m 257 854 l 317 826 l 258 725 l 231 725 l 257 854 z "},"ţ":{"ha":275,"x_min":14,"x_max":261,"o":"m 261 -4 q 200 -14 228 -14 q 154 -7 174 -14 l 147 -32 q 187 -49 172 -35 q 201 -85 201 -64 q 180 -127 201 -108 q 119 -146 158 -146 l 119 -142 q 153 -127 140 -142 q 167 -96 167 -112 q 158 -74 167 -83 q 133 -65 149 -65 l 121 -65 l 139 -1 q 69 66 96 18 q 42 194 43 114 l 42 510 q 14 651 39 651 l 14 658 l 129 818 l 139 818 l 139 665 l 235 665 l 235 461 l 229 461 q 208 583 229 540 q 139 643 186 626 l 139 208 q 174 50 139 99 q 258 0 208 1 l 261 -4 z "},"ț":{"ha":275,"x_min":14,"x_max":261,"o":"m 261 -4 q 201 -14 233 -14 q 90 37 135 -14 q 42 194 44 88 l 42 510 q 14 651 39 651 l 14 658 l 129 818 l 139 818 l 139 665 l 235 665 l 235 461 l 229 461 q 208 583 229 540 q 139 643 186 626 l 139 208 q 174 50 139 99 q 258 0 208 1 l 261 -4 m 144 -58 l 204 -86 l 146 -187 l 118 -187 l 144 -58 z "},"u":{"ha":458,"x_min":14,"x_max":444,"o":"m 139 125 q 151 83 139 99 q 185 67 164 67 q 245 102 214 67 q 298 214 276 138 q 319 404 319 290 l 319 538 q 314 638 319 589 q 292 688 308 688 l 292 694 l 417 694 l 417 157 q 422 56 417 106 q 444 7 428 7 l 444 0 l 319 0 l 319 250 q 272 106 304 167 q 201 15 240 46 q 128 -17 163 -17 q 67 16 92 -17 q 42 111 43 49 l 42 538 q 36 638 42 589 q 14 688 31 688 l 14 694 l 139 694 l 139 125 z "},"ú":{"ha":458,"x_min":14,"x_max":444,"o":"m 139 125 q 151 83 139 99 q 185 67 164 67 q 245 102 214 67 q 298 214 276 138 q 319 404 319 290 l 319 538 q 314 638 319 589 q 292 688 308 688 l 292 694 l 417 694 l 417 157 q 422 56 417 106 q 444 7 428 7 l 444 0 l 319 0 l 319 250 q 272 106 304 167 q 201 15 240 46 q 128 -17 163 -17 q 67 16 92 -17 q 42 111 43 49 l 42 538 q 36 638 42 589 q 14 688 31 688 l 14 694 l 139 694 l 139 125 m 213 872 l 272 844 l 214 743 l 186 743 l 213 872 z "},"û":{"ha":458,"x_min":14,"x_max":444,"o":"m 139 125 q 151 83 139 99 q 185 67 164 67 q 245 102 214 67 q 298 214 276 138 q 319 404 319 290 l 319 538 q 314 638 319 589 q 292 688 308 688 l 292 694 l 417 694 l 417 157 q 422 56 417 106 q 444 7 428 7 l 444 0 l 319 0 l 319 250 q 272 106 304 167 q 201 15 240 46 q 128 -17 163 -17 q 67 16 92 -17 q 42 111 43 49 l 42 538 q 36 638 42 589 q 14 688 31 688 l 14 694 l 139 694 l 139 125 m 154 769 l 215 857 l 243 857 l 304 769 l 250 739 l 229 807 l 208 739 l 154 769 z "},"ü":{"ha":458,"x_min":14,"x_max":444,"o":"m 139 125 q 151 83 139 99 q 185 67 164 67 q 245 102 214 67 q 298 214 276 138 q 319 404 319 290 l 319 538 q 314 638 319 589 q 292 688 308 688 l 292 694 l 417 694 l 417 157 q 422 56 417 106 q 444 7 428 7 l 444 0 l 319 0 l 319 250 q 272 106 304 167 q 201 15 240 46 q 128 -17 163 -17 q 67 16 92 -17 q 42 111 43 49 l 42 538 q 36 638 42 589 q 14 688 31 688 l 14 694 l 139 694 l 139 125 m 285 768 q 253 781 267 768 q 240 813 240 794 q 253 842 240 829 q 285 854 267 854 q 314 842 301 854 q 326 813 326 829 q 314 781 326 794 q 285 768 301 768 m 174 768 q 143 781 156 768 q 131 813 131 794 q 143 842 131 829 q 174 854 156 854 q 203 842 190 854 q 217 813 217 829 q 203 781 217 794 q 174 768 190 768 z "},"ù":{"ha":458,"x_min":14,"x_max":444,"o":"m 139 125 q 151 83 139 99 q 185 67 164 67 q 245 102 214 67 q 298 214 276 138 q 319 404 319 290 l 319 538 q 314 638 319 589 q 292 688 308 688 l 292 694 l 417 694 l 417 157 q 422 56 417 106 q 444 7 428 7 l 444 0 l 319 0 l 319 250 q 272 106 304 167 q 201 15 240 46 q 128 -17 163 -17 q 67 16 92 -17 q 42 111 43 49 l 42 538 q 36 638 42 589 q 14 688 31 688 l 14 694 l 139 694 l 139 125 m 186 844 l 246 872 l 272 743 l 244 743 l 186 844 z "},"ű":{"ha":458,"x_min":14,"x_max":444,"o":"m 139 125 q 151 83 139 99 q 185 67 164 67 q 245 102 214 67 q 298 214 276 138 q 319 404 319 290 l 319 538 q 314 638 319 589 q 292 688 308 688 l 292 694 l 417 694 l 417 157 q 422 56 417 106 q 444 7 428 7 l 444 0 l 319 0 l 319 250 q 272 106 304 167 q 201 15 240 46 q 128 -17 163 -17 q 67 16 92 -17 q 42 111 43 49 l 42 538 q 36 638 42 589 q 14 688 31 688 l 14 694 l 139 694 l 139 125 m 251 876 l 311 849 l 253 747 l 225 747 l 251 876 m 174 876 l 233 849 l 175 747 l 147 747 l 174 876 z "},"ū":{"ha":458,"x_min":14,"x_max":444,"o":"m 139 125 q 151 83 139 99 q 185 67 164 67 q 245 102 214 67 q 298 214 276 138 q 319 404 319 290 l 319 538 q 314 638 319 589 q 292 688 308 688 l 292 694 l 417 694 l 417 157 q 422 56 417 106 q 444 7 428 7 l 444 0 l 319 0 l 319 250 q 272 106 304 167 q 201 15 240 46 q 128 -17 163 -17 q 67 16 92 -17 q 42 111 43 49 l 42 538 q 36 638 42 589 q 14 688 31 688 l 14 694 l 139 694 l 139 125 m 125 831 l 333 831 l 333 775 l 125 775 l 125 831 z "},"ų":{"ha":458,"x_min":14,"x_max":451,"o":"m 139 125 q 151 83 139 99 q 185 67 164 67 q 245 102 214 67 q 298 214 276 138 q 319 404 319 290 l 319 538 q 314 638 319 589 q 292 688 308 688 l 292 694 l 417 694 l 417 157 q 422 56 417 106 q 444 7 428 7 l 444 0 q 410 -78 410 -51 q 451 -110 410 -110 l 433 -156 q 372 -118 372 -156 q 433 0 372 -81 l 319 0 l 319 250 q 272 106 304 167 q 201 15 240 46 q 128 -17 163 -17 q 67 16 92 -17 q 42 111 43 49 l 42 538 q 36 638 42 589 q 14 688 31 688 l 14 694 l 139 694 l 139 125 z "},"ů":{"ha":458,"x_min":14,"x_max":444,"o":"m 139 125 q 151 83 139 99 q 185 67 164 67 q 245 102 214 67 q 298 214 276 138 q 319 404 319 290 l 319 538 q 314 638 319 589 q 292 688 308 688 l 292 694 l 417 694 l 417 157 q 422 56 417 106 q 444 7 428 7 l 444 0 l 319 0 l 319 250 q 272 106 304 167 q 201 15 240 46 q 128 -17 163 -17 q 67 16 92 -17 q 42 111 43 49 l 42 538 q 36 638 42 589 q 14 688 31 688 l 14 694 l 139 694 l 139 125 m 228 739 q 183 758 201 739 q 164 803 164 776 q 183 849 164 829 q 228 868 201 868 q 274 849 256 868 q 293 803 293 831 q 274 758 293 776 q 228 739 254 739 m 228 765 q 256 776 244 765 q 267 803 267 788 q 256 831 267 819 q 228 842 244 842 q 201 831 213 842 q 190 803 190 819 q 201 776 190 788 q 228 765 213 765 z "},"ũ":{"ha":458,"x_min":14,"x_max":444,"o":"m 139 125 q 151 83 139 99 q 185 67 164 67 q 245 102 214 67 q 298 214 276 138 q 319 404 319 290 l 319 538 q 314 638 319 589 q 292 688 308 688 l 292 694 l 417 694 l 417 157 q 422 56 417 106 q 444 7 428 7 l 444 0 l 319 0 l 319 250 q 272 106 304 167 q 201 15 240 46 q 128 -17 163 -17 q 67 16 92 -17 q 42 111 43 49 l 42 538 q 36 638 42 589 q 14 688 31 688 l 14 694 l 139 694 l 139 125 m 285 756 q 240 764 258 756 q 200 786 222 772 q 177 800 189 794 q 156 806 165 806 q 135 794 146 806 l 129 799 l 171 857 q 216 849 197 857 q 257 826 235 842 q 300 807 283 807 q 322 818 311 807 l 328 813 l 285 756 z "},"v":{"ha":478,"x_min":14,"x_max":468,"o":"m 81 538 q 14 688 43 688 l 14 694 l 146 694 l 299 82 q 319 208 301 146 q 374 368 338 271 q 406 456 389 411 q 431 538 422 501 q 442 626 442 590 q 435 671 442 654 q 418 688 429 688 l 418 694 l 464 694 q 449 550 468 622 q 389 369 429 478 q 332 202 351 271 q 313 65 313 133 q 315 15 313 32 l 319 0 l 215 0 l 81 538 z "},"w":{"ha":660,"x_min":14,"x_max":650,"o":"m 81 538 q 14 688 43 688 l 14 694 l 146 694 l 299 83 q 315 194 300 138 q 357 322 331 250 l 311 538 q 280 652 292 617 q 251 688 268 688 l 251 694 l 383 694 l 508 100 q 526 221 511 161 q 571 374 542 281 q 617 538 603 478 q 626 618 626 578 q 619 669 626 650 q 600 688 613 688 l 600 694 l 646 694 q 634 552 650 624 q 585 374 618 481 q 538 211 554 279 q 522 76 522 143 q 525 24 522 42 l 529 0 l 425 0 l 363 299 q 326 175 339 232 q 313 64 313 118 q 315 15 313 32 l 319 0 l 215 0 l 81 538 z "},"ẃ":{"ha":660,"x_min":14,"x_max":650,"o":"m 81 538 q 14 688 43 688 l 14 694 l 146 694 l 299 83 q 315 194 300 138 q 357 322 331 250 l 311 538 q 280 652 292 617 q 251 688 268 688 l 251 694 l 383 694 l 508 100 q 526 221 511 161 q 571 374 542 281 q 617 538 603 478 q 626 618 626 578 q 619 669 626 650 q 600 688 613 688 l 600 694 l 646 694 q 634 552 650 624 q 585 374 618 481 q 538 211 554 279 q 522 76 522 143 q 525 24 522 42 l 529 0 l 425 0 l 363 299 q 326 175 339 232 q 313 64 313 118 q 315 15 313 32 l 319 0 l 215 0 l 81 538 m 314 872 l 374 844 l 315 743 l 288 743 l 314 872 z "},"ŵ":{"ha":660,"x_min":14,"x_max":650,"o":"m 81 538 q 14 688 43 688 l 14 694 l 146 694 l 299 83 q 315 194 300 138 q 357 322 331 250 l 311 538 q 280 652 292 617 q 251 688 268 688 l 251 694 l 383 694 l 508 100 q 526 221 511 161 q 571 374 542 281 q 617 538 603 478 q 626 618 626 578 q 619 669 626 650 q 600 688 613 688 l 600 694 l 646 694 q 634 552 650 624 q 585 374 618 481 q 538 211 554 279 q 522 76 522 143 q 525 24 522 42 l 529 0 l 425 0 l 363 299 q 326 175 339 232 q 313 64 313 118 q 315 15 313 32 l 319 0 l 215 0 l 81 538 m 256 769 l 317 857 l 344 857 l 406 769 l 351 739 l 331 807 l 310 739 l 256 769 z "},"ẅ":{"ha":660,"x_min":14,"x_max":650,"o":"m 81 538 q 14 688 43 688 l 14 694 l 146 694 l 299 83 q 315 194 300 138 q 357 322 331 250 l 311 538 q 280 652 292 617 q 251 688 268 688 l 251 694 l 383 694 l 508 100 q 526 221 511 161 q 571 374 542 281 q 617 538 603 478 q 626 618 626 578 q 619 669 626 650 q 600 688 613 688 l 600 694 l 646 694 q 634 552 650 624 q 585 374 618 481 q 538 211 554 279 q 522 76 522 143 q 525 24 522 42 l 529 0 l 425 0 l 363 299 q 326 175 339 232 q 313 64 313 118 q 315 15 313 32 l 319 0 l 215 0 l 81 538 m 386 768 q 355 781 368 768 q 342 813 342 794 q 355 842 342 829 q 386 854 368 854 q 415 842 403 854 q 428 813 428 829 q 415 781 428 794 q 386 768 403 768 m 275 768 q 244 781 257 768 q 232 813 232 794 q 244 842 232 829 q 275 854 257 854 q 305 842 292 854 q 318 813 318 829 q 305 781 318 794 q 275 768 292 768 z "},"ẁ":{"ha":660,"x_min":14,"x_max":650,"o":"m 81 538 q 14 688 43 688 l 14 694 l 146 694 l 299 83 q 315 194 300 138 q 357 322 331 250 l 311 538 q 280 652 292 617 q 251 688 268 688 l 251 694 l 383 694 l 508 100 q 526 221 511 161 q 571 374 542 281 q 617 538 603 478 q 626 618 626 578 q 619 669 626 650 q 600 688 613 688 l 600 694 l 646 694 q 634 552 650 624 q 585 374 618 481 q 538 211 554 279 q 522 76 522 143 q 525 24 522 42 l 529 0 l 425 0 l 363 299 q 326 175 339 232 q 313 64 313 118 q 315 15 313 32 l 319 0 l 215 0 l 81 538 m 288 844 l 347 872 l 374 743 l 346 743 l 288 844 z "},"x":{"ha":478,"x_min":14,"x_max":468,"o":"m 178 347 q 153 294 168 322 q 121 242 138 267 q 71 157 86 192 q 50 58 50 103 q 56 21 50 35 q 72 7 63 7 l 72 0 l 26 0 q 43 124 22 74 q 106 240 64 175 q 147 309 133 283 q 169 367 161 335 l 103 538 q 57 638 83 588 q 14 688 31 688 l 14 694 l 146 694 l 301 297 q 324 376 307 340 q 371 453 342 411 q 397 496 383 474 q 419 538 411 518 q 440 636 440 592 q 434 674 440 660 q 418 688 428 688 l 418 694 l 464 694 q 448 570 468 621 q 386 456 428 519 q 331 359 349 399 q 313 267 314 319 l 356 157 q 401 57 375 107 q 444 7 428 7 l 444 0 l 313 0 l 178 347 z "},"y":{"ha":517,"x_min":14,"x_max":507,"o":"m 119 538 q 53 688 82 688 l 53 694 l 185 694 l 336 88 q 359 213 340 150 q 413 368 378 276 q 469 538 453 475 q 481 626 481 590 q 474 671 481 654 q 457 688 468 688 l 457 694 l 503 694 q 488 550 507 622 q 428 369 468 478 q 371 202 390 271 q 351 65 351 133 q 354 15 351 32 l 357 0 q 363 -69 363 -44 q 331 -204 363 -151 q 222 -257 299 -257 q 69 -192 118 -257 q 14 -28 19 -126 l 114 -28 q 115 -64 115 -40 q 126 -162 119 -126 q 154 -220 132 -197 q 222 -243 176 -243 q 318 -194 289 -243 q 347 -67 347 -144 q 343 0 347 -33 l 254 0 l 119 538 z "},"ý":{"ha":517,"x_min":14,"x_max":507,"o":"m 119 538 q 53 688 82 688 l 53 694 l 185 694 l 336 88 q 359 213 340 150 q 413 368 378 276 q 469 538 453 475 q 481 626 481 590 q 474 671 481 654 q 457 688 468 688 l 457 694 l 503 694 q 488 550 507 622 q 428 369 468 478 q 371 202 390 271 q 351 65 351 133 q 354 15 351 32 l 357 0 q 363 -69 363 -44 q 331 -204 363 -151 q 222 -257 299 -257 q 69 -192 118 -257 q 14 -28 19 -126 l 114 -28 q 115 -64 115 -40 q 126 -162 119 -126 q 154 -220 132 -197 q 222 -243 176 -243 q 318 -194 289 -243 q 347 -67 347 -144 q 343 0 347 -33 l 254 0 l 119 538 m 269 872 l 329 844 l 271 743 l 243 743 l 269 872 z "},"ŷ":{"ha":517,"x_min":14,"x_max":507,"o":"m 119 538 q 53 688 82 688 l 53 694 l 185 694 l 336 88 q 359 213 340 150 q 413 368 378 276 q 469 538 453 475 q 481 626 481 590 q 474 671 481 654 q 457 688 468 688 l 457 694 l 503 694 q 488 550 507 622 q 428 369 468 478 q 371 202 390 271 q 351 65 351 133 q 354 15 351 32 l 357 0 q 363 -69 363 -44 q 331 -204 363 -151 q 222 -257 299 -257 q 69 -192 118 -257 q 14 -28 19 -126 l 114 -28 q 115 -64 115 -40 q 126 -162 119 -126 q 154 -220 132 -197 q 222 -243 176 -243 q 318 -194 289 -243 q 347 -67 347 -144 q 343 0 347 -33 l 254 0 l 119 538 m 211 769 l 272 857 l 300 857 l 361 769 l 307 739 l 286 807 l 265 739 l 211 769 z "},"ÿ":{"ha":517,"x_min":14,"x_max":507,"o":"m 119 538 q 53 688 82 688 l 53 694 l 185 694 l 336 88 q 359 213 340 150 q 413 368 378 276 q 469 538 453 475 q 481 626 481 590 q 474 671 481 654 q 457 688 468 688 l 457 694 l 503 694 q 488 550 507 622 q 428 369 468 478 q 371 202 390 271 q 351 65 351 133 q 354 15 351 32 l 357 0 q 363 -69 363 -44 q 331 -204 363 -151 q 222 -257 299 -257 q 69 -192 118 -257 q 14 -28 19 -126 l 114 -28 q 115 -64 115 -40 q 126 -162 119 -126 q 154 -220 132 -197 q 222 -243 176 -243 q 318 -194 289 -243 q 347 -67 347 -144 q 343 0 347 -33 l 254 0 l 119 538 m 342 768 q 310 781 324 768 q 297 813 297 794 q 310 842 297 829 q 342 854 324 854 q 371 842 358 854 q 383 813 383 829 q 371 781 383 794 q 342 768 358 768 m 231 768 q 200 781 213 768 q 188 813 188 794 q 200 842 188 829 q 231 854 213 854 q 260 842 247 854 q 274 813 274 829 q 260 781 274 794 q 231 768 247 768 z "},"ỳ":{"ha":517,"x_min":14,"x_max":507,"o":"m 119 538 q 53 688 82 688 l 53 694 l 185 694 l 336 88 q 359 213 340 150 q 413 368 378 276 q 469 538 453 475 q 481 626 481 590 q 474 671 481 654 q 457 688 468 688 l 457 694 l 503 694 q 488 550 507 622 q 428 369 468 478 q 371 202 390 271 q 351 65 351 133 q 354 15 351 32 l 357 0 q 363 -69 363 -44 q 331 -204 363 -151 q 222 -257 299 -257 q 69 -192 118 -257 q 14 -28 19 -126 l 114 -28 q 115 -64 115 -40 q 126 -162 119 -126 q 154 -220 132 -197 q 222 -243 176 -243 q 318 -194 289 -243 q 347 -67 347 -144 q 343 0 347 -33 l 254 0 l 119 538 m 243 844 l 303 872 l 329 743 l 301 743 l 243 844 z "},"ỹ":{"ha":517,"x_min":14,"x_max":507,"o":"m 119 538 q 53 688 82 688 l 53 694 l 185 694 l 336 88 q 359 213 340 150 q 413 368 378 276 q 469 538 453 475 q 481 626 481 590 q 474 671 481 654 q 457 688 468 688 l 457 694 l 503 694 q 488 550 507 622 q 428 369 468 478 q 371 202 390 271 q 351 65 351 133 q 354 15 351 32 l 357 0 q 363 -69 363 -44 q 331 -204 363 -151 q 222 -257 299 -257 q 69 -192 118 -257 q 14 -28 19 -126 l 114 -28 q 115 -64 115 -40 q 126 -162 119 -126 q 154 -220 132 -197 q 222 -243 176 -243 q 318 -194 289 -243 q 347 -67 347 -144 q 343 0 347 -33 l 254 0 l 119 538 m 342 756 q 297 764 315 756 q 257 786 279 772 q 234 800 246 794 q 213 806 222 806 q 192 794 203 806 l 186 799 l 228 857 q 273 849 254 857 q 314 826 292 842 q 357 807 340 807 q 379 818 368 807 l 385 813 l 342 756 z "},"z":{"ha":458,"x_min":14,"x_max":444,"o":"m 14 7 q 57 57 31 7 q 103 157 83 107 l 307 679 q 173 649 224 675 q 97 563 122 622 q 72 404 72 504 l 65 404 l 65 694 l 444 694 l 444 688 q 401 638 428 688 q 356 538 375 588 l 151 14 q 315 40 253 15 q 407 126 376 65 q 438 290 438 186 l 444 290 l 444 0 l 14 0 l 14 7 z "},"ź":{"ha":458,"x_min":14,"x_max":444,"o":"m 14 7 q 57 57 31 7 q 103 157 83 107 l 307 679 q 173 649 224 675 q 97 563 122 622 q 72 404 72 504 l 65 404 l 65 694 l 444 694 l 444 688 q 401 638 428 688 q 356 538 375 588 l 151 14 q 315 40 253 15 q 407 126 376 65 q 438 290 438 186 l 444 290 l 444 0 l 14 0 l 14 7 m 213 872 l 272 844 l 214 743 l 186 743 l 213 872 z "},"ž":{"ha":458,"x_min":14,"x_max":444,"o":"m 14 7 q 57 57 31 7 q 103 157 83 107 l 307 679 q 173 649 224 675 q 97 563 122 622 q 72 404 72 504 l 65 404 l 65 694 l 444 694 l 444 688 q 401 638 428 688 q 356 538 375 588 l 151 14 q 315 40 253 15 q 407 126 376 65 q 438 290 438 186 l 444 290 l 444 0 l 14 0 l 14 7 m 154 826 l 208 857 l 229 789 l 250 857 l 304 826 l 243 739 l 215 739 l 154 826 z "},"ż":{"ha":458,"x_min":14,"x_max":444,"o":"m 14 7 q 57 57 31 7 q 103 157 83 107 l 307 679 q 173 649 224 675 q 97 563 122 622 q 72 404 72 504 l 65 404 l 65 694 l 444 694 l 444 688 q 401 638 428 688 q 356 538 375 588 l 151 14 q 315 40 253 15 q 407 126 376 65 q 438 290 438 186 l 444 290 l 444 0 l 14 0 l 14 7 m 231 768 q 199 781 213 768 q 186 813 186 794 q 199 842 186 829 q 231 854 213 854 q 260 842 247 854 q 272 813 272 829 q 260 781 272 794 q 231 768 247 768 z "},".":{"ha":114,"x_min":14,"x_max":100,"o":"m 58 -8 q 27 5 40 -8 q 14 36 14 18 q 27 65 14 53 q 58 78 40 78 q 88 65 75 78 q 100 36 100 53 q 88 5 100 18 q 58 -8 75 -8 z "},",":{"ha":122,"x_min":14,"x_max":100,"o":"m 40 74 l 100 46 l 42 -56 l 14 -56 l 40 74 z "},":":{"ha":114,"x_min":14,"x_max":100,"o":"m 58 608 q 27 622 40 608 q 14 653 14 635 q 27 682 14 669 q 58 694 40 694 q 88 682 75 694 q 100 653 100 669 q 88 622 100 635 q 58 608 75 608 m 58 -8 q 27 5 40 -8 q 14 36 14 18 q 27 65 14 53 q 58 78 40 78 q 88 65 75 78 q 100 36 100 53 q 88 5 100 18 q 58 -8 75 -8 z "},";":{"ha":114,"x_min":14,"x_max":100,"o":"m 40 74 l 100 46 l 42 -56 l 14 -56 l 40 74 m 58 608 q 27 622 40 608 q 14 653 14 635 q 27 682 14 669 q 58 694 40 694 q 88 682 75 694 q 100 653 100 669 q 88 622 100 635 q 58 608 75 608 z "},"…":{"ha":325,"x_min":14,"x_max":311,"o":"m 165 -8 q 134 5 147 -8 q 121 36 121 18 q 134 65 121 53 q 165 78 147 78 q 194 65 182 78 q 207 36 207 53 q 194 5 207 18 q 165 -8 182 -8 m 269 -8 q 238 5 251 -8 q 225 36 225 18 q 238 65 225 53 q 269 78 251 78 q 299 65 286 78 q 311 36 311 53 q 299 5 311 18 q 269 -8 286 -8 m 58 -8 q 27 5 40 -8 q 14 36 14 18 q 27 65 14 53 q 58 78 40 78 q 88 65 75 78 q 100 36 100 53 q 88 5 100 18 q 58 -8 75 -8 z "},"!":{"ha":276,"x_min":14,"x_max":263,"o":"m 139 697 l 139 718 l 138 763 q 101 916 131 867 q 14 965 71 965 l 14 972 l 226 972 l 199 233 l 157 233 l 139 697 m 185 -7 q 126 17 151 -7 q 101 76 101 42 q 126 131 101 107 q 185 154 151 154 q 240 131 217 154 q 263 76 263 108 q 240 17 263 42 q 185 -7 217 -7 z "},"¡":{"ha":276,"x_min":14,"x_max":263,"o":"m 78 615 l 119 615 l 138 151 l 138 131 l 139 86 q 176 -67 146 -18 q 263 -117 206 -117 l 263 -124 l 50 -124 l 78 615 m 92 694 q 38 718 61 694 q 14 772 14 742 q 37 831 14 807 q 92 856 60 856 q 150 831 125 856 q 175 772 175 807 q 150 718 175 742 q 92 694 125 694 z "},"?":{"ha":539,"x_min":14,"x_max":525,"o":"m 264 233 q 274 360 260 318 q 315 432 288 403 l 72 872 l 14 972 l 18 972 q 107 933 42 933 q 150 939 129 933 q 182 953 171 944 q 303 985 226 985 q 413 955 363 985 q 494 869 464 925 q 525 736 525 813 q 507 572 525 633 q 464 481 489 511 q 397 421 439 450 q 347 378 365 397 q 317 324 329 358 q 304 233 304 289 l 264 233 m 285 -7 q 226 17 251 -7 q 201 76 201 42 q 226 131 201 107 q 285 154 251 154 q 340 131 317 154 q 363 76 363 108 q 340 17 363 42 q 285 -7 317 -7 m 206 933 q 163 833 163 894 q 185 726 163 785 q 254 571 208 667 q 318 435 293 496 q 377 501 360 478 q 410 590 394 525 q 425 772 425 656 q 392 914 425 857 q 303 971 360 971 q 206 933 251 971 z "},"¿":{"ha":539,"x_min":14,"x_max":525,"o":"m 236 -136 q 126 -106 176 -136 q 44 -20 75 -76 q 14 113 14 36 q 32 276 14 215 q 75 368 50 338 q 142 428 100 399 q 192 471 174 451 q 222 525 210 490 q 235 615 235 560 l 275 615 q 265 488 279 531 q 224 417 251 446 l 467 -24 l 525 -124 l 521 -124 q 432 -85 497 -85 q 389 -90 410 -85 q 357 -104 368 -96 q 236 -136 313 -136 m 333 -85 q 376 15 376 -46 q 353 123 376 64 q 285 278 331 182 q 221 414 246 353 q 162 347 179 371 q 129 258 144 324 q 114 76 114 193 q 147 -65 114 -8 q 236 -122 179 -122 q 333 -85 288 -122 m 254 694 q 200 718 224 694 q 176 772 176 742 q 199 831 176 807 q 254 856 222 856 q 313 831 288 856 q 338 772 338 807 q 313 718 338 742 q 254 694 288 694 z "},"·":{"ha":189,"x_min":14,"x_max":175,"o":"m 97 290 q 39 315 64 290 q 14 374 14 339 q 39 428 14 404 q 97 451 64 451 q 152 428 129 451 q 175 374 175 406 q 152 315 175 339 q 97 290 129 290 z "},"•":{"ha":289,"x_min":14,"x_max":275,"o":"m 149 240 q 54 279 94 240 q 14 375 14 318 q 55 464 14 426 q 149 501 96 501 q 238 464 200 501 q 275 375 275 426 q 238 279 275 318 q 149 240 200 240 z "},"*":{"ha":354,"x_min":-4,"x_max":358,"o":"m -4 696 l 169 783 l -4 871 l 33 924 l 172 792 l 146 982 l 208 982 l 182 793 l 322 922 l 358 871 l 183 783 l 358 694 l 322 644 l 182 772 l 208 585 l 146 585 l 172 774 l 32 644 l -4 696 z "},"#":{"ha":750,"x_min":14,"x_max":736,"o":"m 443 290 l 231 290 l 179 0 l 122 0 l 174 290 l 14 290 l 31 346 l 183 346 l 236 639 l 81 639 l 97 694 l 246 694 l 296 972 l 351 972 l 303 694 l 515 694 l 564 972 l 621 972 l 572 694 l 736 694 l 719 639 l 561 639 l 510 346 l 669 346 l 653 290 l 500 290 l 449 0 l 392 0 l 443 290 m 453 346 l 504 639 l 292 639 l 240 346 l 453 346 z "},"/":{"ha":488,"x_min":14,"x_max":474,"o":"m 415 1139 l 474 1139 l 72 -197 l 14 -197 l 415 1139 z "},"\\":{"ha":465,"x_min":-8,"x_max":451,"o":"m 393 -197 l -8 1139 l 50 1139 l 451 -197 l 393 -197 z "},"-":{"ha":375,"x_min":14,"x_max":361,"o":"m 14 432 l 361 432 l 361 376 l 14 376 l 14 432 z "},"–":{"ha":618,"x_min":14,"x_max":604,"o":"m 14 432 l 604 432 l 604 376 l 14 376 l 14 432 z "},"—":{"ha":856,"x_min":14,"x_max":842,"o":"m 14 432 l 842 432 l 842 376 l 14 376 l 14 432 z "},"_":{"ha":507,"x_min":14,"x_max":493,"o":"m 14 -3 l 493 -3 l 493 -58 l 14 -58 l 14 -3 z "},"(":{"ha":394,"x_min":14,"x_max":381,"o":"m 375 -69 q 190 18 272 -56 q 61 206 108 92 q 14 450 14 319 l 14 522 q 61 767 14 653 q 190 954 108 881 q 375 1042 272 1028 q 381 1035 381 1042 q 375 1028 381 1028 q 256 971 314 1028 q 162 815 199 914 q 125 594 125 715 l 125 379 q 162 158 125 258 q 256 1 199 58 q 375 -56 314 -56 q 381 -62 381 -56 q 375 -69 381 -69 z "},")":{"ha":394,"x_min":14,"x_max":381,"o":"m 19 -69 q 14 -62 14 -69 q 19 -56 14 -56 q 138 1 81 -56 q 233 158 196 58 q 269 379 269 258 l 269 594 q 233 815 269 715 q 138 971 196 914 q 19 1028 81 1028 q 14 1035 14 1028 q 19 1042 14 1042 q 204 954 122 1028 q 333 767 286 881 q 381 522 381 653 l 381 450 q 333 206 381 319 q 204 18 286 92 q 19 -69 122 -56 z "},"{":{"ha":428,"x_min":14,"x_max":414,"o":"m 408 -69 q 219 -20 281 -69 q 143 97 158 29 q 125 274 128 165 q 117 388 124 347 q 89 454 111 428 q 19 481 67 481 q 14 486 14 481 q 19 492 14 492 q 89 518 67 492 q 117 585 111 544 q 125 699 124 625 q 143 875 128 807 q 219 992 158 943 q 408 1042 281 1042 q 414 1035 414 1042 q 408 1028 414 1028 q 294 1007 335 1028 q 253 918 253 986 l 253 754 q 244 620 253 674 q 193 527 235 567 q 64 488 151 488 l 64 485 q 193 445 151 485 q 244 352 235 406 q 253 218 253 299 l 253 54 q 294 -35 253 -14 q 408 -56 335 -56 q 414 -62 414 -56 q 408 -69 414 -69 z "},"}":{"ha":428,"x_min":14,"x_max":414,"o":"m 19 -69 q 14 -62 14 -69 q 19 -56 14 -56 q 134 -35 93 -56 q 175 54 175 -14 l 175 218 q 184 352 175 299 q 235 445 193 406 q 364 485 276 485 l 364 488 q 235 527 276 488 q 184 620 193 567 q 175 754 175 674 l 175 918 q 134 1007 175 986 q 19 1028 93 1028 q 14 1035 14 1028 q 19 1042 14 1042 q 208 992 147 1042 q 285 875 269 943 q 303 699 300 807 q 310 585 304 625 q 339 518 317 544 q 408 492 361 492 q 414 486 414 492 q 408 481 414 481 q 339 454 361 481 q 310 388 317 428 q 303 274 304 347 q 285 97 300 165 q 208 -20 269 29 q 19 -69 147 -69 z "},"[":{"ha":228,"x_min":14,"x_max":214,"o":"m 57 -69 q 26 -57 39 -69 q 14 -26 14 -44 l 14 985 q 26 1015 14 1003 q 57 1028 39 1028 l 208 1028 q 214 1021 214 1028 q 208 1014 214 1014 l 153 1014 q 133 1008 142 1014 q 125 979 125 1001 l 125 -21 q 133 -49 125 -43 q 153 -56 142 -56 l 208 -56 q 214 -62 214 -56 q 208 -69 214 -69 l 57 -69 z "},"]":{"ha":228,"x_min":14,"x_max":214,"o":"m 19 -69 q 14 -62 14 -69 q 19 -56 14 -56 l 75 -56 q 95 -49 88 -56 q 103 -21 103 -43 l 103 979 q 95 1008 103 1001 q 75 1014 88 1014 l 19 1014 q 14 1021 14 1014 q 19 1028 14 1028 l 171 1028 q 201 1015 189 1028 q 214 985 214 1003 l 214 -26 q 201 -57 214 -44 q 171 -69 189 -69 l 19 -69 z "},"‚":{"ha":122,"x_min":14,"x_max":100,"o":"m 40 74 l 100 46 l 42 -56 l 14 -56 l 40 74 z "},"„":{"ha":210,"x_min":14,"x_max":188,"o":"m 128 74 l 188 46 l 129 -56 l 101 -56 l 128 74 m 40 74 l 100 46 l 42 -56 l 14 -56 l 40 74 z "},"“":{"ha":210,"x_min":14,"x_max":188,"o":"m 128 1046 l 188 1018 l 129 917 l 101 917 l 128 1046 m 40 1046 l 100 1018 l 42 917 l 14 917 l 40 1046 z "},"”":{"ha":210,"x_min":22,"x_max":196,"o":"m 82 911 l 22 939 l 81 1040 l 108 1040 l 82 911 m 169 911 l 110 939 l 168 1040 l 196 1040 l 169 911 z "},"‘":{"ha":122,"x_min":14,"x_max":100,"o":"m 40 1046 l 100 1018 l 42 917 l 14 917 l 40 1046 z "},"’":{"ha":122,"x_min":22,"x_max":108,"o":"m 82 911 l 22 939 l 81 1040 l 108 1040 l 82 911 z "},"«":{"ha":629,"x_min":14,"x_max":615,"o":"m 14 388 l 228 671 l 304 593 l 29 388 l 304 182 l 228 107 l 14 388 m 325 388 l 539 671 l 615 593 l 340 388 l 615 182 l 539 107 l 325 388 z "},"»":{"ha":629,"x_min":14,"x_max":615,"o":"m 325 182 l 600 388 l 325 593 l 401 671 l 615 388 l 401 107 l 325 182 m 14 182 l 289 388 l 14 593 l 90 671 l 304 388 l 90 107 l 14 182 z "},"‹":{"ha":318,"x_min":14,"x_max":304,"o":"m 14 388 l 228 671 l 304 593 l 29 388 l 304 182 l 228 107 l 14 388 z "},"›":{"ha":318,"x_min":14,"x_max":304,"o":"m 14 182 l 289 388 l 14 593 l 90 671 l 304 388 l 90 107 l 14 182 z "},"\"":{"ha":169,"x_min":14,"x_max":156,"o":"m 96 854 l 156 840 l 119 725 l 92 725 l 96 854 m 18 854 l 78 840 l 42 725 l 14 725 l 18 854 z "},"'":{"ha":92,"x_min":14,"x_max":78,"o":"m 18 854 l 78 840 l 42 725 l 14 725 l 18 854 z "},"@":{"ha":960,"x_min":14,"x_max":946,"o":"m 469 15 q 240 81 344 18 q 75 251 136 144 q 14 482 14 357 q 76 715 14 608 q 247 885 139 822 q 481 947 354 947 q 709 888 604 947 q 878 725 814 828 q 946 500 942 622 q 911 332 946 404 q 822 221 876 260 q 710 182 767 182 q 592 240 639 182 q 546 410 546 299 q 394 176 514 176 q 285 213 338 176 q 201 313 233 249 q 169 457 169 376 q 280 717 169 644 q 546 790 390 790 l 706 790 l 706 783 q 660 744 676 783 q 643 667 643 706 l 643 408 q 671 263 643 311 q 743 214 699 214 q 824 251 783 214 q 892 355 865 289 q 918 500 918 421 q 853 713 914 615 q 694 867 793 810 q 481 924 596 924 q 262 864 363 924 q 101 703 161 804 q 42 482 42 601 q 99 263 42 364 q 256 102 157 163 q 469 39 354 42 l 469 15 m 278 457 q 300 264 278 336 q 393 192 322 192 q 516 333 486 192 q 546 639 546 474 l 546 775 q 350 701 422 775 q 278 457 278 626 z "},"&":{"ha":635,"x_min":14,"x_max":621,"o":"m 514 0 q 464 140 514 56 q 390 26 436 63 q 268 -11 343 -11 q 131 37 189 -11 q 44 166 74 85 q 14 349 14 247 q 43 528 14 447 q 126 654 72 608 q 107 754 107 708 q 163 922 107 860 q 322 985 218 985 q 411 963 367 985 q 450 943 428 954 q 485 932 472 932 q 506 960 506 932 l 510 960 l 510 532 l 503 532 q 469 769 503 674 q 385 909 435 864 q 283 954 335 954 q 204 914 229 954 q 179 814 179 874 q 189 738 179 771 q 244 627 201 690 q 365 460 286 564 l 458 333 l 458 483 l 608 483 l 608 479 q 521 435 553 479 q 474 311 489 392 q 578 141 539 218 q 621 0 617 64 l 514 0 m 114 319 q 182 155 140 222 q 267 54 224 88 q 343 21 311 21 q 403 58 374 21 q 454 156 433 96 q 399 236 433 190 q 332 326 365 282 q 207 499 253 432 q 135 632 161 567 q 94 460 94 564 q 114 319 94 392 z "},"§":{"ha":2951,"x_min":14,"x_max":2938,"o":"m 389 682 q 363 845 389 786 q 282 930 336 904 q 139 958 228 956 l 139 694 l 188 658 q 221 642 200 649 q 260 635 242 635 q 306 685 306 635 l 310 685 l 310 311 l 306 311 q 282 462 306 390 q 228 583 258 533 q 176 649 197 632 l 139 678 l 139 157 q 144 56 139 106 q 167 7 150 7 l 167 0 l 14 0 l 14 7 q 36 56 31 7 q 42 157 42 106 l 42 679 l 135 679 l 111 693 q 59 735 76 714 q 42 793 42 756 l 42 815 q 36 916 42 867 q 14 965 31 965 l 14 972 l 396 972 l 396 682 l 389 682 m 372 7 q 394 49 389 7 q 401 157 399 92 q 490 755 413 544 q 728 972 568 965 l 853 972 l 853 965 q 831 916 836 965 q 825 815 825 867 l 825 676 q 804 574 825 618 q 753 497 783 529 q 668 421 722 465 q 581 340 614 375 q 523 256 547 306 q 497 139 499 206 q 525 7 501 7 l 525 0 l 372 0 l 372 7 m 700 7 q 722 56 717 7 q 728 157 728 106 l 728 326 q 744 429 728 394 q 789 494 760 464 q 813 524 806 511 q 821 554 821 536 l 825 554 l 825 157 q 831 56 825 106 q 853 7 836 7 l 853 0 l 700 0 l 700 7 m 728 958 q 580 876 629 956 q 515 648 531 797 q 496 229 499 499 q 535 311 510 276 q 601 389 560 346 q 668 466 643 432 q 710 552 693 500 q 728 676 728 604 l 728 958 m 1210 0 q 1192 190 1210 104 q 1148 339 1174 275 q 1078 496 1122 403 q 997 677 1026 597 q 956 856 968 757 l 956 157 q 961 56 956 106 q 983 7 967 7 l 983 0 l 914 0 l 914 7 q 936 56 931 7 q 942 157 942 106 l 942 972 l 1049 972 q 1066 792 1049 874 q 1108 648 1083 710 q 1178 494 1133 586 q 1260 309 1231 389 q 1303 129 1290 229 q 1321 597 1304 425 q 1391 869 1338 769 q 1553 972 1444 968 l 1650 972 l 1650 157 q 1656 56 1650 106 q 1678 7 1661 7 l 1678 0 l 1525 0 l 1525 7 q 1547 56 1542 7 q 1553 157 1553 106 l 1553 958 q 1401 856 1451 954 q 1333 561 1350 758 q 1317 0 1317 364 l 1210 0 m 2035 -11 q 2157 168 2115 36 q 2199 486 2199 300 q 2174 729 2199 618 q 2108 906 2150 840 q 2017 971 2067 971 q 1941 928 1976 971 q 1881 810 1906 885 q 1849 624 1849 710 q 1889 440 1849 519 q 1994 294 1929 360 q 2055 212 2029 260 q 2081 119 2081 164 q 2058 25 2081 61 q 2000 -11 2036 -11 q 1821 103 1881 -11 q 1746 328 1761 217 q 1731 486 1731 439 q 1769 735 1731 621 q 1873 917 1807 850 q 2017 985 1939 985 q 2160 917 2094 985 q 2265 735 2226 850 q 2303 486 2303 621 q 2267 246 2303 357 q 2169 66 2231 135 q 2035 -12 2108 -3 l 2035 -11 m 2661 -12 q 2517 55 2583 -12 q 2413 237 2451 122 q 2375 486 2375 351 q 2413 735 2375 621 q 2517 917 2451 850 q 2661 985 2583 985 q 2767 946 2717 985 q 2826 924 2800 924 q 2864 972 2864 924 l 2868 972 l 2868 599 l 2864 599 q 2832 774 2864 692 q 2761 907 2800 856 q 2711 954 2738 938 q 2661 971 2685 971 q 2569 906 2611 971 q 2503 729 2528 840 q 2479 486 2479 618 q 2503 243 2479 354 q 2569 67 2528 132 q 2661 1 2611 1 q 2728 35 2697 1 q 2777 128 2758 68 q 2796 263 2796 188 l 2796 499 q 2700 410 2731 472 q 2669 236 2669 347 l 2663 236 l 2663 526 l 2938 526 l 2938 519 l 2893 518 l 2893 0 l 2883 0 l 2806 68 q 2661 -12 2744 -12 m 1835 482 q 1856 251 1835 361 q 1916 72 1878 140 q 2000 3 1954 3 q 2049 35 2031 3 q 2067 119 2067 67 q 2042 206 2067 160 q 1983 285 2017 253 q 1895 380 1932 335 q 1835 482 1858 425 z "},"©":{"ha":893,"x_min":14,"x_max":879,"o":"m 447 49 q 230 107 329 49 q 72 265 131 165 q 14 482 14 364 q 72 699 14 600 q 230 856 131 797 q 447 914 329 914 q 664 856 565 914 q 821 699 763 797 q 879 482 879 600 q 821 265 879 364 q 664 107 763 165 q 447 49 565 49 m 456 135 q 322 180 383 135 q 226 302 261 225 q 190 469 190 379 q 226 636 190 560 q 322 758 261 713 q 456 803 383 803 q 544 781 503 803 q 611 760 583 760 q 643 790 643 760 l 647 790 l 647 543 l 643 543 q 609 669 643 611 q 538 757 575 726 l 524 767 q 456 790 489 790 q 371 747 410 790 q 310 631 332 704 q 288 469 288 557 q 310 308 288 382 q 371 191 332 235 q 456 147 410 147 q 518 169 489 147 q 565 232 547 192 q 583 321 583 272 l 671 321 q 640 226 671 268 q 558 159 608 183 q 456 135 508 135 m 447 71 q 650 126 557 71 q 799 276 743 182 q 854 482 854 371 q 799 687 854 593 q 650 836 743 781 q 447 892 557 892 q 244 836 338 892 q 94 687 150 781 q 39 482 39 593 q 94 276 39 371 q 244 126 150 182 q 447 71 338 71 z "},"®":{"ha":524,"x_min":14,"x_max":510,"o":"m 263 474 q 138 507 194 474 q 47 597 81 540 q 14 722 14 654 q 47 846 14 789 q 138 936 81 903 q 263 969 194 969 q 386 936 329 969 q 476 846 443 903 q 510 722 510 789 q 476 597 510 654 q 386 507 443 540 q 263 474 329 474 m 263 496 q 374 526 322 496 q 455 609 425 557 q 485 722 485 661 q 455 835 485 783 q 374 917 425 886 q 263 947 322 947 q 150 917 201 947 q 69 835 99 886 q 39 722 39 783 q 69 609 39 661 q 150 526 99 557 q 263 496 201 496 m 293 675 q 269 683 281 675 q 333 639 293 654 l 333 608 q 335 576 333 594 q 343 557 338 557 l 343 554 l 324 554 q 300 578 300 554 l 300 638 q 258 672 268 650 q 242 747 249 693 l 240 753 l 240 608 q 242 576 240 594 q 250 557 244 557 l 250 554 l 197 554 l 197 557 q 207 608 207 557 l 207 833 q 197 886 207 886 l 197 888 l 240 888 q 321 858 289 888 q 353 768 353 828 q 293 675 353 675 m 240 817 q 246 747 240 774 l 249 733 q 293 679 261 679 q 319 768 319 679 q 301 857 319 831 q 240 883 282 883 l 240 817 z "},"™":{"ha":454,"x_min":14,"x_max":440,"o":"m 67 568 q 74 587 72 568 q 76 619 76 606 l 76 892 q 31 865 46 886 q 17 799 17 843 l 14 799 l 14 897 l 171 897 l 171 799 l 168 799 q 154 864 168 843 q 110 892 140 885 l 110 619 q 118 568 110 568 l 118 565 l 67 565 l 67 568 m 281 565 q 269 653 281 617 q 236 735 258 689 q 209 795 219 769 q 194 854 199 821 l 194 619 q 203 568 194 568 l 203 565 l 179 565 l 179 568 q 189 619 189 568 l 189 897 l 226 897 q 238 814 226 849 q 271 735 249 779 q 299 667 290 690 q 313 610 308 643 q 329 828 314 761 q 397 897 344 894 l 431 897 l 431 619 q 433 587 431 606 q 440 568 435 568 l 440 565 l 389 565 l 389 568 q 397 619 397 568 l 397 892 q 346 857 363 890 q 323 756 329 824 q 317 565 317 689 l 281 565 z "},"°":{"ha":350,"x_min":14,"x_max":336,"o":"m 175 633 q 61 681 108 633 q 14 794 14 728 q 61 908 14 861 q 175 956 108 956 q 289 908 242 956 q 336 794 336 861 q 289 681 336 728 q 175 633 242 633 m 175 657 q 272 697 232 657 q 313 794 313 738 q 272 892 313 851 q 175 932 232 932 q 78 892 118 932 q 38 794 38 851 q 78 697 38 738 q 175 657 118 657 z "},"|":{"ha":83,"x_min":14,"x_max":69,"o":"m 14 1101 l 69 1101 l 69 -110 l 14 -110 l 14 1101 z "},"¦":{"ha":83,"x_min":14,"x_max":69,"o":"m 14 403 l 69 403 l 69 -110 l 14 -110 l 14 403 m 14 1101 l 69 1101 l 69 656 l 14 656 l 14 1101 z "},"†":{"ha":264,"x_min":14,"x_max":250,"o":"m 104 854 l 14 854 l 14 910 l 104 910 l 104 1032 l 160 1032 l 160 910 l 250 910 l 250 854 l 160 854 l 160 508 l 104 508 l 104 854 z "},"‡":{"ha":264,"x_min":14,"x_max":250,"o":"m 104 631 l 14 631 l 14 686 l 104 686 l 104 854 l 14 854 l 14 910 l 104 910 l 104 1032 l 160 1032 l 160 910 l 250 910 l 250 854 l 160 854 l 160 686 l 250 686 l 250 631 l 160 631 l 160 508 l 104 508 l 104 631 z "},"¢":{"ha":656,"x_min":14,"x_max":532,"o":"m 308 125 l 300 125 q 156 174 222 125 q 52 306 90 224 q 14 486 14 389 q 52 667 14 583 q 156 799 90 750 q 300 847 222 847 l 308 847 l 308 972 l 364 972 l 364 838 q 406 817 388 829 q 468 800 442 800 q 503 833 503 800 l 507 833 l 507 567 l 503 567 q 471 692 503 633 q 399 789 439 751 q 364 814 386 800 l 364 161 q 417 228 397 185 q 438 326 438 272 l 532 326 q 483 205 532 257 q 364 133 435 153 l 364 0 l 308 0 l 308 125 m 118 486 q 142 313 118 392 q 208 186 167 233 q 300 139 250 139 l 308 139 l 308 833 l 300 833 q 208 787 250 833 q 142 660 167 740 q 118 486 118 581 z "},"¤":{"ha":528,"x_min":14,"x_max":472,"o":"m 372 247 q 250 188 319 194 l 250 189 q 344 288 313 215 q 376 465 376 361 q 358 601 376 539 q 307 699 339 663 q 236 735 275 735 q 170 704 200 735 q 119 619 140 674 q 106 542 106 579 q 136 440 106 483 q 218 358 167 396 q 265 313 244 340 q 285 261 285 286 q 268 209 285 229 q 222 189 251 189 q 113 225 158 189 l 78 185 l 32 238 l 65 278 q 24 386 33 329 q 14 465 14 443 q 63 638 14 563 l 32 674 l 78 726 l 108 692 q 236 742 165 742 q 381 675 318 742 l 426 726 l 472 674 l 422 615 q 458 465 458 546 q 415 303 458 374 l 472 238 l 426 185 l 372 247 m 94 464 q 111 334 94 396 q 157 234 128 272 q 222 196 186 196 q 260 214 246 196 q 275 261 275 232 q 256 310 275 283 q 210 353 236 336 q 140 407 168 382 q 94 464 113 432 z "},"$":{"ha":485,"x_min":14,"x_max":471,"o":"m 278 35 l 249 33 q 132 65 186 33 q 46 154 78 97 q 14 283 14 211 l 100 283 q 141 112 100 178 q 249 46 182 46 q 278 50 265 46 l 278 443 q 213 494 257 461 q 124 565 157 536 q 69 634 92 594 q 47 722 47 674 q 102 879 47 821 q 249 938 157 938 l 278 936 l 278 1032 l 333 1032 l 333 919 q 357 907 340 918 l 358 908 q 422 883 397 883 q 456 926 456 883 l 458 926 l 458 588 l 456 588 q 431 735 456 665 q 372 854 406 804 q 333 894 350 881 l 333 521 q 435 412 399 467 q 471 286 471 357 q 435 139 471 203 q 333 49 399 75 l 333 -60 l 278 -60 l 278 35 m 117 767 q 156 669 117 713 q 278 564 196 625 l 278 922 q 249 925 258 925 q 152 877 188 925 q 117 767 117 829 m 333 86 q 369 163 358 115 q 381 263 381 210 q 333 389 381 331 l 333 86 z "},"€":{"ha":644,"x_min":14,"x_max":631,"o":"m 14 582 l 119 582 q 174 765 133 683 q 272 892 214 846 q 399 939 331 939 q 506 903 457 939 q 564 883 539 883 q 601 926 601 883 l 606 926 l 606 588 l 601 588 q 569 750 601 675 q 496 871 536 825 q 472 894 485 883 q 399 926 433 926 q 318 881 356 926 q 255 758 281 836 q 221 582 229 679 l 403 582 l 403 526 l 218 526 l 217 486 l 217 472 l 403 472 l 403 417 l 219 417 q 251 228 225 313 q 315 94 276 143 q 399 46 354 46 q 466 76 435 46 q 517 161 497 107 q 536 283 536 215 l 631 283 q 597 155 631 213 q 509 65 563 97 q 399 33 456 33 q 267 84 328 33 q 167 222 207 135 q 115 417 126 310 l 14 417 l 14 472 l 113 472 l 113 486 l 114 526 l 14 526 l 14 582 z "},"£":{"ha":463,"x_min":14,"x_max":449,"o":"m 14 56 q 87 90 51 56 q 133 175 122 125 q 151 338 151 253 q 143 471 151 404 l 14 471 l 14 526 l 136 526 l 119 633 q 94 795 103 731 q 86 925 86 860 l 289 925 l 289 917 q 234 897 257 917 q 200 848 211 876 q 192 796 189 819 q 218 618 199 742 q 233 526 229 557 l 403 526 l 403 471 l 240 471 q 249 340 249 407 q 189 58 249 185 l 192 58 q 384 107 326 58 q 442 279 442 156 l 449 279 l 449 47 l 14 47 l 14 56 z "},"¥":{"ha":508,"x_min":14,"x_max":494,"o":"m 42 357 l 197 357 l 197 404 q 139 400 171 400 l 42 400 l 42 790 q 36 884 42 839 q 14 929 31 929 l 14 936 l 167 936 l 167 929 q 144 884 150 929 q 139 790 139 839 l 139 414 q 277 446 231 415 q 344 558 324 476 q 369 803 365 639 q 363 889 369 849 q 342 929 357 929 l 342 936 l 494 936 l 494 929 q 476 905 483 929 q 467 846 469 881 l 464 804 l 463 790 q 411 555 451 642 q 294 432 371 468 l 294 357 l 431 357 l 431 301 l 294 301 l 294 247 l 431 247 l 431 192 l 294 192 l 294 181 q 300 88 294 133 q 322 42 306 42 l 322 35 l 169 35 l 169 42 q 192 88 186 42 q 197 181 197 133 l 197 192 l 42 192 l 42 247 l 197 247 l 197 301 l 42 301 l 42 357 z "},"+":{"ha":528,"x_min":14,"x_max":514,"o":"m 236 461 l 14 461 l 14 517 l 236 517 l 236 739 l 292 739 l 292 517 l 514 517 l 514 461 l 292 461 l 292 239 l 236 239 l 236 461 z "},"−":{"ha":528,"x_min":14,"x_max":514,"o":"m 14 517 l 514 517 l 514 461 l 14 461 l 14 517 z "},"×":{"ha":419,"x_min":14,"x_max":406,"o":"m 14 332 l 171 489 l 14 646 l 53 685 l 210 528 l 367 685 l 406 646 l 249 489 l 406 332 l 367 293 l 210 450 l 53 293 l 14 332 z "},"÷":{"ha":528,"x_min":14,"x_max":514,"o":"m 14 517 l 514 517 l 514 461 l 14 461 l 14 517 m 265 285 q 234 298 247 285 q 221 329 221 311 q 234 358 221 346 q 265 371 247 371 q 294 358 282 371 q 307 329 307 346 q 294 298 307 311 q 265 285 282 285 m 265 607 q 234 620 247 607 q 221 651 221 633 q 234 681 221 668 q 265 693 247 693 q 294 681 282 693 q 307 651 307 668 q 294 620 307 633 q 265 607 282 607 z "},"=":{"ha":528,"x_min":14,"x_max":514,"o":"m 14 647 l 514 647 l 514 592 l 14 592 l 14 647 m 14 386 l 514 386 l 514 331 l 14 331 l 14 386 z "},">":{"ha":457,"x_min":14,"x_max":443,"o":"m 14 371 l 421 493 l 14 615 l 90 693 l 443 493 l 90 296 l 14 371 z "},"<":{"ha":457,"x_min":14,"x_max":443,"o":"m 14 493 l 367 693 l 443 615 l 36 493 l 443 371 l 367 296 l 14 493 z "},"~":{"ha":500,"x_min":14,"x_max":486,"o":"m 399 415 q 288 430 333 415 q 188 471 243 444 q 127 497 150 489 q 79 506 104 506 q 28 486 49 506 l 14 496 l 100 586 q 210 572 165 586 q 311 531 256 557 q 372 504 349 513 q 419 496 394 496 q 472 515 451 496 l 486 506 l 399 415 z "},"^":{"ha":425,"x_min":14,"x_max":411,"o":"m 211 1088 l 89 765 l 14 826 l 211 1106 l 411 826 l 333 765 l 211 1088 z "},"%":{"ha":792,"x_min":72,"x_max":717,"o":"m 658 972 l 717 972 l 131 0 l 72 0 l 658 972 z "},"‰":{"ha":1151,"x_min":72,"x_max":717,"o":"m 658 972 l 717 972 l 131 0 l 72 0 l 658 972 z "},"̈":{"ha":0,"x_min":14,"x_max":210,"o":"m 168 750 q 137 763 150 750 q 124 794 124 776 q 137 824 124 811 q 168 836 150 836 q 197 824 185 836 q 210 794 210 811 q 197 763 210 776 q 168 750 185 750 m 57 750 q 26 763 39 750 q 14 794 14 776 q 26 824 14 811 q 57 836 39 836 q 87 824 74 836 q 100 794 100 811 q 87 763 100 776 q 57 750 74 750 z "},"̇":{"ha":0,"x_min":14,"x_max":100,"o":"m 58 750 q 27 763 40 750 q 14 794 14 776 q 27 824 14 811 q 58 836 40 836 q 88 824 75 836 q 100 794 100 811 q 88 763 100 776 q 58 750 75 750 z "},"̀":{"ha":0,"x_min":14,"x_max":100,"o":"m 14 826 l 74 854 l 100 725 l 72 725 l 14 826 z "},"́":{"ha":0,"x_min":14,"x_max":100,"o":"m 40 854 l 100 826 l 42 725 l 14 725 l 40 854 z "},"̋":{"ha":0,"x_min":14,"x_max":178,"o":"m 118 854 l 178 826 l 119 725 l 92 725 l 118 854 m 40 854 l 100 826 l 42 725 l 14 725 l 40 854 z "},"̂":{"ha":0,"x_min":14,"x_max":164,"o":"m 14 751 l 75 839 l 103 839 l 164 751 l 110 721 l 89 789 l 68 721 l 14 751 z "},"̌":{"ha":0,"x_min":14,"x_max":164,"o":"m 14 808 l 68 839 l 89 771 l 110 839 l 164 808 l 103 721 l 75 721 l 14 808 z "},"̆":{"ha":0,"x_min":14,"x_max":217,"o":"m 115 732 q 14 803 49 732 l 67 829 q 115 768 83 768 q 164 829 147 768 l 217 803 q 115 732 182 732 z "},"̊":{"ha":0,"x_min":1,"x_max":131,"o":"m 65 721 q 20 740 39 721 q 1 785 1 758 q 20 831 1 811 q 65 850 39 850 q 112 831 93 850 q 131 785 131 813 q 111 740 131 758 q 65 721 92 721 m 65 747 q 93 758 82 747 q 104 785 104 769 q 93 813 104 801 q 65 824 82 824 q 39 813 50 824 q 28 785 28 801 q 39 758 28 769 q 65 747 50 747 z "},"̃":{"ha":0,"x_min":28,"x_max":226,"o":"m 183 738 q 139 746 157 738 q 99 768 121 754 q 76 782 88 776 q 54 788 64 788 q 33 776 44 788 l 28 781 l 69 839 q 115 831 96 839 q 156 808 133 824 q 199 789 182 789 q 221 800 210 789 l 226 794 l 183 738 z "},"̄":{"ha":0,"x_min":28,"x_max":236,"o":"m 28 813 l 236 813 l 236 757 l 28 757 l 28 813 z "},"̒":{"ha":0,"x_min":14,"x_max":113,"o":"m 25 797 q 41 838 29 825 q 75 850 53 850 l 75 846 q 56 821 56 846 l 56 803 l 96 803 l 113 725 l 14 725 l 25 797 z "},"̦":{"ha":0,"x_min":14,"x_max":100,"o":"m 40 -247 l 100 -275 l 42 -376 l 14 -376 l 40 -247 z "},"̧":{"ha":0,"x_min":14,"x_max":96,"o":"m 14 -390 q 48 -376 35 -390 q 61 -344 61 -361 q 52 -323 61 -332 q 28 -314 43 -314 l 15 -314 l 36 -240 l 53 -240 l 42 -281 q 81 -298 67 -283 q 96 -333 96 -312 q 74 -376 96 -357 q 14 -394 53 -394 l 14 -390 z "},"̨":{"ha":0,"x_min":14,"x_max":93,"o":"m 75 -397 q 14 -360 14 -397 q 75 -242 14 -322 l 86 -242 q 51 -319 51 -293 q 93 -351 51 -351 l 75 -397 z "}}}
